<svg width="24" height="24" viewBox="0 0 24 24" fill="none" xmlns="http://www.w3.org/2000/svg">
<g clip-path="url(#clip0_33_576)">
<path fill-rule="evenodd" clip-rule="evenodd" d="M5.23247 4.03935C4.70197 4.16975 4.24399 4.6338 4.12172 5.16478C4.03392 5.54619 4.09977 5.98985 4.29286 6.31747C4.3347 6.38843 5.60092 7.6916 7.1067 9.2134L9.84448 11.9803L7.06752 14.7955C4.07769 17.8264 4.1609 17.7332 4.04552 18.1812C3.95258 18.5421 4.00249 18.9194 4.19039 19.2759C4.48624 19.8373 5.17777 20.1097 5.90921 19.9529C6.34505 19.8594 6.23154 19.9625 9.20436 16.9593C10.718 15.4302 11.9701 14.1792 11.987 14.1792C12.0038 14.1792 13.2561 15.4299 14.7698 16.9586C17.3219 19.5362 17.5367 19.7451 17.7252 19.834C18.3717 20.1389 19.1546 20.0147 19.6021 19.5361C20.0227 19.0863 20.1201 18.3984 19.8452 17.8182C19.7542 17.6262 19.5362 17.3985 16.9458 14.7904L14.1448 11.9702L16.8694 9.20837C18.5665 7.48802 19.6239 6.39283 19.6734 6.30418C19.8118 6.0561 19.8601 5.82469 19.8443 5.48547C19.8273 5.12161 19.7521 4.90057 19.5552 4.63567C19.1708 4.11848 18.4731 3.90092 17.8659 4.1089C17.5199 4.2274 17.3617 4.37551 14.6468 7.12315L11.9905 9.81145L9.2526 7.05366C6.31316 4.0929 6.3848 4.15824 5.95071 4.04388C5.73504 3.98707 5.45242 3.98527 5.23247 4.03935Z" fill="url(#paint0_linear_33_576)"/>
</g>
<defs>
<linearGradient id="paint0_linear_33_576" x1="4" y1="12" x2="20.3684" y2="12" gradientUnits="userSpaceOnUse">
<stop stop-color="#432BDA"/>
<stop offset="1" stop-color="#086AD8"/>
</linearGradient>
<clipPath id="clip0_33_576">
<rect width="16" height="16" fill="white" transform="translate(4 4)"/>
</clipPath>
</defs>
</svg>
