<svg width="24" height="24" viewBox="0 0 24 24" fill="none" xmlns="http://www.w3.org/2000/svg">
<g clip-path="url(#clip0_30_570)">
<path d="M15.7429 14.3441C16.7112 13.0228 17.1449 11.3846 16.9572 9.75725C16.7695 8.12991 15.9743 6.63344 14.7307 5.56723C13.487 4.50102 11.8866 3.9437 10.2497 4.00678C8.61282 4.06985 7.06008 4.74866 5.90217 5.90741C4.74425 7.06615 4.06655 8.61938 4.00465 10.2563C3.94274 11.8933 4.50121 13.4933 5.56831 14.7361C6.6354 15.979 8.13244 16.7732 9.75992 16.9597C11.3874 17.1462 13.0253 16.7113 14.3459 15.7421H14.3449C14.3749 15.7821 14.4069 15.8201 14.4429 15.8571L18.2929 19.7071C18.4804 19.8947 18.7348 20.0002 19 20.0003C19.2653 20.0004 19.5198 19.8951 19.7074 19.7076C19.895 19.5201 20.0005 19.2657 20.0006 19.0005C20.0007 18.7352 19.8954 18.4807 19.7079 18.2931L15.8579 14.4431C15.8221 14.4069 15.7837 14.3735 15.7429 14.3431V14.3441ZM16.0009 10.5001C16.0009 11.2224 15.8586 11.9376 15.5822 12.6049C15.3058 13.2722 14.9007 13.8785 14.39 14.3892C13.8793 14.8999 13.2729 15.305 12.6057 15.5814C11.9384 15.8578 11.2232 16.0001 10.5009 16.0001C9.77863 16.0001 9.06343 15.8578 8.39614 15.5814C7.72885 15.305 7.12253 14.8999 6.61181 14.3892C6.10109 13.8785 5.69596 13.2722 5.41956 12.6049C5.14316 11.9376 5.0009 11.2224 5.0009 10.5001C5.0009 9.04141 5.58036 7.64246 6.61181 6.61101C7.64326 5.57956 9.04221 5.0001 10.5009 5.0001C11.9596 5.0001 13.3585 5.57956 14.39 6.61101C15.4214 7.64246 16.0009 9.04141 16.0009 10.5001V10.5001Z" fill="url(#paint0_linear_30_570)"/>
</g>
<defs>
<linearGradient id="paint0_linear_30_570" x1="4" y1="12.0011" x2="20.369" y2="12.0011" gradientUnits="userSpaceOnUse">
<stop stop-color="#432BDA"/>
<stop offset="1" stop-color="#086AD8"/>
</linearGradient>
<clipPath id="clip0_30_570">
<rect width="16" height="16" fill="white" transform="translate(4 4)"/>
</clipPath>
</defs>
</svg>
