<svg width="38" height="35" viewBox="0 0 38 35" fill="none" xmlns="http://www.w3.org/2000/svg">
<path fill-rule="evenodd" clip-rule="evenodd" d="M10.0735 1.23968V2.47944L9.75789 2.55787C9.24585 2.68504 8.35466 3.0005 7.9778 3.18791C7.78514 3.28373 7.5947 3.36215 7.55459 3.36215C7.51449 3.36215 7.14558 2.96929 6.73478 2.48916C6.32405 2.00903 5.95989 1.59922 5.92565 1.57838C5.89141 1.55755 5.28163 2.02065 4.57055 2.60757C3.85939 3.19448 3.18351 3.75209 3.06846 3.84667L2.85939 4.01858L3.65135 4.93469C4.15715 5.51971 4.42795 5.89027 4.40076 5.96007C4.37729 6.02023 4.22548 6.26157 4.06342 6.49641C3.90135 6.73125 3.62855 7.19932 3.4572 7.53649C3.28586 7.87365 3.13575 8.16104 3.12372 8.17515C3.11169 8.18918 2.56527 8.10929 1.90944 7.99761C1.25361 7.88593 0.70125 7.81006 0.681939 7.82899C0.635296 7.87489 -0.0314482 11.5687 0.00115741 11.6008C0.0150464 11.6146 0.540747 11.7123 1.16924 11.818C1.79781 11.9238 2.33799 12.0322 2.36963 12.0589C2.40127 12.0856 2.46039 12.4009 2.50102 12.7597C2.54165 13.1185 2.64392 13.6861 2.72829 14.0211C2.81274 14.356 2.85953 14.652 2.83228 14.6789C2.80509 14.7057 2.34267 14.9794 1.80472 15.2871C1.26676 15.5947 0.826622 15.8907 0.826622 15.9449C0.826622 16.0763 2.66643 19.22 2.74426 19.2216C2.77776 19.2222 3.27279 18.956 3.84431 18.63L4.88346 18.0371L5.41748 18.543C5.71115 18.8212 6.17892 19.2073 6.45707 19.401C6.83036 19.6611 6.95017 19.7842 6.91503 19.8717C6.53639 20.8139 6.13339 22.0239 6.18375 22.0671C6.2194 22.0975 7.01723 22.3954 7.95678 22.7289C8.89633 23.0624 9.70129 23.3488 9.74563 23.3653C9.79198 23.3825 10.0064 22.9034 10.2499 22.2387L10.6735 21.082L11.3646 21.1368C11.7446 21.1669 12.3474 21.1663 12.704 21.1355C13.2532 21.0882 13.3613 21.0969 13.4103 21.1927C13.4422 21.2549 13.629 21.7498 13.8255 22.2925C14.022 22.8352 14.2028 23.3026 14.2272 23.3312C14.2651 23.3757 17.8237 22.1453 17.9138 22.0567C17.9315 22.0393 17.7626 21.5343 17.5385 20.9345C17.3144 20.3347 17.1318 19.8111 17.1326 19.7709C17.1334 19.7307 17.342 19.56 17.596 19.3916C17.85 19.2231 18.3136 18.8533 18.6263 18.5697L19.1947 18.0541L20.2474 18.6475C20.845 18.9843 21.3278 19.2132 21.3644 19.1769C21.4352 19.1066 23.294 15.9579 23.294 15.9082C23.294 15.8912 22.8088 15.6029 22.2157 15.2675C21.4112 14.8126 21.1484 14.6295 21.1811 14.5466C21.3114 14.2153 21.5177 13.1886 21.5597 12.6616C21.6023 12.1271 21.626 12.0532 21.764 12.0227C21.9395 11.984 24.0056 11.6214 24.0512 11.6214C24.0673 11.6214 23.9293 10.7662 23.7444 9.72101C23.435 7.97115 23.3965 7.82073 23.2584 7.82154C23.1759 7.82198 22.6572 7.90384 22.1057 8.00339C21.5542 8.10293 21.0622 8.1848 21.0124 8.18524C20.9626 8.18575 20.809 7.94762 20.6711 7.65621C20.5333 7.3648 20.2316 6.85009 20.0007 6.51249L19.5809 5.89868L20.3278 5.02715C20.7386 4.54782 21.0903 4.11542 21.1095 4.06623C21.129 4.01617 20.4856 3.43342 19.6469 2.74169C18.1938 1.54323 18.1458 1.51092 18.0293 1.65184C17.2749 2.56481 16.5777 3.36215 16.534 3.36215C16.504 3.36215 16.2283 3.24952 15.9212 3.11182C15.4469 2.89905 15.1206 2.7892 14.14 2.51197C14.0228 2.47886 14.01 2.35358 14.01 1.23764V0H12.0418H10.0735V1.23968ZM31.5034 5.12568C31.483 5.18086 31.4147 5.47081 31.3517 5.77004C31.2887 6.06927 31.2268 6.32428 31.2142 6.33678C31.2015 6.34921 30.9365 6.39116 30.6253 6.43004C30.3141 6.46886 29.9818 6.5198 29.8868 6.54326C29.7332 6.5812 29.6795 6.52155 29.3956 5.99728C29.2203 5.67356 29.0517 5.40868 29.021 5.40868C28.9786 5.40868 27.2015 6.32165 27.0988 6.3962C27.0877 6.40432 27.2269 6.68433 27.4084 7.01842L27.7382 7.62587L27.243 8.16053C26.9705 8.4545 26.7143 8.69555 26.6734 8.69606C26.6326 8.69665 26.3366 8.59659 26.0157 8.47372C25.6948 8.35086 25.423 8.26059 25.4118 8.27309C25.3232 8.3714 24.6265 10.2527 24.6647 10.2902C24.6917 10.3168 24.9709 10.4401 25.2851 10.5643L25.8564 10.79L25.84 11.5516L25.8235 12.3133L25.2163 12.5141C24.8823 12.6245 24.5946 12.7292 24.5768 12.7467C24.5481 12.7749 24.9849 14.2251 25.1535 14.6614L25.2187 14.8302L25.8718 14.6123C26.5131 14.3983 26.5269 14.397 26.6363 14.536C26.6976 14.6139 26.9064 14.8741 27.1005 15.1143C27.2946 15.3544 27.4533 15.5767 27.4533 15.6082C27.4533 15.6398 27.2993 15.9088 27.1111 16.2059C26.9229 16.5031 26.7808 16.7568 26.7954 16.7696C26.81 16.7824 27.2367 17.0453 27.7436 17.3538C28.4393 17.7772 28.6806 17.8913 28.7277 17.8196C28.7621 17.7672 28.9278 17.5024 29.0958 17.231C29.2639 16.9597 29.4175 16.7377 29.4372 16.7377C29.4569 16.7377 29.6452 16.7845 29.8557 16.8415C30.0663 16.8987 30.3915 16.9656 30.5783 16.9903L30.918 17.0352L31.0088 17.706C31.0587 18.0749 31.1071 18.3843 31.1164 18.3934C31.1352 18.4119 33.2725 18.1169 33.3035 18.0915C33.3144 18.0825 33.2776 17.7716 33.2218 17.4006L33.1203 16.7259L33.5362 16.5244C33.765 16.4136 34.0705 16.2526 34.2151 16.1666L34.4781 16.0104L34.9767 16.4531C35.2509 16.6967 35.5028 16.885 35.5366 16.8716C35.6211 16.8382 36.9602 15.3569 36.9602 15.2969C36.9602 15.2703 36.7358 15.0465 36.4616 14.7995L35.9631 14.3505L36.1563 13.9178C36.2627 13.6799 36.3884 13.3646 36.4358 13.2171L36.522 12.9491L37.212 12.9896L37.9019 13.0302L37.951 12.2413C37.9779 11.8074 38 11.3096 38 11.1349V10.8174L37.6472 10.8109C37.4531 10.8074 37.1306 10.7828 36.9304 10.7561L36.5663 10.7077L36.4396 10.2692C36.3699 10.028 36.2747 9.73804 36.228 9.62489C36.1814 9.51175 36.1432 9.3932 36.1432 9.36155C36.1432 9.3299 36.3758 9.12649 36.6602 8.90949C36.9445 8.69255 37.1785 8.49543 37.1801 8.47153C37.1843 8.40831 35.9144 6.83855 35.835 6.80894C35.7982 6.7952 35.5378 6.96697 35.2564 7.1907L34.7449 7.59744L34.0832 7.19165L33.4215 6.78592L33.5551 6.18863C33.6285 5.86016 33.6894 5.55705 33.6904 5.5151C33.6914 5.47315 33.2994 5.36358 32.8195 5.27171C32.3395 5.17984 31.8554 5.08686 31.7437 5.06508C31.6097 5.03892 31.528 5.05953 31.5034 5.12568ZM13.2301 6.91383C13.4752 6.97084 13.9431 7.14677 14.2699 7.30486C16.8011 8.52949 17.7994 11.5745 16.483 14.0553C16.0589 14.8545 15.1234 15.7516 14.3071 16.142C13.4734 16.5407 12.9344 16.6678 12.0691 16.67C11.1974 16.6722 10.5065 16.5234 9.80431 16.1823C8.51509 15.5561 7.56054 14.4278 7.1816 13.082C6.77035 11.6215 7.00074 10.2103 7.85584 8.95217C9.02133 7.2374 11.1495 6.43026 13.2301 6.91383ZM32.4559 9.1759C33.0208 9.44093 33.5348 9.93991 33.808 10.4885C34.0076 10.8893 34.0264 10.9931 34.0264 11.696C34.0264 12.4158 34.011 12.4958 33.785 12.9475C33.4989 13.5195 33.0327 13.9686 32.4426 14.2409C32.07 14.4127 31.9305 14.4353 31.2412 14.4353C30.5286 14.4353 30.423 14.4168 30.0167 14.2204C29.4487 13.9461 28.9496 13.454 28.676 12.8988C28.483 12.5074 28.4604 12.3857 28.4583 11.731C28.4563 11.0895 28.4801 10.9494 28.6536 10.5853C29.002 9.85381 29.672 9.26785 30.4454 9.01832C30.9596 8.85248 31.9282 8.92834 32.4559 9.1759ZM25.0632 18.2984C24.4635 18.3847 23.952 18.4763 23.9265 18.5019C23.901 18.5276 23.9326 18.919 23.9968 19.3717C24.061 19.8245 24.1046 20.2034 24.0937 20.2137C24.0828 20.224 23.8858 20.3141 23.656 20.414C23.4261 20.5138 23.054 20.7114 22.829 20.8529L22.4199 21.1104L21.7614 20.5327C21.3993 20.2149 21.0852 19.9629 21.0634 19.9725C21.0309 19.987 19.8992 21.2042 19.3312 21.8356L19.1834 21.9999L19.6233 22.3907C19.8653 22.6057 20.162 22.8648 20.2827 22.9664L20.5022 23.1513L20.2718 23.6538C20.145 23.9302 19.9839 24.3323 19.9138 24.5475L19.7863 24.9387L18.9053 24.913L18.0243 24.8872L17.9895 25.07C17.9703 25.1705 17.9444 25.7954 17.9319 26.4587L17.9093 27.6647L18.7937 27.7012L19.678 27.7378L19.839 28.3225C19.9275 28.6441 20.0559 29.0345 20.1244 29.1902C20.1929 29.3459 20.2489 29.4949 20.2489 29.5215C20.2489 29.548 19.9481 29.7978 19.5804 30.0767C19.2128 30.3555 18.912 30.6088 18.912 30.6397C18.912 30.6706 19.285 31.165 19.7408 31.7384C20.1966 32.3118 20.5779 32.7917 20.588 32.8047C20.5981 32.8177 20.9057 32.5956 21.2715 32.3113C21.6374 32.0269 21.9782 31.7943 22.029 31.7943C22.0798 31.7943 22.2432 31.8891 22.3921 32.0051C22.5409 32.1209 22.8894 32.3384 23.1665 32.4881C23.5337 32.6866 23.6607 32.793 23.6353 32.8804C23.557 33.1486 23.2907 34.4465 23.3102 34.4646C23.3218 34.4754 23.9407 34.6135 24.6855 34.7716C25.8718 35.0233 26.0441 35.0446 26.0736 34.9432C26.0921 34.8796 26.1779 34.4997 26.2641 34.099C26.3504 33.6983 26.4277 33.3662 26.4358 33.3611C26.4439 33.356 26.7849 33.3094 27.1934 33.2576C27.6019 33.2058 28.0363 33.1497 28.1589 33.133C28.3746 33.1035 28.3947 33.1273 28.7853 33.8714L29.189 34.6401L29.5652 34.4331C29.7721 34.3193 30.3346 34.0218 30.8152 33.7722L31.689 33.3182L31.2715 32.5523L30.854 31.7864L31.2925 31.3335C31.5336 31.0844 31.8233 30.7598 31.9362 30.6121L32.1415 30.3437L32.9585 30.6747C33.4078 30.8568 33.787 30.9941 33.801 30.9798C33.815 30.9654 34.0627 30.3843 34.3512 29.6883L34.8759 28.4229L34.674 28.3504C34.563 28.3105 34.2047 28.1708 33.8779 28.0399L33.2837 27.8019L33.2948 26.829L33.3061 25.8561L34.1118 25.6008C34.5551 25.4605 34.9299 25.3346 34.9449 25.3211C34.9683 25.3 34.1516 22.7249 34.1062 22.6768C34.097 22.6671 33.7428 22.774 33.3192 22.9144C32.8955 23.0547 32.5098 23.1696 32.4619 23.1696C32.4142 23.1696 32.282 23.0298 32.1682 22.859C32.0545 22.6882 31.7968 22.3601 31.5957 22.1301C31.371 21.8731 31.2505 21.6757 31.2832 21.6184C31.3125 21.5671 31.5156 21.2419 31.7344 20.8959C31.9534 20.5498 32.1325 20.2494 32.1325 20.2282C32.1325 20.1734 29.8613 18.7842 29.7716 18.7842C29.7308 18.7842 29.6794 18.8303 29.6574 18.8867C29.6354 18.9431 29.4336 19.2697 29.2089 19.6124L28.8004 20.2356L28.3332 20.0965C28.0762 20.0199 27.6717 19.9356 27.4341 19.9091C27.1474 19.8773 26.982 19.8214 26.942 19.7429C26.9088 19.678 26.8394 19.2876 26.7878 18.8756L26.6939 18.1264L26.4237 18.134C26.2751 18.1382 25.6629 18.2121 25.0632 18.2984ZM27.1526 23.0959C28.446 23.3372 29.6 24.4132 29.939 25.6938C30.5199 27.8885 28.7846 30.1082 26.4848 30.1123C25.4748 30.1141 24.5138 29.7086 23.846 28.9988C23.1752 28.2858 22.8509 27.506 22.8493 26.6019C22.8451 24.351 24.9013 22.6757 27.1526 23.0959Z" fill="#085BD8"/>
</svg>
