<svg width="30" height="35" viewBox="0 0 30 35" fill="none" xmlns="http://www.w3.org/2000/svg">
<path fill-rule="evenodd" clip-rule="evenodd" d="M13.5686 0.0425421C11.6703 0.251486 10.1005 0.717555 8.37576 1.58433C5.46456 3.04742 3.00907 5.57165 1.58582 8.56435C0.646645 10.5392 0.171431 12.3908 0.0483336 14.5551L0 15.4036L0.193401 15.2725C0.625541 14.9796 1.00555 14.7907 1.51479 14.6155L2.05112 14.431L2.10478 13.9957C2.21482 13.1036 2.49757 11.7877 2.72472 11.1108C4.33365 6.31627 8.36864 2.87927 13.2358 2.15772C14.0071 2.04335 15.9929 2.04335 16.7642 2.15772C20.4425 2.70304 23.7617 4.85489 25.8018 8.01684C26.2965 8.78342 26.9662 10.1898 27.2753 11.1108C27.5024 11.7877 27.7852 13.1036 27.8952 13.9957L27.9489 14.431L28.4852 14.6155C28.9944 14.7907 29.3745 14.9796 29.8066 15.2725L30 15.4036L29.9517 14.5551C29.7657 11.2851 28.6129 8.20867 26.6301 5.68992C26.1095 5.02859 24.9921 3.88457 24.3538 3.35937C22.354 1.71375 19.9514 0.619277 17.3634 0.174903C16.4551 0.0189307 14.4262 -0.0518352 13.5686 0.0425421ZM6.41898 14.4215C5.27609 14.6522 4.30456 15.6715 4.08306 16.8722C3.99139 17.3689 3.99139 25.835 4.08306 26.3317C4.31767 27.6034 5.30878 28.5868 6.57304 28.8021C8.10926 29.0638 9.64249 27.9385 9.93888 26.3317C10.0306 25.835 10.0306 17.3689 9.93888 16.8722C9.63057 15.2011 8.04069 14.0941 6.41898 14.4215ZM22.397 14.4215C21.2541 14.6522 20.2826 15.6715 20.0611 16.8722C19.9694 17.3689 19.9694 25.835 20.0611 26.3317C20.2342 27.2702 20.8739 28.1314 21.6892 28.5235C22.2658 28.8009 22.9439 28.9088 23.4391 28.8021C23.6443 28.7578 23.8197 28.7294 23.8289 28.739C23.8382 28.7485 23.7558 28.949 23.6458 29.1846C23.2755 29.9777 22.4377 30.6545 21.6043 30.8338C21.3988 30.878 20.5371 30.9096 19.5405 30.9095L17.8294 30.9093L17.6321 30.5211C17.0498 29.3755 15.7759 28.7041 14.5731 28.909C12.9286 29.1891 11.7943 30.7568 12.057 32.3864C12.2742 33.7338 13.2557 34.7391 14.5731 34.9635C15.7731 35.1679 17.0488 34.4975 17.6297 33.357L17.8245 32.9745L19.8575 32.9446C21.9998 32.9131 22.1253 32.8969 22.9225 32.5496C24.0691 32.0501 25.1049 30.9857 25.5841 29.8146C25.9624 28.89 25.944 29.2157 25.9679 23.0173C25.9824 19.2297 25.9663 17.1496 25.9205 16.8945C25.6171 15.2074 24.0283 14.0922 22.397 14.4215ZM1.62244 16.7878C0.916741 17.1493 0.260309 18.0355 0.0944038 18.8507C-0.00519279 19.34 -0.00519279 23.8639 0.0944038 24.3533C0.284343 25.2868 1.13884 26.3188 1.91797 26.5558C2.05025 26.5961 2.05112 26.5643 2.05112 21.6011C2.05112 18.8538 2.03454 16.6059 2.01423 16.6059C1.99399 16.6059 1.8177 16.6878 1.62244 16.7878ZM27.9489 21.602C27.9489 26.5643 27.9497 26.5961 28.082 26.5558C28.8612 26.3188 29.7157 25.2868 29.9056 24.3533C30.0052 23.8639 30.0052 19.34 29.9056 18.8507C29.7157 17.9171 28.8612 16.8851 28.082 16.6481C27.9497 16.6078 27.9489 16.6397 27.9489 21.602Z" fill="#085BD8"/>
</svg>
