<svg width="31" height="35" viewBox="0 0 31 35" fill="none" xmlns="http://www.w3.org/2000/svg">
<path fill-rule="evenodd" clip-rule="evenodd" d="M0.717434 0.0733681C0.0506281 0.323322 -0.192244 1.03295 0.1634 1.69229C0.474926 2.26986 7.71209 14.6035 7.77317 14.6609C7.80578 14.6916 8.11505 14.5436 8.46043 14.332C9.68484 13.5819 11.3314 12.9553 12.8391 12.6658C13.8324 12.4751 15.2685 12.3594 15.9569 12.4144L16.5267 12.4601L16.4372 12.3009C16.252 11.9714 9.06863 0.437317 8.99473 0.35076C8.95229 0.300947 8.79372 0.200911 8.64251 0.128381C8.38122 0.00309634 8.18167 -0.00326713 4.63345 0.000838333C2.33396 0.00350688 0.829478 0.031424 0.717434 0.0733681ZM22.3348 0.130776C22.1917 0.202348 22.0399 0.301495 21.9973 0.351102C21.8687 0.500883 17.0253 8.74287 17.0253 8.81204C17.0253 8.84735 17.6069 9.80652 18.3176 10.9435L19.6098 13.0109L20.3106 13.267C21.1075 13.5584 22.2793 14.129 22.8035 14.4811C22.9984 14.612 23.185 14.6935 23.2182 14.6621C23.2798 14.6039 30.5128 2.27848 30.8293 1.69229C31.1472 1.10356 31.0175 0.554938 30.4704 0.173883C30.2687 0.0333399 30.1944 0.0304661 26.4298 0.0156864C22.7831 0.00138573 22.582 0.00706495 22.3348 0.130776ZM14.4408 14.6462C10.2227 15.0598 6.63299 17.7043 5.24398 21.4215C4.79529 22.6221 4.68514 23.2882 4.68514 24.8003C4.68514 26.3273 4.75991 26.7977 5.20008 28.0412C5.7753 29.6661 6.72356 31.0521 8.08309 32.255C9.56013 33.5618 11.3158 34.4155 13.3851 34.8331C14.488 35.0556 16.5048 35.0556 17.6077 34.8331C19.6801 34.4149 21.4796 33.5379 22.9334 32.2376C24.28 31.0332 25.2262 29.6423 25.7982 28.0261C26.2327 26.7985 26.3077 26.3234 26.3077 24.8003C26.3077 23.6176 26.2848 23.3354 26.1385 22.7215C25.386 19.5625 23.2587 17.0092 20.2153 15.6118C19.0604 15.0815 17.8912 14.7804 16.4534 14.643C15.6123 14.5626 15.2884 14.5631 14.4408 14.6462ZM16.0609 19.1637C16.3698 19.3043 16.3996 19.3475 16.9931 20.5151C17.3303 21.1785 17.6639 21.8287 17.7343 21.9601L17.8625 22.1989L19.3758 22.4171C21.004 22.6518 21.24 22.7292 21.5207 23.1207C21.7012 23.3725 21.7381 23.8042 21.6068 24.1288C21.5639 24.2347 21.0186 24.8044 20.3949 25.3947L19.2608 26.4682L19.5351 28.0488C19.8049 29.6026 19.8074 29.6346 19.685 29.9359C19.5014 30.3877 19.1477 30.6164 18.6327 30.6164C18.2528 30.6164 18.1401 30.571 16.8932 29.9151C16.1598 29.5294 15.5341 29.2137 15.5027 29.2137C15.4713 29.2137 14.8427 29.529 14.106 29.9144C12.8565 30.568 12.7389 30.6152 12.3602 30.6158C11.8429 30.6166 11.4918 30.3885 11.3057 29.9306C11.1806 29.6225 11.1823 29.6004 11.4462 28.0991C11.5932 27.2632 11.7128 26.5516 11.712 26.5177C11.7113 26.4838 11.2046 25.9744 10.5861 25.3856C9.9676 24.7969 9.42704 24.23 9.38481 24.1257C9.25464 23.8039 9.29228 23.3716 9.47218 23.1207C9.75131 22.7314 9.98428 22.6551 11.6138 22.4195L13.1303 22.2002L13.2578 21.9607C13.3279 21.829 13.6608 21.1793 13.9974 20.5169C14.5862 19.3585 14.6216 19.307 14.9256 19.1656C15.3249 18.9798 15.6555 18.9793 16.0609 19.1637Z" fill="#085BD8"/>
</svg>
