<svg width="34" height="34" viewBox="0 0 34 34" fill="none" xmlns="http://www.w3.org/2000/svg">
<path d="M5.95 8.5C5.2737 8.5 4.6251 8.23134 4.14688 7.75312C3.66866 7.27491 3.4 6.6263 3.4 5.95C3.4 5.2737 3.66866 4.6251 4.14688 4.14688C4.6251 3.66866 5.2737 3.4 5.95 3.4C6.6263 3.4 7.27491 3.66866 7.75312 4.14688C8.23134 4.6251 8.5 5.2737 8.5 5.95C8.5 6.6263 8.23134 7.27491 7.75312 7.75312C7.27491 8.23134 6.6263 8.5 5.95 8.5ZM32.997 16.286L17.697 0.986C17.085 0.374 16.235 0 15.3 0H3.4C1.513 0 0 1.513 0 3.4V15.3C0 16.235 0.374 17.085 1.003 17.697L16.286 32.997C16.915 33.609 17.765 34 18.7 34C19.635 34 20.485 33.609 21.097 32.997L32.997 21.097C33.626 20.485 34 19.635 34 18.7C34 17.748 33.609 16.898 32.997 16.286Z" fill="#085BD8"/>
<path d="M17.6776 16.0026C15.7064 15.4677 15.0725 14.9146 15.0725 14.0533C15.0725 13.065 15.9496 12.376 17.4171 12.376C18.9628 12.376 19.5359 13.1466 19.588 14.28H21.5071C21.4463 12.7205 20.5345 11.288 18.7197 10.8256V8.83997H16.1145V10.7984C14.4299 11.1792 13.0753 12.3216 13.0753 14.0714C13.0753 16.1658 14.7338 17.2085 17.1566 17.816C19.3275 18.36 19.7617 19.1578 19.7617 20.001C19.7617 20.6266 19.3362 21.624 17.4171 21.624C15.6283 21.624 14.9249 20.7898 14.812 19.72H12.9189C13.0231 21.7056 14.4473 22.8208 16.1145 23.1925V25.16H18.7197V23.2106C20.413 22.8933 21.7589 21.8506 21.7589 19.992C21.7589 17.417 19.6488 16.5466 17.6776 16.0026Z" fill="white"/>
</svg>
