<svg width="60" height="68" viewBox="0 0 60 68" fill="none" xmlns="http://www.w3.org/2000/svg">
<path d="M29.9734 62L29.7052 61.8742C25.283 59.8378 21.2389 57.1792 17.721 53.9958C11.1984 48.0203 7.90858 41.102 7.94655 33.4273L8.02962 16.151L8.51621 16.0535C16.8594 14.3846 24.8417 10.4551 29.8785 5.53733L30.3342 5.09302L30.8279 5.57635C35.8125 10.5288 43.7213 14.5125 51.9529 16.2312L52.4276 16.3331V16.7882C52.4276 17.3106 52.411 20.2171 52.3445 33.6093C52.2543 52.095 32.4942 60.9336 30.2417 61.8807L29.9734 62ZM9.26389 17.0635L9.17607 33.4338C9.10011 49.1105 23.4864 57.6695 29.99 60.732C33.1469 59.3557 51.0153 50.7967 51.0984 33.6028C51.1553 22.3064 51.1743 18.4723 51.1791 17.2347C43.1089 15.4596 35.3757 11.58 30.3058 6.75107C25.2049 11.528 17.4195 15.3448 9.26389 17.0635Z" fill="white"/>
<path d="M30.1557 58.051L29.5411 58.0185C25.9034 56.3009 22.5673 54.1099 19.6409 51.5163C13.7701 46.2604 10.8107 40.1918 10.8444 33.475L10.9167 18.6826L11.471 18.5547C18.5347 16.9162 24.979 13.9078 29.6158 10.0824L30.1364 9.64893L30.6377 10.0997L30.1557 10.6026L30.6594 10.1149C35.2576 13.9664 41.6586 17.0137 48.6813 18.7021L49.2307 18.8343L49.1585 33.6246C49.1247 40.3435 46.105 46.3861 40.1861 51.5922C37.3075 54.0986 34.045 56.2217 30.4979 57.8971L30.1557 58.051ZM12.3916 19.7056L12.3217 33.4728C12.2928 39.8211 15.1053 45.5712 20.682 50.5649C23.4109 52.9863 26.51 55.0451 29.8857 56.6791C33.2764 55.0706 36.3957 53.0367 39.1498 50.6386C44.7795 45.6882 47.6474 39.962 47.6787 33.6159L47.7462 19.8465C40.9404 18.1364 34.7322 15.1801 30.1123 11.463C25.4682 15.1389 19.2215 18.0454 12.3916 19.7056Z" fill="white"/>
<path d="M22.4374 31.0061V42.7317C22.4374 44.0321 38.3785 44.0321 38.3785 42.7317V31.0061H22.4374ZM31.2131 37.233V40.5556C31.2131 40.7694 31.1282 40.9745 30.977 41.1257C30.8258 41.2769 30.6207 41.3619 30.4069 41.3619C30.193 41.3619 29.988 41.2769 29.8368 41.1257C29.6856 40.9745 29.6006 40.7694 29.6006 40.5556V37.2243C29.1948 37.0401 28.8643 36.7225 28.6641 36.3242C28.4639 35.926 28.4061 35.4713 28.5003 35.0357C28.5946 34.6 28.8352 34.2098 29.182 33.93C29.5289 33.6501 29.9612 33.4975 30.4069 33.4975C30.8526 33.4975 31.2848 33.6501 31.6317 33.93C31.9786 34.2098 32.2192 34.6 32.3134 35.0357C32.4077 35.4713 32.3499 35.926 32.1497 36.3242C31.9495 36.7225 31.619 37.0401 31.2131 37.2243V37.233Z" fill="white"/>
<path d="M36.9827 30.1697H35.3701V29.3808C35.343 28.0827 34.8083 26.8469 33.8806 25.9384C32.953 25.03 31.7063 24.5212 30.4079 24.5212C29.1095 24.5212 27.8628 25.03 26.9351 25.9384C26.0075 26.8469 25.4728 28.0827 25.4457 29.3808V30.1697H23.8331V29.3808C23.8173 28.5073 23.9756 27.6395 24.2989 26.8279C24.6222 26.0163 25.1039 25.2773 25.716 24.654C26.3281 24.0307 27.0583 23.5356 27.8639 23.1976C28.6694 22.8596 29.5343 22.6855 30.4079 22.6855C31.2815 22.6855 32.1463 22.8596 32.9519 23.1976C33.7575 23.5356 34.4876 24.0307 35.0997 24.654C35.7118 25.2773 36.1936 26.0163 36.5169 26.8279C36.8402 27.6395 36.9985 28.5073 36.9827 29.3808V30.1697Z" fill="white"/>
</svg>
