<svg width="39" height="50" viewBox="0 0 39 50" fill="none" xmlns="http://www.w3.org/2000/svg">
<path d="M11.7677 9.08057H11.3096V11.53H11.7677V9.08057Z" fill="#265399"/>
<path d="M7.80346 13.4204C7.80126 13.4631 7.78659 13.5043 7.76125 13.5387C7.73592 13.5732 7.70105 13.5995 7.66093 13.6144C7.62081 13.6292 7.57721 13.632 7.53554 13.6223C7.49387 13.6126 7.45596 13.591 7.42647 13.56C7.39699 13.529 7.37724 13.49 7.36966 13.4479C7.36209 13.4058 7.36704 13.3624 7.38387 13.3231C7.40071 13.2838 7.4287 13.2502 7.4644 13.2267C7.50009 13.2031 7.54192 13.1905 7.58469 13.1904C7.61416 13.1912 7.64319 13.1977 7.67014 13.2096C7.69708 13.2216 7.72141 13.2387 7.74173 13.2601C7.76204 13.2814 7.77795 13.3066 7.78854 13.3341C7.79913 13.3616 7.8042 13.3909 7.80346 13.4204V13.4204Z" fill="#246AD6"/>
<path d="M8.43334 13.4204C8.43115 13.4631 8.41647 13.5043 8.39114 13.5387C8.3658 13.5732 8.33093 13.5995 8.29081 13.6144C8.25069 13.6292 8.20711 13.632 8.16544 13.6223C8.12376 13.6126 8.08584 13.591 8.05636 13.56C8.02687 13.529 8.00712 13.49 7.99955 13.4479C7.99198 13.4058 7.99692 13.3624 8.01376 13.3231C8.03059 13.2838 8.05859 13.2502 8.09428 13.2267C8.12997 13.2031 8.1718 13.1905 8.21458 13.1904C8.24405 13.1912 8.27308 13.1977 8.30002 13.2096C8.32697 13.2216 8.35129 13.2387 8.37161 13.2601C8.39193 13.2814 8.40783 13.3066 8.41842 13.3341C8.42902 13.3616 8.43409 13.3909 8.43334 13.4204V13.4204Z" fill="#408BFF"/>
<path d="M9.06615 13.4204C9.06396 13.4631 9.04928 13.5043 9.02395 13.5387C8.99862 13.5732 8.96374 13.5995 8.92362 13.6144C8.88351 13.6292 8.83991 13.632 8.79824 13.6223C8.75657 13.6126 8.71865 13.591 8.68917 13.56C8.65969 13.529 8.63993 13.49 8.63236 13.4479C8.62479 13.4058 8.62973 13.3624 8.64657 13.3231C8.6634 13.2838 8.6914 13.2502 8.72709 13.2267C8.76279 13.2031 8.80461 13.1905 8.84739 13.1904C8.87686 13.1912 8.90589 13.1977 8.93283 13.2096C8.95978 13.2216 8.98411 13.2387 9.00442 13.2601C9.02474 13.2814 9.04064 13.3066 9.05124 13.3341C9.06183 13.3616 9.0669 13.3909 9.06615 13.4204V13.4204Z" fill="#408BFF"/>
<path d="M7.80346 9.04689C7.80126 9.08961 7.78659 9.13074 7.76125 9.16521C7.73592 9.19968 7.70105 9.22598 7.66093 9.24083C7.62081 9.25568 7.57721 9.25844 7.53554 9.24877C7.49387 9.2391 7.45596 9.21743 7.42647 9.18644C7.39699 9.15544 7.37724 9.11648 7.36966 9.07438C7.36209 9.03228 7.36704 8.98889 7.38387 8.94956C7.40071 8.91024 7.4287 8.87671 7.4644 8.85313C7.50009 8.82955 7.54192 8.81695 7.58469 8.81689C7.61416 8.81762 7.64319 8.82415 7.67014 8.8361C7.69708 8.84805 7.72141 8.86521 7.74173 8.88657C7.76204 8.90792 7.77795 8.93307 7.78854 8.96058C7.79913 8.98808 7.8042 9.01742 7.80346 9.04689V9.04689Z" fill="#246AD6"/>
<path d="M8.43334 9.04689C8.43115 9.08961 8.41647 9.13074 8.39114 9.16521C8.3658 9.19968 8.33093 9.22598 8.29081 9.24083C8.25069 9.25568 8.20711 9.25844 8.16544 9.24877C8.12376 9.2391 8.08584 9.21743 8.05636 9.18644C8.02687 9.15544 8.00712 9.11648 7.99955 9.07438C7.99198 9.03228 7.99692 8.98889 8.01376 8.94956C8.03059 8.91024 8.05859 8.87671 8.09428 8.85313C8.12997 8.82955 8.1718 8.81695 8.21458 8.81689C8.24405 8.81762 8.27308 8.82415 8.30002 8.8361C8.32697 8.84805 8.35129 8.86521 8.37161 8.88657C8.39193 8.90792 8.40783 8.93307 8.41842 8.96058C8.42902 8.98808 8.43409 9.01742 8.43334 9.04689V9.04689Z" fill="#408BFF"/>
<path d="M9.06615 9.04689C9.06396 9.08961 9.04928 9.13074 9.02395 9.16521C8.99862 9.19968 8.96374 9.22598 8.92362 9.24083C8.88351 9.25568 8.83991 9.25844 8.79824 9.24877C8.75657 9.2391 8.71865 9.21743 8.68917 9.18644C8.65969 9.15544 8.63993 9.11648 8.63236 9.07438C8.62479 9.03228 8.62973 8.98889 8.64657 8.94956C8.6634 8.91024 8.6914 8.87671 8.72709 8.85313C8.76279 8.82955 8.80461 8.81695 8.84739 8.81689C8.87686 8.81762 8.90589 8.82415 8.93283 8.8361C8.95978 8.84805 8.98411 8.86521 9.00442 8.88657C9.02474 8.90792 9.04064 8.93307 9.05124 8.96058C9.06183 8.98808 9.0669 9.01742 9.06615 9.04689V9.04689Z" fill="#408BFF"/>
<path d="M17.9643 1.2013C17.9643 1.19196 17.9437 1.18261 17.9344 1.17139C13.9685 5.42143 7.6374 8.90298 0.863138 10.3876C0.863138 10.8401 0.850045 13.3456 0.79956 24.8991C0.730378 40.3118 15.397 47.8433 17.6745 48.9988C10.9843 21.9186 16.2254 5.53922 17.9643 1.2013Z" fill="white"/>
<path d="M19.3157 49.5467L19.0844 49.4382C15.2693 47.6814 11.7805 45.3878 8.74562 42.6415C3.11859 37.4865 0.280506 31.5181 0.313269 24.8972L0.384933 9.99306L0.804705 9.90891C8.0023 8.46917 14.8887 5.07924 19.2338 0.836674L19.627 0.453369L20.0529 0.870335C24.353 5.14281 31.1759 8.57949 38.2773 10.0622L38.6868 10.1501V10.5428C38.6868 10.9934 38.6725 13.5008 38.6151 25.0542C38.5373 41.0017 21.4904 48.6267 19.5471 49.4438L19.3157 49.5467ZM1.44973 10.7802L1.37397 24.9028C1.30844 38.427 13.7194 45.8108 19.3301 48.4528C22.0535 47.2655 37.4684 39.8817 37.5401 25.0486C37.5892 15.3033 37.6056 11.9956 37.6097 10.928C30.6476 9.39659 23.9763 6.04966 19.6024 1.88377C15.202 6.00479 8.48556 9.29749 1.44973 10.7802Z" fill="#085BD8"/>
<path d="M19.4729 46.14L18.9428 46.112C15.8045 44.6302 12.9265 42.74 10.4019 40.5026C5.33724 35.9683 2.78413 30.7329 2.81323 24.9384L2.8756 12.1771L3.35379 12.0668C9.44759 10.6532 15.0071 8.05793 19.0072 4.75775L19.4563 4.38379L19.8888 4.7727L19.4729 5.20649L19.9075 4.78579C23.8744 8.10841 29.3964 10.7373 35.4549 12.1939L35.9289 12.308L35.8665 25.0674C35.8374 30.8638 33.2323 36.0768 28.1261 40.568C25.6428 42.7302 22.8283 44.5619 19.7682 46.0073L19.4729 46.14ZM4.148 13.0596L4.08771 24.9366C4.06277 30.4132 6.48906 35.3737 11.3001 39.6817C13.6543 41.7707 16.3279 43.5468 19.2401 44.9564C22.1652 43.5688 24.8561 41.8142 27.2321 39.7453C32.0888 35.4747 34.563 30.5347 34.59 25.06L34.6482 13.1812C28.7769 11.7059 23.4211 9.1555 19.4355 5.9488C15.4291 9.11997 10.0401 11.6274 4.148 13.0596Z" fill="#085BD8"/>
<path d="M12.8145 22.8086V32.9242C12.8145 34.046 26.5668 34.046 26.5668 32.9242V22.8086H12.8145ZM20.3852 28.1805V31.0469C20.3852 31.2314 20.312 31.4083 20.1815 31.5387C20.0511 31.6692 19.8741 31.7425 19.6897 31.7425C19.5052 31.7425 19.3283 31.6692 19.1979 31.5387C19.0674 31.4083 18.9941 31.2314 18.9941 31.0469V28.173C18.644 28.0141 18.3589 27.7401 18.1862 27.3965C18.0135 27.053 17.9636 26.6607 18.0449 26.2849C18.1262 25.9091 18.3338 25.5724 18.633 25.331C18.9323 25.0896 19.3052 24.9579 19.6897 24.9579C20.0742 24.9579 20.4471 25.0896 20.7463 25.331C21.0456 25.5724 21.2531 25.9091 21.3344 26.2849C21.4157 26.6607 21.3659 27.053 21.1932 27.3965C21.0205 27.7401 20.7354 28.0141 20.3852 28.173V28.1805Z" fill="black"/>
<path d="M25.3626 22.0869H23.9714V21.4063C23.948 20.2864 23.4867 19.2203 22.6864 18.4366C21.8862 17.6529 20.8106 17.214 19.6905 17.214C18.5704 17.214 17.4949 17.6529 16.6946 18.4366C15.8943 19.2203 15.433 20.2864 15.4096 21.4063V22.0869H14.0185V21.4063C14.0048 20.6528 14.1414 19.9041 14.4203 19.2039C14.6992 18.5038 15.1148 17.8662 15.6429 17.3285C16.1709 16.7908 16.8009 16.3637 17.4958 16.0721C18.1908 15.7805 18.9369 15.6304 19.6905 15.6304C20.4442 15.6304 21.1903 15.7805 21.8852 16.0721C22.5802 16.3637 23.2101 16.7908 23.7382 17.3285C24.2662 17.8662 24.6818 18.5038 24.9607 19.2039C25.2396 19.9041 25.3762 20.6528 25.3626 21.4063V22.0869Z" fill="black"/>
</svg>
