<svg width="60" height="68" viewBox="0 0 60 68" fill="none" xmlns="http://www.w3.org/2000/svg">
<path fill-rule="evenodd" clip-rule="evenodd" d="M57.0001 14H2.99994V52.0001H57.0001V14ZM2.99994 12C1.89537 12 0.999939 12.8954 0.999939 14V52.0001C0.999939 53.1047 1.89537 54.0001 2.99994 54.0001H57.0001C58.1046 54.0001 59.0001 53.1047 59.0001 52.0001V14C59.0001 12.8954 58.1046 12 57.0001 12H2.99994Z" fill="black"/>
<rect x="0.999939" y="49" width="58.0001" height="5.00001" rx="2" fill="#D6D7DB"/>
<path d="M17 61C17 60.4477 17.4477 60 18 60H43C43.5523 60 44 60.4477 44 61C44 61.5523 43.5523 62 43 62H18C17.4477 62 17 61.5523 17 61Z" fill="#C4C4C4"/>
<path d="M24 54.0002H37V59.0003H24V54.0002Z" fill="#C4C4C4"/>
<path fill-rule="evenodd" clip-rule="evenodd" d="M2.99994 12C1.89537 12 0.999939 12.8954 0.999939 14V52.0001C0.999939 53.1047 1.89537 54.0001 2.99994 54.0001H57.0001C58.1046 54.0001 59.0001 53.1047 59.0001 52.0001V14C59.0001 12.8954 58.1046 12 57.0001 12H2.99994ZM36.095 23.0851C34.5051 21.8961 32.7517 21.2062 30.8986 21.0405C28.4034 20.8173 25.9966 21.5209 23.905 23.0851C23.4277 23.442 22.4403 24.4293 22.0833 24.9065C21.057 26.2788 20.4259 27.7084 20.1528 29.2805C19.6698 32.0603 20.3368 34.7603 22.0833 37.0954C22.4403 37.5727 23.4277 38.5599 23.905 38.9169C25.2774 39.9432 26.7071 40.5742 28.2794 40.8473C31.0594 41.3303 33.7597 40.6633 36.095 38.9169C36.5723 38.5599 37.5597 37.5727 37.9166 37.0954C39.6632 34.7603 40.3302 32.0603 39.8472 29.2805C39.5741 27.7084 38.943 26.2788 37.9166 24.9065C37.5597 24.4293 36.5723 23.442 36.095 23.0851ZM30.5861 25.6879V23.9885C30.5861 23.0538 30.6013 22.2891 30.6199 22.2891C30.6385 22.2891 30.7835 22.3536 30.9422 22.4325C31.172 22.5467 31.3187 22.664 31.6629 23.0087C32.2657 23.6125 32.6852 24.271 33.1047 25.2722L33.2789 25.6879H31.9325H30.5861ZM27.6822 23.7787C27.9777 23.3314 28.6882 22.6215 29.0037 22.4583C29.1326 22.3916 29.2777 22.3251 29.326 22.3104L29.4139 22.2838V23.9859V25.6879H28.0675H26.7211L26.8953 25.2722C27.1176 24.7415 27.3995 24.2065 27.6822 23.7787ZM34.3601 25.2677C34.1239 24.6175 33.6391 23.6431 33.3106 23.1583C33.1467 22.9166 33.0249 22.7196 33.0399 22.7205C33.0548 22.7214 33.2077 22.7802 33.3796 22.851C34.7598 23.4198 36.0709 24.4253 36.9897 25.6195C37.0395 25.6843 36.976 25.6879 35.7774 25.6877L34.5126 25.6874L34.3601 25.2677ZM23.0103 25.6195C23.9362 24.4161 25.2997 23.3761 26.6602 22.8357C26.8221 22.7714 26.9619 22.7188 26.9709 22.7188C26.9799 22.7188 26.8533 22.9166 26.6894 23.1583C26.3609 23.6431 25.8761 24.6175 25.6398 25.2677L25.4874 25.6874L24.2226 25.6877C23.024 25.6879 22.9605 25.6843 23.0103 25.6195ZM35.2749 29.9015C35.2738 29.3142 35.0712 27.8605 34.8633 26.9478L34.8432 26.8599H36.3228H37.8023L37.9872 27.253C38.3474 28.0186 38.6063 28.8712 38.7308 29.7017C38.7639 29.9218 38.7909 30.1724 38.7909 30.2584V30.415H37.0573H35.3238L35.2996 30.2685C35.2863 30.1879 35.2752 30.0228 35.2749 29.9015ZM30.5861 30.415V28.6374V26.8599H32.1083H33.6305L33.669 27.0064C33.882 27.8182 34.0622 29.0565 34.115 30.0731L34.1328 30.415H32.3594H30.5861ZM25.885 30.0731C25.9378 29.0565 26.118 27.8182 26.331 27.0064L26.3694 26.8599H27.8917H29.4139V28.6374V30.415H27.6406H25.8672L25.885 30.0731ZM21.4433 28.8484C21.5835 28.294 21.7746 27.7592 22.0156 27.2471L22.1977 26.8599H23.6772H25.1567L25.1367 26.9478C24.9288 27.8605 24.7262 29.3142 24.725 29.9015C24.7248 30.0228 24.7137 30.1879 24.7004 30.2685L24.6762 30.415H22.9427H21.2091V30.2584C21.2091 30.0041 21.3203 29.3348 21.4433 28.8484ZM35.2749 32.1004C35.2752 31.9792 35.2863 31.8141 35.2996 31.7335L35.3238 31.587H37.0573H38.7909V31.7435C38.7909 31.9978 38.6797 32.6671 38.5567 33.1535C38.4165 33.708 38.2253 34.2427 37.9844 34.7549L37.8023 35.1421H36.3228H34.8432L34.8633 35.0542C35.0712 34.1415 35.2738 32.6878 35.2749 32.1004ZM30.5861 35.1421V33.3645V31.587H32.3594H34.1328L34.115 31.9288C34.0622 32.9454 33.882 34.1838 33.669 34.9956L33.6305 35.1421H32.1083H30.5861ZM26.331 34.9956C26.118 34.1838 25.9378 32.9454 25.885 31.9288L25.8672 31.587H27.6406H29.4139V33.3645V35.1421H27.8917H26.3694L26.331 34.9956ZM21.3515 32.759C21.2779 32.407 21.2091 31.9053 21.2091 31.7209V31.587H22.9427H24.6762L24.7004 31.7335C24.7137 31.8141 24.7248 31.9792 24.725 32.1004C24.7262 32.6878 24.9288 34.1415 25.1367 35.0542L25.1567 35.1421H23.6772H22.1977L22.0186 34.7612C21.7148 34.1153 21.5008 33.4729 21.3515 32.759ZM33.3106 38.8436C33.6391 38.3588 34.1239 37.3844 34.3601 36.7343L34.5126 36.3145L35.7774 36.3143C36.976 36.3141 37.0395 36.3177 36.9897 36.3824C36.2082 37.3982 35.1016 38.3116 33.9524 38.8893C33.6781 39.0273 33.0781 39.2832 33.0291 39.2832C33.0201 39.2832 33.1467 39.0854 33.3106 38.8436ZM30.5861 39.7182V38.0161V36.3141H31.9325H33.2789L33.1047 36.7297C32.6841 37.7335 32.2651 38.3908 31.6629 38.9914C31.2567 39.3965 30.9638 39.6039 30.674 39.6916L30.5861 39.7182ZM28.5253 39.1947C27.9002 38.6565 27.2939 37.7178 26.8227 36.5582L26.7235 36.3141H28.0687H29.4139V38.0161V39.7182L29.326 39.6916C29.1254 39.6308 28.7908 39.4232 28.5253 39.1947ZM25.9442 38.8312C24.8744 38.2674 23.8114 37.4013 23.1503 36.555L22.9621 36.3141H24.2262H25.4903L25.6407 36.734C25.8655 37.3619 26.3595 38.3543 26.6924 38.8469C26.8546 39.0868 26.9799 39.2832 26.9709 39.2832C26.9057 39.2832 26.2752 39.0057 25.9442 38.8312Z" fill="#FAFAFA"/>
<path fill-rule="evenodd" clip-rule="evenodd" d="M57.0001 14H2.99994V52.0001H57.0001V14ZM2.99994 12C1.89537 12 0.999939 12.8954 0.999939 14V52.0001C0.999939 53.1047 1.89537 54.0001 2.99994 54.0001H57.0001C58.1046 54.0001 59.0001 53.1047 59.0001 52.0001V14C59.0001 12.8954 58.1046 12 57.0001 12H2.99994Z" fill="#B9B9B9"/>
<rect x="0.999939" y="49" width="58.0001" height="5.00001" rx="2" fill="#D6D7DB"/>
</svg>
