<svg width="67" height="58" viewBox="0 0 67 58" fill="none" xmlns="http://www.w3.org/2000/svg">
<g filter="url(#filter0_d_2_8467)">
<rect x="5.5" y="1" width="56" height="40" rx="1" fill="#FAFAFA" stroke="black" stroke-width="2"/>
<rect x="4.5" y="37" width="58" height="5" rx="2" fill="#D6D7DB"/>
<rect x="20.5" y="48" width="27" height="2" rx="1" fill="#C4C4C4"/>
<rect x="27.5" y="42" width="13" height="5" fill="#C4C4C4"/>
<path fill-rule="evenodd" clip-rule="evenodd" d="M34.3986 9.04042C36.2517 9.20618 38.0051 9.8961 39.595 11.085C40.0723 11.442 41.0597 12.4292 41.4166 12.9065C42.443 14.2787 43.074 15.7084 43.3472 17.2805C43.8302 20.0603 43.1632 22.7602 41.4166 25.0953C41.0597 25.5726 40.0723 26.5599 39.595 26.9168C37.2597 28.6632 34.5594 29.3302 31.7794 28.8472C30.2071 28.5741 28.7774 27.9431 27.405 26.9168C26.9277 26.5599 25.9403 25.5726 25.5834 25.0953C23.8368 22.7602 23.1698 20.0603 23.6528 17.2805C23.926 15.7084 24.557 14.2787 25.5834 12.9065C25.9403 12.4292 26.9277 11.442 27.405 11.085C29.4966 9.52091 31.9034 8.81724 34.3986 9.04042ZM34.0861 11.9884V13.6878H35.4325H36.7789L36.6047 13.2722C36.1852 12.271 35.7657 11.6125 35.1629 11.0087C34.8187 10.664 34.672 10.5466 34.4422 10.4325C34.2835 10.3536 34.1385 10.289 34.1199 10.289C34.1013 10.289 34.0861 11.0538 34.0861 11.9884ZM32.5037 10.4582C32.1883 10.6215 31.4778 11.3314 31.1822 11.7787C30.8996 12.2065 30.6177 12.7415 30.3953 13.2722L30.2211 13.6878H31.5675H32.9139V11.9858V10.2838L32.826 10.3104C32.7777 10.325 32.6326 10.3915 32.5037 10.4582ZM36.8106 11.1583C37.1391 11.6431 37.6239 12.6175 37.8601 13.2676L38.0126 13.6874L39.2774 13.6876C40.476 13.6878 40.5395 13.6843 40.4897 13.6195C39.5709 12.4252 38.2598 11.4197 36.8796 10.851C36.7077 10.7801 36.5548 10.7214 36.5399 10.7205C36.5249 10.7196 36.6467 10.9166 36.8106 11.1583ZM30.1602 10.8357C28.7997 11.3761 27.4362 12.4161 26.5103 13.6195C26.4605 13.6843 26.524 13.6878 27.7226 13.6876L28.9874 13.6874L29.1399 13.2676C29.3761 12.6175 29.8609 11.6431 30.1894 11.1583C30.3533 10.9166 30.4799 10.7188 30.4709 10.7188C30.4619 10.7188 30.3221 10.7714 30.1602 10.8357ZM38.3632 14.9478C38.5712 15.8604 38.7738 17.3141 38.7749 17.9015C38.7752 18.0227 38.7863 18.1879 38.7996 18.2684L38.8238 18.4149H40.5573H42.2908V18.2584C42.2908 18.1723 42.2638 17.9218 42.2308 17.7017C42.1063 16.8712 41.8473 16.0186 41.4872 15.2529L41.3023 14.8598H39.8228H38.3432L38.3632 14.9478ZM34.0861 16.6374V18.4149H35.8594H37.6328L37.615 18.0731C37.5621 17.0565 37.382 15.8181 37.169 15.0064L37.1305 14.8598H35.6083H34.0861V16.6374ZM29.831 15.0064C29.618 15.8181 29.4379 17.0565 29.385 18.0731L29.3672 18.4149H31.1406H32.9139V16.6374V14.8598H31.3917H29.8695L29.831 15.0064ZM25.5156 15.247C25.2747 15.7592 25.0835 16.294 24.9433 16.8484C24.8203 17.3348 24.7092 18.0041 24.7092 18.2584V18.4149H26.4427H28.1762L28.2004 18.2684C28.2137 18.1879 28.2248 18.0227 28.2251 17.9015C28.2262 17.3141 28.4288 15.8604 28.6368 14.9478L28.6568 14.8598H27.1772H25.6977L25.5156 15.247ZM38.7996 19.7334C38.7863 19.814 38.7752 19.9791 38.7749 20.1004C38.7738 20.6877 38.5712 22.1414 38.3632 23.0541L38.3432 23.142H39.8228H41.3023L41.4844 22.7548C41.7253 22.2426 41.9165 21.7079 42.0566 21.1535C42.1797 20.6671 42.2908 19.9978 42.2908 19.7435V19.5869H40.5573H38.8238L38.7996 19.7334ZM34.0861 21.3645V23.142H35.6083H37.1305L37.169 22.9955C37.382 22.1837 37.5621 20.9454 37.615 19.9288L37.6328 19.5869H35.8594H34.0861V21.3645ZM29.385 19.9288C29.4379 20.9454 29.618 22.1837 29.831 22.9955L29.8695 23.142H31.3917H32.9139V21.3645V19.5869H31.1406H29.3672L29.385 19.9288ZM24.7092 19.7208C24.7092 19.9053 24.778 20.4069 24.8516 20.7589C25.0008 21.4728 25.2148 22.1152 25.5186 22.7611L25.6977 23.142H27.1772H28.6568L28.6368 23.0541C28.4288 22.1414 28.2262 20.6877 28.2251 20.1004C28.2248 19.9791 28.2137 19.814 28.2004 19.7334L28.1762 19.5869H26.4427H24.7092V19.7208ZM37.8601 24.7342C37.6239 25.3844 37.1391 26.3588 36.8106 26.8436C36.6467 27.0853 36.5201 27.2831 36.5291 27.2831C36.5781 27.2831 37.178 27.0272 37.4524 26.8892C38.6016 26.3115 39.7082 25.3981 40.4897 24.3824C40.5395 24.3176 40.476 24.314 39.2774 24.3142L38.0126 24.3145L37.8601 24.7342ZM34.0861 26.016V27.7181L34.174 27.6915C34.4638 27.6038 34.7567 27.3964 35.1629 26.9913C35.7651 26.3907 36.1841 25.7335 36.6047 24.7297L36.7789 24.314H35.4325H34.0861V26.016ZM30.3228 24.5582C30.7939 25.7178 31.4002 26.6565 32.0253 27.1946C32.2908 27.4232 32.6254 27.6308 32.826 27.6915L32.9139 27.7181V26.016V24.314H31.5688H30.2236L30.3228 24.5582ZM26.6503 24.5549C27.3114 25.4013 28.3744 26.2673 29.4443 26.8311C29.7753 27.0056 30.4057 27.2831 30.4709 27.2831C30.4799 27.2831 30.3546 27.0868 30.1924 26.8469C29.8595 26.3543 29.3655 25.3618 29.1407 24.734L28.9903 24.314H27.7262H26.4621L26.6503 24.5549Z" fill="#085BD8"/>
</g>
<defs>
<filter id="filter0_d_2_8467" x="0.5" y="0" width="66" height="58" filterUnits="userSpaceOnUse" color-interpolation-filters="sRGB">
<feFlood flood-opacity="0" result="BackgroundImageFix"/>
<feColorMatrix in="SourceAlpha" type="matrix" values="0 0 0 0 0 0 0 0 0 0 0 0 0 0 0 0 0 0 127 0" result="hardAlpha"/>
<feOffset dy="4"/>
<feGaussianBlur stdDeviation="2"/>
<feComposite in2="hardAlpha" operator="out"/>
<feColorMatrix type="matrix" values="0 0 0 0 0 0 0 0 0 0 0 0 0 0 0 0 0 0 0.25 0"/>
<feBlend mode="normal" in2="BackgroundImageFix" result="effect1_dropShadow_2_8467"/>
<feBlend mode="normal" in="SourceGraphic" in2="effect1_dropShadow_2_8467" result="shape"/>
</filter>
</defs>
</svg>
