<svg width="60" height="68" viewBox="0 0 60 68" fill="none" xmlns="http://www.w3.org/2000/svg">
<path fill-rule="evenodd" clip-rule="evenodd" d="M49.4751 18.968H0.609375V29.4929H49.4751V18.968ZM20.1557 22.7269H4.36828V24.9822H20.1557V22.7269ZM25.4181 22.7269H28.4252V24.9822H25.4181V22.7269ZM33.6877 22.7269H30.6806V24.9823H33.6877V22.7269ZM35.943 22.7269H38.9502V24.9823H35.943V22.7269ZM44.2126 22.7269H41.2055V24.9823H44.2126V22.7269Z" fill="white"/>
<path fill-rule="evenodd" clip-rule="evenodd" d="M49.4751 32.5H0.609375V43.0249H49.4751V32.5ZM20.1557 36.2589H4.36828V38.5142H20.1557V36.2589ZM25.4181 36.259H28.4252V38.5144H25.4181V36.259ZM33.6877 36.259H30.6806V38.5144H33.6877V36.259ZM35.943 36.259H38.9502V38.5144H35.943V36.259ZM44.2126 36.259H41.2055V38.5144H44.2126V36.259Z" fill="white"/>
<path fill-rule="evenodd" clip-rule="evenodd" d="M49.4751 46.0322H0.609375V56.5571H49.4751V46.0322ZM20.1557 49.7912H4.36828V52.0465H20.1557V49.7912ZM25.4181 49.7912H28.4252V52.0465H25.4181V49.7912ZM33.6877 49.7911H30.6806V52.0465H33.6877V49.7911ZM35.943 49.7911H38.9502V52.0465H35.943V49.7911ZM44.2126 49.7911H41.2055V52.0465H44.2126V49.7911Z" fill="white"/>
<mask id="path-4-inside-1_289_954" fill="white">
<path fill-rule="evenodd" clip-rule="evenodd" d="M49.4751 38.0498C55.2878 38.0498 60 33.3377 60 27.5249C60 21.7122 55.2878 17 49.4751 17C43.6623 17 38.9502 21.7122 38.9502 27.5249C38.9502 33.3377 43.6623 38.0498 49.4751 38.0498ZM47.9384 22.6128C47.9866 21.9091 48.6541 21.3656 49.3728 21.5452L49.5691 21.5941C49.749 21.6363 49.9144 21.7258 50.0481 21.8533C50.1819 21.9809 50.2792 22.1419 50.3299 22.3196C50.6213 23.4288 50.6373 24.5925 50.3765 25.7094C50.4872 25.6943 50.5982 25.6818 50.7095 25.6718C51.2455 25.6229 51.9642 25.6184 52.601 25.8304C52.9904 25.9597 53.3483 26.3416 53.5031 26.7867C53.5804 27.0021 53.6048 27.233 53.5741 27.4599C53.5435 27.6868 53.4588 27.903 53.3272 28.0902C53.3699 28.1776 53.4046 28.2687 53.4309 28.3624C53.4888 28.5661 53.5159 28.7894 53.5159 29.0059C53.5159 29.2232 53.4888 29.4472 53.4309 29.6502C53.4016 29.7509 53.3633 29.8554 53.3114 29.9532C53.4377 30.2441 53.3911 30.5689 53.3084 30.817C53.2272 31.0598 53.0926 31.2966 52.9415 31.4943C52.9821 31.6086 52.9994 31.7289 52.9994 31.8431C52.996 32.0843 52.9302 32.3205 52.8085 32.5288C52.5566 32.97 52.0589 33.3286 51.3545 33.3286H48.7233C48.2685 33.3286 47.9196 33.2678 47.6212 33.1655C47.3265 33.0633 47.0964 32.9257 46.892 32.8017L46.8559 32.7791C46.477 32.5475 46.1056 32.3213 45.3012 32.2356C44.7253 32.1747 44.2126 31.7093 44.2126 31.0741V28.0662C44.2126 27.4272 44.7276 26.9896 45.2328 26.8521C45.871 26.6777 46.4161 26.2604 46.8348 25.7921C47.2566 25.3214 47.5227 24.8305 47.6167 24.5599C47.7655 24.1284 47.8843 23.4029 47.9384 22.6128ZM48.7233 32.5776H51.3545V32.5769C51.7778 32.5769 52.0319 32.3724 52.1559 32.1559C52.2123 32.061 52.2436 31.9534 52.2469 31.8431C52.2469 31.7529 52.2206 31.7191 52.2161 31.7153L51.9507 31.4492L52.2161 31.1838C52.3847 31.0118 52.5142 30.8054 52.5957 30.5786C52.6739 30.3448 52.6273 30.2471 52.592 30.2118L52.3266 29.9456L52.592 29.6803C52.6243 29.6479 52.6701 29.5743 52.7077 29.4434C52.7438 29.3172 52.7641 29.1653 52.7641 29.0059C52.7641 28.8473 52.7438 28.6947 52.7077 28.5691C52.6709 28.4383 52.6243 28.3646 52.592 28.3323L52.3266 28.0662L52.592 27.8008C52.8573 27.5362 52.8724 27.264 52.7919 27.0325C52.7017 26.7694 52.495 26.5874 52.3634 26.5438C51.8725 26.3799 51.2756 26.3754 50.7772 26.4205C50.5155 26.4446 50.2554 26.484 49.9983 26.5386L49.9547 26.5491L49.9442 26.5514L49.9419 26.5521C49.8766 26.5684 49.808 26.5668 49.7434 26.5475C49.6789 26.5282 49.6207 26.4919 49.575 26.4425C49.5292 26.393 49.4976 26.3321 49.4835 26.2662C49.4694 26.2003 49.4732 26.1318 49.4946 26.068C49.8728 24.9192 49.9107 23.6856 49.6036 22.5158C49.5811 22.4316 49.5074 22.3542 49.3871 22.3241L49.1902 22.2745C48.9594 22.2173 48.7075 22.3918 48.6887 22.6639C48.6323 23.4773 48.509 24.2802 48.3264 24.8065C48.1955 25.1846 47.873 25.7597 47.3957 26.2935C46.9168 26.8288 46.2537 27.352 45.4305 27.5775C45.1343 27.658 44.9644 27.8752 44.9644 28.0662V31.0748C44.9644 31.2703 45.1305 31.4612 45.3809 31.4883C46.3522 31.5913 46.8356 31.886 47.2528 32.1408L47.2829 32.1589C47.4859 32.2829 47.655 32.3814 47.8663 32.4543C48.0745 32.5257 48.3399 32.5776 48.7233 32.5776Z"/>
</mask>
<path fill-rule="evenodd" clip-rule="evenodd" d="M49.4751 38.0498C55.2878 38.0498 60 33.3377 60 27.5249C60 21.7122 55.2878 17 49.4751 17C43.6623 17 38.9502 21.7122 38.9502 27.5249C38.9502 33.3377 43.6623 38.0498 49.4751 38.0498ZM47.9384 22.6128C47.9866 21.9091 48.6541 21.3656 49.3728 21.5452L49.5691 21.5941C49.749 21.6363 49.9144 21.7258 50.0481 21.8533C50.1819 21.9809 50.2792 22.1419 50.3299 22.3196C50.6213 23.4288 50.6373 24.5925 50.3765 25.7094C50.4872 25.6943 50.5982 25.6818 50.7095 25.6718C51.2455 25.6229 51.9642 25.6184 52.601 25.8304C52.9904 25.9597 53.3483 26.3416 53.5031 26.7867C53.5804 27.0021 53.6048 27.233 53.5741 27.4599C53.5435 27.6868 53.4588 27.903 53.3272 28.0902C53.3699 28.1776 53.4046 28.2687 53.4309 28.3624C53.4888 28.5661 53.5159 28.7894 53.5159 29.0059C53.5159 29.2232 53.4888 29.4472 53.4309 29.6502C53.4016 29.7509 53.3633 29.8554 53.3114 29.9532C53.4377 30.2441 53.3911 30.5689 53.3084 30.817C53.2272 31.0598 53.0926 31.2966 52.9415 31.4943C52.9821 31.6086 52.9994 31.7289 52.9994 31.8431C52.996 32.0843 52.9302 32.3205 52.8085 32.5288C52.5566 32.97 52.0589 33.3286 51.3545 33.3286H48.7233C48.2685 33.3286 47.9196 33.2678 47.6212 33.1655C47.3265 33.0633 47.0964 32.9257 46.892 32.8017L46.8559 32.7791C46.477 32.5475 46.1056 32.3213 45.3012 32.2356C44.7253 32.1747 44.2126 31.7093 44.2126 31.0741V28.0662C44.2126 27.4272 44.7276 26.9896 45.2328 26.8521C45.871 26.6777 46.4161 26.2604 46.8348 25.7921C47.2566 25.3214 47.5227 24.8305 47.6167 24.5599C47.7655 24.1284 47.8843 23.4029 47.9384 22.6128ZM48.7233 32.5776H51.3545V32.5769C51.7778 32.5769 52.0319 32.3724 52.1559 32.1559C52.2123 32.061 52.2436 31.9534 52.2469 31.8431C52.2469 31.7529 52.2206 31.7191 52.2161 31.7153L51.9507 31.4492L52.2161 31.1838C52.3847 31.0118 52.5142 30.8054 52.5957 30.5786C52.6739 30.3448 52.6273 30.2471 52.592 30.2118L52.3266 29.9456L52.592 29.6803C52.6243 29.6479 52.6701 29.5743 52.7077 29.4434C52.7438 29.3172 52.7641 29.1653 52.7641 29.0059C52.7641 28.8473 52.7438 28.6947 52.7077 28.5691C52.6709 28.4383 52.6243 28.3646 52.592 28.3323L52.3266 28.0662L52.592 27.8008C52.8573 27.5362 52.8724 27.264 52.7919 27.0325C52.7017 26.7694 52.495 26.5874 52.3634 26.5438C51.8725 26.3799 51.2756 26.3754 50.7772 26.4205C50.5155 26.4446 50.2554 26.484 49.9983 26.5386L49.9547 26.5491L49.9442 26.5514L49.9419 26.5521C49.8766 26.5684 49.808 26.5668 49.7434 26.5475C49.6789 26.5282 49.6207 26.4919 49.575 26.4425C49.5292 26.393 49.4976 26.3321 49.4835 26.2662C49.4694 26.2003 49.4732 26.1318 49.4946 26.068C49.8728 24.9192 49.9107 23.6856 49.6036 22.5158C49.5811 22.4316 49.5074 22.3542 49.3871 22.3241L49.1902 22.2745C48.9594 22.2173 48.7075 22.3918 48.6887 22.6639C48.6323 23.4773 48.509 24.2802 48.3264 24.8065C48.1955 25.1846 47.873 25.7597 47.3957 26.2935C46.9168 26.8288 46.2537 27.352 45.4305 27.5775C45.1343 27.658 44.9644 27.8752 44.9644 28.0662V31.0748C44.9644 31.2703 45.1305 31.4612 45.3809 31.4883C46.3522 31.5913 46.8356 31.886 47.2528 32.1408L47.2829 32.1589C47.4859 32.2829 47.655 32.3814 47.8663 32.4543C48.0745 32.5257 48.3399 32.5776 48.7233 32.5776Z" fill="#FCFCFC"/>
<path d="M49.3728 21.5452L49.1303 22.5154L49.1312 22.5156L49.3728 21.5452ZM47.9384 22.6128L48.9361 22.6811L48.9361 22.681L47.9384 22.6128ZM49.5691 21.5941L49.3274 22.5646L49.3407 22.5677L49.5691 21.5941ZM50.0481 21.8533L50.7382 21.1296L50.7382 21.1296L50.0481 21.8533ZM50.3299 22.3196L51.297 22.0655L51.2944 22.0554L51.2915 22.0453L50.3299 22.3196ZM50.3765 25.7094L49.4027 25.482L49.0725 26.8957L50.5111 26.7003L50.3765 25.7094ZM50.7095 25.6718L50.7991 26.6677L50.8003 26.6676L50.7095 25.6718ZM52.601 25.8304L52.2851 26.7792L52.2859 26.7794L52.601 25.8304ZM53.5031 26.7867L52.5586 27.1153L52.5618 27.1243L53.5031 26.7867ZM53.5741 27.4599L54.5652 27.5936L54.5652 27.5936L53.5741 27.4599ZM53.3272 28.0902L52.5091 27.5152L52.1693 27.9986L52.4288 28.5294L53.3272 28.0902ZM53.4309 28.3624L52.4682 28.6327L52.469 28.6357L53.4309 28.3624ZM53.4309 29.6502L54.3911 29.9296L54.3926 29.9244L53.4309 29.6502ZM53.3114 29.9532L52.4281 29.4843L52.2024 29.9097L52.3941 30.3514L53.3114 29.9532ZM53.3084 30.817L54.2568 31.1341L54.2571 31.1332L53.3084 30.817ZM52.9415 31.4943L52.147 30.8871L51.8177 31.318L51.9992 31.8291L52.9415 31.4943ZM52.9994 31.8431L53.9993 31.8574L53.9994 31.8503V31.8431H52.9994ZM52.8085 32.5288L51.9451 32.0241L51.94 32.0331L52.8085 32.5288ZM47.6212 33.1655L47.2934 34.1103L47.2971 34.1115L47.6212 33.1655ZM46.892 32.8017L46.3619 33.6497L46.3733 33.6566L46.892 32.8017ZM46.8559 32.7791L47.3859 31.931L47.3773 31.9258L46.8559 32.7791ZM45.3012 32.2356L45.4071 31.2412L45.4064 31.2411L45.3012 32.2356ZM45.2328 26.8521L45.4955 27.8169L45.4964 27.8167L45.2328 26.8521ZM46.8348 25.7921L46.0901 25.1247L46.0893 25.1255L46.8348 25.7921ZM47.6167 24.5599L48.5614 24.8879L48.562 24.886L47.6167 24.5599ZM51.3545 32.5776V33.5776H52.3545V32.5776H51.3545ZM51.3545 32.5769V31.5769H50.3545V32.5769H51.3545ZM52.1559 32.1559L51.2961 31.6453L51.2921 31.652L51.2882 31.6588L52.1559 32.1559ZM52.2469 31.8431L53.2464 31.8734L53.2469 31.8582V31.8431H52.2469ZM52.2161 31.7153L51.508 32.4214L51.5405 32.454L51.5759 32.4835L52.2161 31.7153ZM51.9507 31.4492L51.2436 30.7421L50.5375 31.4482L51.2426 32.1553L51.9507 31.4492ZM52.2161 31.1838L52.9232 31.891L52.9301 31.8839L52.2161 31.1838ZM52.5957 30.5786L53.5368 30.9168L53.5406 30.9063L53.5441 30.8958L52.5957 30.5786ZM52.592 30.2118L51.8839 30.9179L51.8849 30.9189L52.592 30.2118ZM52.3266 29.9456L51.6195 29.2385L50.9134 29.9446L51.6185 30.6517L52.3266 29.9456ZM52.592 29.6803L51.8849 28.9732L51.8849 28.9732L52.592 29.6803ZM52.7077 29.4434L53.6688 29.7196L53.6693 29.7182L52.7077 29.4434ZM52.7077 28.5691L51.7452 28.8402L51.7466 28.8454L52.7077 28.5691ZM52.592 28.3323L51.8839 29.0384L51.8849 29.0394L52.592 28.3323ZM52.3266 28.0662L51.6195 27.3591L50.9134 28.0652L51.6185 28.7723L52.3266 28.0662ZM52.592 27.8008L51.8859 27.0927L51.8849 27.0937L52.592 27.8008ZM52.7919 27.0325L51.846 27.3568L51.8473 27.3607L52.7919 27.0325ZM52.3634 26.5438L52.0468 27.4924L52.0488 27.4931L52.3634 26.5438ZM50.7772 26.4205L50.687 25.4246L50.6857 25.4247L50.7772 26.4205ZM49.9983 26.5386L49.7906 25.5604L49.7771 25.5633L49.7637 25.5665L49.9983 26.5386ZM49.9547 26.5491L50.1642 27.5269L50.1768 27.5242L50.1894 27.5212L49.9547 26.5491ZM49.9442 26.5514L49.7347 25.5735L49.6805 25.5852L49.628 25.6027L49.9442 26.5514ZM49.9419 26.5521L50.1837 27.5224L50.2214 27.513L50.2582 27.5008L49.9419 26.5521ZM49.7434 26.5475L49.4571 27.5057L49.4571 27.5057L49.7434 26.5475ZM49.4835 26.2662L50.4613 26.0565L50.4613 26.0565L49.4835 26.2662ZM49.4946 26.068L50.4428 26.3856L50.4445 26.3806L49.4946 26.068ZM49.6036 22.5158L50.5709 22.2619L50.5696 22.2571L49.6036 22.5158ZM49.3871 22.3241L49.1428 23.2938L49.1446 23.2942L49.3871 22.3241ZM49.1902 22.2745L49.4344 21.3048L49.4305 21.3038L49.1902 22.2745ZM48.6887 22.6639L49.6863 22.733L49.6863 22.7328L48.6887 22.6639ZM48.3264 24.8065L47.3817 24.4785L47.3813 24.4796L48.3264 24.8065ZM47.3957 26.2935L48.1409 26.9603L48.141 26.9601L47.3957 26.2935ZM45.4305 27.5775L45.6926 28.5426L45.6947 28.542L45.4305 27.5775ZM45.3809 31.4883L45.2734 32.4825L45.2754 32.4827L45.3809 31.4883ZM47.2528 32.1408L46.7315 32.9943L46.7383 32.9983L47.2528 32.1408ZM47.2829 32.1589L47.8044 31.3056L47.7974 31.3014L47.2829 32.1589ZM47.8663 32.4543L47.54 33.3996L47.5419 33.4002L47.8663 32.4543ZM59 27.5249C59 32.7854 54.7356 37.0498 49.4751 37.0498V39.0498C55.8401 39.0498 61 33.89 61 27.5249H59ZM49.4751 18C54.7356 18 59 22.2645 59 27.5249H61C61 21.1599 55.8401 16 49.4751 16V18ZM39.9502 27.5249C39.9502 22.2645 44.2146 18 49.4751 18V16C43.11 16 37.9502 21.1599 37.9502 27.5249H39.9502ZM49.4751 37.0498C44.2146 37.0498 39.9502 32.7854 39.9502 27.5249H37.9502C37.9502 33.89 43.11 39.0498 49.4751 39.0498V37.0498ZM49.6154 20.5751C48.2425 20.2319 47.0278 21.2724 46.9408 22.5446L48.9361 22.681C48.9397 22.6281 48.9676 22.5758 49.0125 22.5414C49.0334 22.5255 49.0534 22.517 49.0701 22.5133C49.085 22.51 49.1038 22.5088 49.1303 22.5154L49.6154 20.5751ZM49.8107 20.6238L49.6145 20.5749L49.1312 22.5156L49.3274 22.5645L49.8107 20.6238ZM50.7382 21.1296C50.4756 20.8792 50.1507 20.7034 49.7974 20.6205L49.3407 22.5677C49.3472 22.5692 49.3532 22.5725 49.358 22.5771L50.7382 21.1296ZM51.2915 22.0453C51.1919 21.6962 51.0009 21.3801 50.7382 21.1296L49.358 22.5771C49.3629 22.5817 49.3664 22.5875 49.3682 22.5939L51.2915 22.0453ZM51.3503 25.9367C51.6481 24.6613 51.6298 23.3323 51.297 22.0655L49.3627 22.5737C49.6127 23.5254 49.6264 24.5237 49.4027 25.482L51.3503 25.9367ZM50.6199 24.6758C50.4936 24.6872 50.3675 24.7014 50.2418 24.7185L50.5111 26.7003C50.6069 26.6872 50.7029 26.6764 50.7991 26.6677L50.6199 24.6758ZM52.9169 24.8816C52.0864 24.6051 51.2055 24.6224 50.6187 24.6759L50.8003 26.6676C51.2855 26.6234 51.8421 26.6317 52.2851 26.7792L52.9169 24.8816ZM54.4476 26.458C54.2095 25.7739 53.6508 25.1253 52.9161 24.8813L52.2859 26.7794C52.33 26.7941 52.487 26.9093 52.5587 27.1153L54.4476 26.458ZM54.5652 27.5936C54.6172 27.208 54.5758 26.8154 54.4444 26.4491L52.5618 27.1243C52.585 27.1889 52.5923 27.2581 52.5831 27.3262L54.5652 27.5936ZM54.1453 28.6653C54.3691 28.3469 54.5131 27.9793 54.5652 27.5936L52.5831 27.3262C52.5739 27.3942 52.5485 27.459 52.5091 27.5152L54.1453 28.6653ZM54.3937 28.0921C54.3511 27.9403 54.2948 27.7927 54.2256 27.6511L52.4288 28.5294C52.445 28.5626 52.4582 28.5972 52.4682 28.6327L54.3937 28.0921ZM54.5159 29.0059C54.5159 28.7108 54.4795 28.3941 54.3929 28.0891L52.469 28.6357C52.4981 28.7382 52.5159 28.868 52.5159 29.0059H54.5159ZM54.3926 29.9244C54.4797 29.619 54.5159 29.3011 54.5159 29.0059H52.5159C52.5159 29.1453 52.498 29.2754 52.4693 29.3759L54.3926 29.9244ZM54.1947 30.422C54.2878 30.2465 54.3491 30.0738 54.3911 29.9296L52.4708 29.3707C52.4541 29.428 52.4387 29.4643 52.4281 29.4843L54.1947 30.422ZM54.2571 31.1332C54.3748 30.78 54.4964 30.1715 54.2287 29.5549L52.3941 30.3514C52.3845 30.3292 52.3905 30.3266 52.3892 30.3594C52.3877 30.3939 52.3789 30.4433 52.3597 30.5007L54.2571 31.1332ZM53.7361 32.1015C53.942 31.832 54.1349 31.4987 54.2568 31.1341L52.36 30.4998C52.3196 30.6209 52.2432 30.7612 52.147 30.8871L53.7361 32.1015ZM53.9994 31.8431C53.9994 31.6313 53.9678 31.3958 53.8838 31.1595L51.9992 31.8291C51.9976 31.8244 51.9978 31.8235 51.9983 31.827C51.9989 31.8304 51.9994 31.836 51.9994 31.8431H53.9994ZM53.6718 33.0334C53.8806 32.6762 53.9934 32.2711 53.9993 31.8574L51.9995 31.8288C51.9985 31.8975 51.9798 31.9648 51.9451 32.0241L53.6718 33.0334ZM51.3545 34.3286C52.4327 34.3286 53.2546 33.7646 53.677 33.0244L51.94 32.0331C51.8587 32.1755 51.6852 32.3286 51.3545 32.3286V34.3286ZM48.7233 34.3286H51.3545V32.3286H48.7233V34.3286ZM47.2971 34.1115C47.7145 34.2545 48.1748 34.3286 48.7233 34.3286V32.3286C48.3622 32.3286 48.1248 32.281 47.9453 32.2195L47.2971 34.1115ZM46.3733 33.6566C46.5803 33.7822 46.8894 33.9701 47.2934 34.1103L47.949 32.2208C47.7636 32.1564 47.6126 32.0692 47.4106 31.9467L46.3733 33.6566ZM46.3259 33.6271L46.362 33.6497L47.4219 31.9536L47.3859 31.9311L46.3259 33.6271ZM45.1953 33.2299C45.5173 33.2642 45.7208 33.3228 45.867 33.3812C46.02 33.4424 46.1422 33.5149 46.3344 33.6324L47.3773 31.9258C46.941 31.6592 46.4222 31.3493 45.4071 31.2412L45.1953 33.2299ZM43.2126 31.0741C43.2126 32.2991 44.1932 33.124 45.196 33.23L45.4064 31.2411C45.3477 31.2349 45.2906 31.2063 45.2536 31.1687C45.2231 31.1377 45.2126 31.1093 45.2126 31.0741H43.2126ZM43.2126 28.0662V31.0741H45.2126V28.0662H43.2126ZM44.97 25.8872C44.1952 26.0982 43.2126 26.8248 43.2126 28.0662H45.2126C45.2126 28.0341 45.2205 28.0005 45.2657 27.9519C45.3203 27.8932 45.4077 27.8408 45.4955 27.8169L44.97 25.8872ZM46.0893 25.1255C45.7504 25.5047 45.3616 25.7802 44.9692 25.8874L45.4964 27.8167C46.3805 27.5751 47.0818 27.0162 47.5803 26.4586L46.0893 25.1255ZM46.672 24.2319C46.6275 24.3599 46.4365 24.7381 46.0901 25.1247L47.5795 26.4594C48.0767 25.9047 48.4179 25.3011 48.5614 24.8879L46.672 24.2319ZM46.9408 22.5444C46.8888 23.3031 46.7775 23.9259 46.6713 24.2338L48.562 24.886C48.7535 24.3308 48.8798 23.5027 48.9361 22.6811L46.9408 22.5444ZM51.3545 31.5776H48.7233V33.5776H51.3545V31.5776ZM50.3545 32.5769V32.5776H52.3545V32.5769H50.3545ZM51.2882 31.6588C51.3048 31.6299 51.3287 31.6044 51.3576 31.5873C51.3716 31.579 51.3819 31.5756 51.3852 31.5748C51.3883 31.574 51.3793 31.5769 51.3545 31.5769V33.5769C52.151 33.5769 52.7289 33.1675 53.0236 32.653L51.2882 31.6588ZM51.2474 31.8129C51.2491 31.7538 51.2659 31.6961 51.2961 31.6453L53.0157 32.6665C53.1586 32.4259 53.238 32.153 53.2464 31.8734L51.2474 31.8129ZM51.5759 32.4835C51.5 32.4203 51.4516 32.3605 51.4332 32.3371C51.4067 32.3034 51.3852 32.2715 51.3679 32.243C51.333 32.1855 51.308 32.1301 51.2903 32.0801C51.2545 31.9787 51.2469 31.895 51.2469 31.8431H53.2469C53.2469 31.701 53.2261 31.5553 53.176 31.4135C53.1512 31.3433 53.1188 31.2731 53.0777 31.2054C53.0517 31.1625 52.9814 31.0514 52.8563 30.9471L51.5759 32.4835ZM51.2426 32.1553L51.508 32.4214L52.9242 31.0092L52.6588 30.7431L51.2426 32.1553ZM51.509 30.4767L51.2436 30.7421L52.6578 32.1563L52.9232 31.8909L51.509 30.4767ZM51.6546 30.2405C51.6219 30.3316 51.5698 30.4146 51.5021 30.4837L52.9301 31.8839C53.1996 31.609 53.4066 31.2791 53.5368 30.9168L51.6546 30.2405ZM51.8849 30.9189C51.7233 30.7573 51.6576 30.5704 51.6422 30.4286C51.6284 30.3005 51.6567 30.2335 51.6473 30.2615L53.5441 30.8958C53.6752 30.5036 53.7253 29.9309 53.2991 29.5047L51.8849 30.9189ZM51.6185 30.6517L51.8839 30.9179L53.3001 29.5057L53.0347 29.2395L51.6185 30.6517ZM51.8849 28.9732L51.6195 29.2385L53.0337 30.6527L53.2991 30.3874L51.8849 28.9732ZM51.7466 29.1673C51.7435 29.1781 51.746 29.1657 51.7609 29.137C51.7684 29.1225 51.7806 29.1011 51.7987 29.0752C51.8161 29.0503 51.8441 29.014 51.8849 28.9732L53.2991 30.3874C53.4972 30.1892 53.6065 29.9366 53.6688 29.7196L51.7466 29.1673ZM51.7641 29.0059C51.7641 29.086 51.7533 29.144 51.7462 29.1687L53.6693 29.7182C53.7344 29.4903 53.7641 29.2446 53.7641 29.0059H51.7641ZM51.7466 28.8454C51.7531 28.8679 51.7641 28.926 51.7641 29.0059H53.7641C53.7641 28.7686 53.7345 28.5214 53.6688 28.2929L51.7466 28.8454ZM51.8849 29.0394C51.8109 28.9655 51.7749 28.9018 51.762 28.8772C51.7463 28.8471 51.743 28.8325 51.7452 28.8402L53.6703 28.2981C53.6066 28.072 53.495 27.8211 53.2991 27.6252L51.8849 29.0394ZM51.6185 28.7723L51.8839 29.0384L53.3001 27.6262L53.0347 27.3601L51.6185 28.7723ZM51.8849 27.0937L51.6195 27.3591L53.0337 28.7733L53.2991 28.5079L51.8849 27.0937ZM51.8473 27.3607C51.8411 27.3429 51.8255 27.2833 51.8423 27.2019C51.8602 27.1154 51.8991 27.0795 51.8859 27.0927L53.2981 28.5089C53.5502 28.2575 53.7293 27.9532 53.8009 27.6066C53.8715 27.2651 53.8232 26.9536 53.7366 26.7043L51.8473 27.3607ZM52.0488 27.4931C51.9675 27.4661 51.9191 27.4343 51.9026 27.4228C51.8819 27.4084 51.8713 27.3979 51.8672 27.3936C51.8608 27.3868 51.853 27.3772 51.846 27.3568L53.7379 26.7082C53.6407 26.4247 53.4844 26.1925 53.3192 26.0181C53.1682 25.8587 52.9495 25.6846 52.678 25.5946L52.0488 27.4931ZM50.8673 27.4165C51.317 27.3758 51.7508 27.3936 52.0468 27.4924L52.6801 25.5953C51.9942 25.3663 51.2342 25.3751 50.687 25.4246L50.8673 27.4165ZM50.206 27.5168C50.4247 27.4703 50.646 27.4368 50.8686 27.4164L50.6857 25.4247C50.385 25.4523 50.0861 25.4976 49.7906 25.5604L50.206 27.5168ZM50.1894 27.5212L50.233 27.5107L49.7637 25.5665L49.7201 25.577L50.1894 27.5212ZM50.1537 27.5292L50.1642 27.5269L49.7452 25.5713L49.7347 25.5735L50.1537 27.5292ZM50.2582 27.5008L50.2604 27.5L49.628 25.6027L49.6257 25.6034L50.2582 27.5008ZM49.4571 27.5057C49.6935 27.5763 49.9444 27.5821 50.1837 27.5224L49.7001 25.5818C49.8087 25.5547 49.9225 25.5574 50.0297 25.5894L49.4571 27.5057ZM48.8405 27.1211C49.0078 27.3022 49.2208 27.4351 49.4571 27.5057L50.0297 25.5894C50.1369 25.6214 50.2335 25.6817 50.3095 25.7638L48.8405 27.1211ZM48.5058 26.4759C48.5575 26.7171 48.6731 26.9399 48.8405 27.1211L50.3095 25.7638C50.3854 25.846 50.4378 25.9471 50.4613 26.0565L48.5058 26.4759ZM48.5464 25.7503C48.4681 25.9841 48.454 26.2348 48.5058 26.4759L50.4613 26.0565C50.4847 26.1659 50.4784 26.2795 50.4428 26.3856L48.5464 25.7503ZM48.6364 22.7697C48.8944 23.7529 48.8626 24.7897 48.5448 25.7553L50.4445 26.3806C50.883 25.0487 50.9269 23.6183 50.5709 22.2619L48.6364 22.7697ZM49.1446 23.2942C48.9574 23.2474 48.7205 23.0839 48.6377 22.7745L50.5696 22.2571C50.4416 21.7793 50.0574 21.4609 49.6297 21.354L49.1446 23.2942ZM48.9459 23.2442L49.1428 23.2938L49.6314 21.3544L49.4344 21.3048L48.9459 23.2442ZM49.6863 22.7328C49.6642 23.0536 49.3482 23.3438 48.9499 23.2452L49.4305 21.3038C48.5705 21.0909 47.7508 21.7299 47.6911 22.595L49.6863 22.7328ZM49.2711 25.1344C49.4972 24.483 49.6279 23.576 49.6863 22.733L47.6911 22.5947C47.6368 23.3786 47.5209 24.0774 47.3817 24.4785L49.2711 25.1344ZM48.141 26.9601C48.693 26.343 49.0909 25.6551 49.2714 25.1334L47.3813 24.4796C47.3002 24.7141 47.0531 25.1765 46.6503 25.6269L48.141 26.9601ZM45.6947 28.542C46.7629 28.2493 47.582 27.585 48.1409 26.9603L46.6504 25.6267C46.2515 26.0725 45.7445 26.4547 45.1663 26.6131L45.6947 28.542ZM45.9644 28.0662C45.9644 28.2648 45.881 28.3925 45.8293 28.4498C45.7716 28.5138 45.717 28.5359 45.6926 28.5426L45.1684 26.6125C44.5738 26.774 43.9644 27.296 43.9644 28.0662H45.9644ZM45.9644 31.0748V28.0662H43.9644V31.0748H45.9644ZM45.4884 30.4941C45.6813 30.5149 45.9644 30.6973 45.9644 31.0748H43.9644C43.9644 31.8433 44.5798 32.4075 45.2734 32.4825L45.4884 30.4941ZM47.7741 31.2874C47.3029 30.9996 46.671 30.6195 45.4863 30.4939L45.2754 32.4827C46.0334 32.5631 46.3682 32.7723 46.7316 32.9942L47.7741 31.2874ZM47.7974 31.3014L47.7673 31.2833L46.7383 32.9983L46.7684 33.0164L47.7974 31.3014ZM48.1926 31.5091C48.0923 31.4744 48.0028 31.4269 47.8043 31.3056L46.7614 33.0122C46.969 33.139 47.2178 33.2884 47.54 33.3996L48.1926 31.5091ZM48.7233 31.5776C48.4358 31.5776 48.2817 31.5396 48.1907 31.5084L47.5419 33.4002C47.8674 33.5119 48.244 33.5776 48.7233 33.5776V31.5776Z" fill="#F0F0F1" mask="url(#path-4-inside-1_289_954)"/>
</svg>
