<svg width="84" height="51" viewBox="0 0 84 51" fill="none" xmlns="http://www.w3.org/2000/svg">
<rect y="1" width="65" height="14" fill="#F0F0F1"/>
<rect x="5" y="6" width="21" height="3" fill="#085BD8"/>
<rect x="33" y="6" width="4" height="3" fill="black"/>
<rect x="40" y="6" width="4" height="3" fill="black"/>
<rect x="47" y="6" width="4" height="3" fill="black"/>
<rect x="54" y="6" width="4" height="3" fill="black"/>
<rect y="19" width="65" height="14" fill="#F0F0F1"/>
<rect x="5" y="24" width="21" height="3" fill="#085BD8"/>
<rect x="33" y="24" width="4" height="3" fill="black"/>
<rect x="40" y="24" width="4" height="3" fill="black"/>
<rect x="47" y="24" width="4" height="3" fill="black"/>
<rect x="54" y="24" width="4" height="3" fill="black"/>
<rect y="37" width="65" height="14" fill="#F0F0F1"/>
<rect x="5" y="42" width="21" height="3" fill="#085BD8"/>
<rect x="33" y="42" width="4" height="3" fill="black"/>
<rect x="40" y="42" width="4" height="3" fill="black"/>
<rect x="47" y="42" width="4" height="3" fill="black"/>
<rect x="54" y="42" width="4" height="3" fill="black"/>
<g filter="url(#filter0_d_2_8479)">
<circle cx="67" cy="17" r="13.5" fill="#FCFCFC" stroke="#F0F0F1"/>
<path d="M67.864 9.04608C66.908 8.80708 66.02 9.53008 65.956 10.4661C65.884 11.5171 65.726 12.4821 65.528 13.0561C65.403 13.4161 65.049 14.0691 64.488 14.6951C63.931 15.3181 63.206 15.8731 62.357 16.1051C61.685 16.2881 61 16.8701 61 17.7201V21.7211C61 22.5661 61.682 23.1851 62.448 23.2661C63.518 23.3801 64.012 23.6811 64.516 23.9891L64.564 24.0191C64.836 24.1841 65.142 24.3671 65.534 24.5031C65.931 24.6391 66.395 24.7201 67 24.7201H70.5C71.437 24.7201 72.099 24.2431 72.434 23.6561C72.5959 23.3791 72.6834 23.0649 72.688 22.7441C72.688 22.5921 72.665 22.4321 72.611 22.2801C72.812 22.0171 72.991 21.7021 73.099 21.3791C73.209 21.0491 73.271 20.6171 73.103 20.2301C73.172 20.1001 73.223 19.9611 73.262 19.8271C73.339 19.5571 73.375 19.2591 73.375 18.9701C73.375 18.6821 73.339 18.3851 73.262 18.1141C73.227 17.9895 73.1808 17.8683 73.124 17.7521C73.2991 17.503 73.4118 17.2154 73.4525 16.9136C73.4932 16.6119 73.4608 16.3047 73.358 16.0181C73.152 15.4261 72.676 14.9181 72.158 14.7461C71.311 14.4641 70.355 14.4701 69.642 14.5351C69.494 14.5484 69.3463 14.5651 69.199 14.5851C69.5459 13.0995 69.5246 11.5516 69.137 10.0761C69.0696 9.83967 68.9402 9.62557 68.7623 9.45591C68.5844 9.28626 68.3643 9.16721 68.125 9.11108L67.864 9.04608ZM70.5 23.7211H67C66.49 23.7211 66.137 23.6521 65.86 23.5571C65.579 23.4601 65.354 23.3291 65.084 23.1641L65.044 23.1401C64.489 22.8011 63.846 22.4091 62.554 22.2721C62.221 22.2361 62 21.9821 62 21.7221V17.7201C62 17.4661 62.226 17.1771 62.62 17.0701C63.715 16.7701 64.597 16.0741 65.234 15.3621C65.869 14.6521 66.298 13.8871 66.472 13.3841C66.715 12.6841 66.879 11.6161 66.954 10.5341C66.979 10.1721 67.314 9.94008 67.621 10.0161L67.883 10.0821C68.043 10.1221 68.141 10.2251 68.171 10.3371C68.5794 11.8931 68.529 13.534 68.026 15.0621C67.9975 15.1471 67.9924 15.2381 68.0112 15.3258C68.03 15.4134 68.072 15.4944 68.1329 15.5602C68.1937 15.6261 68.2711 15.6743 68.357 15.7C68.4428 15.7257 68.534 15.7278 68.621 15.7061L68.624 15.7051L68.638 15.7021L68.696 15.6881C69.038 15.6155 69.3839 15.563 69.732 15.5311C70.395 15.4711 71.189 15.4771 71.842 15.6951C72.017 15.7531 72.292 15.9951 72.412 16.3451C72.519 16.6531 72.499 17.0151 72.146 17.3671L71.793 17.7201L72.146 18.0741C72.189 18.1171 72.251 18.2151 72.3 18.3891C72.348 18.5561 72.375 18.7591 72.375 18.9701C72.375 19.1821 72.348 19.3841 72.3 19.5521C72.25 19.7261 72.189 19.8241 72.146 19.8671L71.793 20.2201L72.146 20.5741C72.193 20.6211 72.255 20.7511 72.151 21.0621C72.0426 21.3637 71.8704 21.6383 71.646 21.8671L71.293 22.2201L71.646 22.5741C71.652 22.5791 71.687 22.6241 71.687 22.7441C71.6826 22.8908 71.6409 23.0339 71.566 23.1601C71.401 23.4481 71.063 23.7201 70.5 23.7201V23.7211Z" fill="#085BD8"/>
</g>
<defs>
<filter id="filter0_d_2_8479" x="50" y="0" width="34" height="34" filterUnits="userSpaceOnUse" color-interpolation-filters="sRGB">
<feFlood flood-opacity="0" result="BackgroundImageFix"/>
<feColorMatrix in="SourceAlpha" type="matrix" values="0 0 0 0 0 0 0 0 0 0 0 0 0 0 0 0 0 0 127 0" result="hardAlpha"/>
<feOffset/>
<feGaussianBlur stdDeviation="1.5"/>
<feComposite in2="hardAlpha" operator="out"/>
<feColorMatrix type="matrix" values="0 0 0 0 0 0 0 0 0 0 0 0 0 0 0 0 0 0 0.09 0"/>
<feBlend mode="normal" in2="BackgroundImageFix" result="effect1_dropShadow_2_8479"/>
<feBlend mode="normal" in="SourceGraphic" in2="effect1_dropShadow_2_8479" result="shape"/>
</filter>
</defs>
</svg>
