<svg width="60" height="68" viewBox="0 0 60 68" fill="none" xmlns="http://www.w3.org/2000/svg">
<path fill-rule="evenodd" clip-rule="evenodd" d="M0 44.4688C0 42.8029 0.592632 41.2052 1.64752 40.0272C2.70242 38.8493 4.13316 38.1875 5.625 38.1875H9.375C10.8668 38.1875 12.2976 38.8493 13.3525 40.0272C14.4074 41.2052 15 42.8029 15 44.4688V48.6562C15 50.3221 14.4074 51.9198 13.3525 53.0978C12.2976 54.2757 10.8668 54.9375 9.375 54.9375H5.625C4.13316 54.9375 2.70242 54.2757 1.64752 53.0978C0.592632 51.9198 0 50.3221 0 48.6562L0 44.4688ZM5.625 42.375C5.12772 42.375 4.65081 42.5956 4.29917 42.9882C3.94754 43.3809 3.75 43.9135 3.75 44.4688V48.6562C3.75 49.2115 3.94754 49.7441 4.29917 50.1368C4.65081 50.5294 5.12772 50.75 5.625 50.75H9.375C9.87228 50.75 10.3492 50.5294 10.7008 50.1368C11.0525 49.7441 11.25 49.2115 11.25 48.6562V44.4688C11.25 43.9135 11.0525 43.3809 10.7008 42.9882C10.3492 42.5956 9.87228 42.375 9.375 42.375H5.625ZM45 44.4688C45 42.8029 45.5926 41.2052 46.6475 40.0272C47.7024 38.8493 49.1332 38.1875 50.625 38.1875H54.375C55.8668 38.1875 57.2976 38.8493 58.3525 40.0272C59.4074 41.2052 60 42.8029 60 44.4688V48.6562C60 50.3221 59.4074 51.9198 58.3525 53.0978C57.2976 54.2757 55.8668 54.9375 54.375 54.9375H50.625C49.1332 54.9375 47.7024 54.2757 46.6475 53.0978C45.5926 51.9198 45 50.3221 45 48.6562V44.4688ZM50.625 42.375C50.1277 42.375 49.6508 42.5956 49.2992 42.9882C48.9475 43.3809 48.75 43.9135 48.75 44.4688V48.6562C48.75 49.2115 48.9475 49.7441 49.2992 50.1368C49.6508 50.5294 50.1277 50.75 50.625 50.75H54.375C54.8723 50.75 55.3492 50.5294 55.7008 50.1368C56.0525 49.7441 56.25 49.2115 56.25 48.6562V44.4688C56.25 43.9135 56.0525 43.3809 55.7008 42.9882C55.3492 42.5956 54.8723 42.375 54.375 42.375H50.625ZM22.5 19.3438C22.5 17.6779 23.0926 16.0802 24.1475 14.9022C25.2024 13.7243 26.6332 13.0625 28.125 13.0625H31.875C33.3668 13.0625 34.7976 13.7243 35.8525 14.9022C36.9074 16.0802 37.5 17.6779 37.5 19.3438V23.5312C37.5 25.1971 36.9074 26.7948 35.8525 27.9728C34.7976 29.1507 33.3668 29.8125 31.875 29.8125H28.125C26.6332 29.8125 25.2024 29.1507 24.1475 27.9728C23.0926 26.7948 22.5 25.1971 22.5 23.5312V19.3438ZM28.125 17.25C27.6277 17.25 27.1508 17.4706 26.7992 17.8632C26.4475 18.2559 26.25 18.7885 26.25 19.3438V23.5312C26.25 24.0865 26.4475 24.6191 26.7992 25.0118C27.1508 25.4044 27.6277 25.625 28.125 25.625H31.875C32.3723 25.625 32.8492 25.4044 33.2008 25.0118C33.5525 24.6191 33.75 24.0865 33.75 23.5312V19.3438C33.75 18.7885 33.5525 18.2559 33.2008 17.8632C32.8492 17.4706 32.3723 17.25 31.875 17.25H28.125Z" fill="white"/>
<path d="M22.5 19.3438H6.9975C6.58475 18.5454 5.94764 17.9215 5.18497 17.5688C4.42231 17.216 3.57671 17.1541 2.77934 17.3927C1.98196 17.6313 1.27737 18.157 0.774833 18.8883C0.272299 19.6196 -9.15527e-05 20.5157 -9.15527e-05 21.4375C-9.15527e-05 22.3593 0.272299 23.2554 0.774833 23.9867C1.27737 24.718 1.98196 25.2437 2.77934 25.4823C3.57671 25.7209 4.42231 25.659 5.18497 25.3062C5.94764 24.9535 6.58475 24.3296 6.9975 23.5313H17.0025C12.1734 26.9358 8.56449 32.1213 6.8025 38.1875H9.375C9.83625 38.1875 10.29 38.2503 10.7175 38.3676C11.7562 35.3314 13.3568 32.5741 15.415 30.2759C17.4731 27.9776 19.9423 26.1902 22.6613 25.0304C22.5538 24.5397 22.4997 24.0364 22.5 23.5313V19.3438ZM37.3388 25.0304C37.4463 24.5397 37.5004 24.0364 37.5 23.5313V19.3438H53.0025C53.4153 18.5454 54.0524 17.9215 54.815 17.5688C55.5777 17.216 56.4233 17.1541 57.2207 17.3927C58.018 17.6313 58.7226 18.157 59.2252 18.8883C59.7277 19.6196 60.0001 20.5157 60.0001 21.4375C60.0001 22.3593 59.7277 23.2554 59.2252 23.9867C58.7226 24.718 58.018 25.2437 57.2207 25.4823C56.4233 25.7209 55.5777 25.659 54.815 25.3062C54.0524 24.9535 53.4153 24.3296 53.0025 23.5313H42.9975C47.8266 26.9358 51.4355 32.1213 53.1975 38.1875H50.625C50.1638 38.1875 49.7138 38.2503 49.2825 38.3676C48.2438 35.3314 46.6432 32.5741 44.5851 30.2759C42.5269 27.9776 40.0577 26.1902 37.3388 25.0304Z" fill="white"/>
</svg>
