<svg width="61" height="68" viewBox="0 0 61 68" fill="none" xmlns="http://www.w3.org/2000/svg">
<path d="M0.75 44.4688C0.75 42.8608 1.32227 41.3235 2.33376 40.194C3.34444 39.0654 4.70892 38.4375 6.125 38.4375H9.875C11.2911 38.4375 12.6556 39.0654 13.6662 40.194C14.6777 41.3235 15.25 42.8608 15.25 44.4688V48.6562C15.25 50.2642 14.6777 51.8015 13.6662 52.931C12.6556 54.0596 11.2911 54.6875 9.875 54.6875H6.125C4.70892 54.6875 3.34444 54.0596 2.33376 52.931C1.32227 51.8015 0.75 50.2642 0.75 48.6562V44.4688ZM4.61294 50.3035L4.79917 50.1368L4.61294 50.3035C5.00878 50.7456 5.55195 51 6.125 51H9.875C10.448 51 10.9912 50.7456 11.3871 50.3035C11.7821 49.8624 12 49.2695 12 48.6562V44.4688C12 43.8555 11.7821 43.2626 11.3871 42.8215C10.9912 42.3794 10.448 42.125 9.875 42.125H6.125C5.55195 42.125 5.00878 42.3794 4.61294 42.8215C4.21791 43.2626 4 43.8555 4 44.4688V48.6562C4 49.2695 4.21791 49.8624 4.61294 50.3035ZM45.75 44.4688C45.75 42.8608 46.3223 41.3235 47.3338 40.194C48.3444 39.0654 49.7089 38.4375 51.125 38.4375H54.875C56.2911 38.4375 57.6556 39.0654 58.6662 40.194C59.6777 41.3235 60.25 42.8608 60.25 44.4688V48.6562C60.25 50.2642 59.6777 51.8015 58.6662 52.931C57.6556 54.0596 56.2911 54.6875 54.875 54.6875H51.125C49.7089 54.6875 48.3444 54.0596 47.3338 52.931C46.3223 51.8015 45.75 50.2642 45.75 48.6562V44.4688ZM51.125 42.125C50.552 42.125 50.0088 42.3794 49.6129 42.8215C49.2179 43.2626 49 43.8555 49 44.4688V48.6562C49 49.2695 49.2179 49.8624 49.6129 50.3035C50.0088 50.7456 50.552 51 51.125 51H54.875C55.448 51 55.9912 50.7456 56.3871 50.3035C56.7821 49.8624 57 49.2695 57 48.6562V44.4688C57 43.8555 56.7821 43.2626 56.3871 42.8215C55.9912 42.3794 55.448 42.125 54.875 42.125H51.125ZM23.25 19.3438C23.25 17.7358 23.8223 16.1985 24.8338 15.069C25.8444 13.9404 27.2089 13.3125 28.625 13.3125H32.375C33.7911 13.3125 35.1556 13.9404 36.1662 15.069C37.1777 16.1985 37.75 17.7358 37.75 19.3438V23.5312C37.75 25.1392 37.1777 26.6765 36.1662 27.806C35.1556 28.9346 33.7911 29.5625 32.375 29.5625H28.625C27.2089 29.5625 25.8444 28.9346 24.8338 27.806C23.8223 26.6765 23.25 25.1392 23.25 23.5312V19.3438ZM28.625 17C28.052 17 27.5088 17.2544 27.1129 17.6965C26.7179 18.1376 26.5 18.7305 26.5 19.3438V23.5312C26.5 24.1445 26.7179 24.7374 27.1129 25.1785C27.5088 25.6206 28.052 25.875 28.625 25.875H32.375C32.948 25.875 33.4912 25.6206 33.8871 25.1785C34.2821 24.7374 34.5 24.1445 34.5 23.5312V19.3438C34.5 18.7305 34.2821 18.1376 33.8871 17.6965C33.4912 17.2544 32.948 17 32.375 17H28.625Z" fill="black" stroke="white" stroke-width="0.5"/>
<path d="M23 23.5313H22.7V23.5311V19.6438H7.49747H7.31486L7.23099 19.4815C6.84657 18.738 6.25683 18.1638 5.559 17.841C4.86206 17.5187 4.09181 17.4627 3.3653 17.6801C2.63802 17.8977 1.98857 18.3793 1.52205 19.0582C1.05527 19.7375 0.799878 20.5739 0.799878 21.4375C0.799878 22.3011 1.05527 23.1375 1.52205 23.8168C1.98857 24.4957 2.63802 24.9773 3.3653 25.1949C4.09181 25.4123 4.86206 25.3563 5.559 25.034C6.25683 24.7112 6.84657 24.137 7.23099 23.3935L7.31486 23.2313H7.49747H17.5025H18.4487L17.6753 23.7764C13.0077 27.0671 9.48809 32.0473 7.70486 37.8875L22.8193 24.8517M23 23.5313C22.9997 24.0364 23.0538 24.5397 23.1612 25.0304M23 23.5313V19.6438V23.5313ZM23.1612 25.0304L23.0435 24.7544C22.9686 24.7864 22.8939 24.8188 22.8193 24.8517M23.1612 25.0304L22.8682 25.0945C22.8505 25.0139 22.8342 24.9329 22.8193 24.8517M23.1612 25.0304C20.4423 26.1902 17.973 27.9776 15.9149 30.2759C13.8568 32.5741 12.2561 35.3314 11.2175 38.3676M22.8193 24.8517C20.1468 26.0311 17.7209 27.8095 15.6914 30.0757C13.6643 32.3394 12.0766 35.0406 11.0239 38.0111M11.2175 38.3676L11.2968 38.0782C11.2069 38.0536 11.1159 38.0312 11.0239 38.0111M11.2175 38.3676C10.79 38.2503 10.3362 38.1875 9.87497 38.1875H7.61501L9.87497 37.8875C10.2663 37.8875 10.6527 37.9302 11.0239 38.0111M11.2175 38.3676L10.9336 38.2705C10.9633 38.1838 10.9934 38.0974 11.0239 38.0111M38.3 19.6438V23.531V23.5313H38C38.0004 24.0364 37.9463 24.5397 37.8387 25.0304L38.3 19.6438ZM38.3 19.6438H53.5025H53.6851L53.769 19.4815C54.1534 18.738 54.7431 18.1638 55.4409 17.841C56.1379 17.5187 56.9081 17.4627 57.6346 17.6801C58.3619 17.8977 59.0114 18.3793 59.4779 19.0582C59.9447 19.7375 60.2001 20.5739 60.2001 21.4375C60.2001 22.3012 59.9447 23.1375 59.4779 23.8168C59.0114 24.4957 58.3619 24.9773 57.6346 25.1949C56.9081 25.4123 56.1379 25.3563 55.4409 25.034C54.7431 24.7112 54.1534 24.137 53.769 23.3935L53.6851 23.2313H53.5025H43.4975H42.5513L43.3246 23.7764C47.9922 27.0671 51.5119 32.0473 53.2951 37.8875H51.125C50.7328 37.8875 50.3484 37.9304 49.9761 38.0114C48.9235 35.0408 47.3357 32.3395 45.3085 30.0757C43.279 27.8095 40.8532 26.0311 38.1806 24.8517L38.3 19.6438Z" fill="#085BD8" stroke="white" stroke-width="0.6"/>
</svg>
