<svg width="56" height="56" viewBox="0 0 56 56" fill="none" xmlns="http://www.w3.org/2000/svg">
<path d="M13.8051 8.06756V9.06756H14.6005L14.7794 8.29245L13.8051 8.06756ZM30.3381 8.07256L29.3636 8.29686L29.5296 9.01812L30.2679 9.07009L30.3381 8.07256ZM32.1956 12.4458H31.1956V13.4458H32.1956V12.4458ZM32.1956 23.3918V22.3918H31.1956V23.3918H32.1956ZM32.1956 23.3919V24.3919H33.1956V23.3919H32.1956ZM12.3626 23.3318L12.606 22.3619L12.4241 22.3163L12.238 22.3396L12.3626 23.3318ZM12.3626 8.12762L12.238 9.11984L12.4241 9.1432L12.606 9.09754L12.3626 8.12762ZM14.7794 8.29245C15.5455 4.97359 18.5206 2.5 22.071 2.5V0.5C17.5688 0.5 13.8015 3.63652 12.8307 7.84266L14.7794 8.29245ZM22.071 2.5C25.623 2.5 28.5992 4.97578 29.3636 8.29686L31.3126 7.84825C30.3439 3.6393 26.5752 0.5 22.071 0.5V2.5ZM33.1956 10.0676C33.1956 8.48214 31.9664 7.1847 30.4083 7.07502L30.2679 9.07009C30.7859 9.10655 31.1956 9.53965 31.1956 10.0676H33.1956ZM33.1956 12.4458V10.0676H31.1956V12.4458H33.1956ZM32.1961 11.4458H32.1956V13.4458H32.1961V11.4458ZM38.6691 17.9188C38.6691 14.3439 35.7711 11.4458 32.1961 11.4458V13.4458C34.6665 13.4458 36.6691 15.4484 36.6691 17.9188H38.6691ZM32.1961 24.3918C35.7711 24.3918 38.6691 21.4937 38.6691 17.9188H36.6691C36.6691 20.3891 34.6665 22.3918 32.1961 22.3918V24.3918ZM32.1956 24.3918H32.1961V22.3918H32.1956V24.3918ZM33.1956 23.3919V23.3918H31.1956V23.3919H33.1956ZM12.851 24.3919H32.1956V22.3919H12.851V24.3919ZM12.1191 24.3017C12.3544 24.3608 12.5998 24.3919 12.851 24.3919V22.3919C12.7652 22.3919 12.6834 22.3813 12.606 22.3619L12.1191 24.3017ZM11.3985 24.3919C11.7668 24.3919 12.1301 24.3689 12.4871 24.324L12.238 22.3396C11.9634 22.3741 11.6833 22.3919 11.3985 22.3919V24.3919ZM2.73633 15.7297C2.73633 20.5137 6.61451 24.3919 11.3985 24.3919V22.3919C7.71908 22.3919 4.73633 19.4091 4.73633 15.7297H2.73633ZM11.3985 7.06756C6.61451 7.06756 2.73633 10.9457 2.73633 15.7297H4.73633C4.73633 12.0503 7.71908 9.06756 11.3985 9.06756V7.06756ZM12.4871 7.13541C12.1301 7.09059 11.7668 7.06756 11.3985 7.06756V9.06756C11.6833 9.06756 11.9634 9.08537 12.238 9.11984L12.4871 7.13541ZM12.851 7.06756C12.5998 7.06756 12.3544 7.09866 12.1191 7.15771L12.606 9.09754C12.6834 9.07813 12.7652 9.06756 12.851 9.06756V7.06756ZM13.8051 7.06756H12.851V9.06756H13.8051V7.06756Z" fill="white"/>
<path d="M23.6161 8.06756V9.06756H24.4116L24.5905 8.29245L23.6161 8.06756ZM40.1491 8.07256L39.1746 8.29686L39.3406 9.01812L40.0789 9.07009L40.1491 8.07256ZM42.0067 12.4458H41.0067V13.4458H42.0067V12.4458ZM42.0067 23.3918V22.3918H41.0067V23.3918H42.0067ZM42.0067 23.3919V24.3919H43.0067V23.3919H42.0067ZM22.1736 23.3318L22.417 22.3619L22.2351 22.3163L22.049 22.3396L22.1736 23.3318ZM22.1736 8.12762L22.049 9.11984L22.2351 9.1432L22.417 9.09754L22.1736 8.12762ZM24.5905 8.29245C25.3565 4.97359 28.3316 2.5 31.882 2.5V0.5C27.3798 0.5 23.6125 3.63652 22.6417 7.84266L24.5905 8.29245ZM31.882 2.5C35.4341 2.5 38.4102 4.97578 39.1746 8.29686L41.1237 7.84825C40.1549 3.6393 36.3863 0.5 31.882 0.5V2.5ZM43.0067 10.0676C43.0067 8.48214 41.7775 7.1847 40.2194 7.07502L40.0789 9.07009C40.597 9.10655 41.0067 9.53965 41.0067 10.0676H43.0067ZM43.0067 12.4458V10.0676H41.0067V12.4458H43.0067ZM42.0072 11.4458H42.0067V13.4458H42.0072V11.4458ZM48.4801 17.9188C48.4801 14.3439 45.5821 11.4458 42.0072 11.4458V13.4458C44.4775 13.4458 46.4801 15.4484 46.4801 17.9188H48.4801ZM42.0072 24.3918C45.5821 24.3918 48.4801 21.4937 48.4801 17.9188H46.4801C46.4801 20.3891 44.4775 22.3918 42.0072 22.3918V24.3918ZM42.0067 24.3918H42.0072V22.3918H42.0067V24.3918ZM43.0067 23.3919V23.3918H41.0067V23.3919H43.0067ZM22.662 24.3919H42.0067V22.3919H22.662V24.3919ZM21.9302 24.3017C22.1655 24.3608 22.4108 24.3919 22.662 24.3919V22.3919C22.5763 22.3919 22.4944 22.3813 22.417 22.3619L21.9302 24.3017ZM21.2095 24.3919C21.5778 24.3919 21.9412 24.3689 22.2982 24.324L22.049 22.3396C21.7745 22.3741 21.4943 22.3919 21.2095 22.3919V24.3919ZM12.5474 15.7297C12.5474 20.5137 16.4255 24.3919 21.2095 24.3919V22.3919C17.5301 22.3919 14.5474 19.4091 14.5474 15.7297H12.5474ZM21.2095 7.06756C16.4255 7.06756 12.5474 10.9457 12.5474 15.7297H14.5474C14.5474 12.0503 17.5301 9.06756 21.2095 9.06756V7.06756ZM22.2982 7.13541C21.9412 7.09059 21.5778 7.06756 21.2095 7.06756V9.06756C21.4943 9.06756 21.7745 9.08537 22.049 9.11984L22.2982 7.13541ZM22.662 7.06756C22.4108 7.06756 22.1655 7.09866 21.9302 7.15771L22.417 9.09754C22.4944 9.07813 22.5763 9.06756 22.662 9.06756V7.06756ZM23.6161 7.06756H22.662V9.06756H23.6161V7.06756Z" fill="white"/>
<path d="M21.75 24.5V33.3235H7.75V36.5" stroke="white" stroke-width="2"/>
<path d="M33.75 24.5V33.3235H47.75V36.5" stroke="white" stroke-width="2"/>
<path d="M27.75 24.5V37.5" stroke="white" stroke-width="2"/>
<path d="M1.54736 50.0268V39.8105H15.0474V50.0268H1.54736Z" stroke="white" stroke-width="2"/>
<rect x="5.1958" y="50.3916" width="5.83784" height="2.91892" fill="white"/>
<rect x="3.00691" y="53.3105" width="10.2162" height="2.18919" fill="white"/>
<path d="M21.25 50.0268V39.8105H34.75V50.0268H21.25Z" stroke="white" stroke-width="2"/>
<rect x="24.8984" y="50.3916" width="5.83784" height="2.91892" fill="white"/>
<rect x="22.7095" y="53.3105" width="10.2162" height="2.18919" fill="white"/>
<path d="M40.9526 50.0268V39.8105H54.4527V50.0268H40.9526Z" stroke="white" stroke-width="2"/>
<rect x="44.6011" y="50.3916" width="5.83784" height="2.91892" fill="white"/>
<rect x="42.4122" y="53.3105" width="10.2162" height="2.18919" fill="white"/>
</svg>
