<svg width="55" height="55" viewBox="0 0 55 55" fill="none" xmlns="http://www.w3.org/2000/svg">
<path d="M13.2577 7.56756V8.56756H14.0532L14.2321 7.79245L13.2577 7.56756ZM29.7907 7.57256L28.8162 7.79686L28.9822 8.51812L29.7205 8.57009L29.7907 7.57256ZM31.6483 11.9458H30.6483V12.9458H31.6483V11.9458ZM31.6483 22.8918V21.8918H30.6483V22.8918H31.6483ZM31.6483 22.8919V23.8919H32.6483V22.8919H31.6483ZM11.8152 22.8318L12.0586 21.8619L11.8767 21.8163L11.6907 21.8396L11.8152 22.8318ZM11.8152 7.62762L11.6906 8.61984L11.8767 8.6432L12.0586 8.59754L11.8152 7.62762ZM14.2321 7.79245C14.9981 4.47359 17.9732 2 21.5236 2V0C17.0214 0 13.2541 3.13652 12.2833 7.34266L14.2321 7.79245ZM21.5236 2C25.0757 2 28.0518 4.47578 28.8162 7.79686L30.7653 7.34825C29.7965 3.1393 26.0279 0 21.5236 0V2ZM32.6483 9.56756C32.6483 7.98214 31.4191 6.6847 29.861 6.57502L29.7205 8.57009C30.2386 8.60655 30.6483 9.03965 30.6483 9.56756H32.6483ZM32.6483 11.9458V9.56756H30.6483V11.9458H32.6483ZM31.6488 10.9458H31.6483V12.9458H31.6488V10.9458ZM38.1217 17.4188C38.1217 13.8439 35.2237 10.9458 31.6488 10.9458V12.9458C34.1191 12.9458 36.1217 14.9484 36.1217 17.4188H38.1217ZM31.6488 23.8918C35.2237 23.8918 38.1217 20.9937 38.1217 17.4188H36.1217C36.1217 19.8891 34.1191 21.8918 31.6488 21.8918V23.8918ZM31.6483 23.8918H31.6488V21.8918H31.6483V23.8918ZM32.6483 22.8919V22.8918H30.6483V22.8919H32.6483ZM12.3036 23.8919H31.6483V21.8919H12.3036V23.8919ZM11.5718 23.8017C11.8071 23.8608 12.0524 23.8919 12.3036 23.8919V21.8919C12.2179 21.8919 12.136 21.8813 12.0586 21.8619L11.5718 23.8017ZM10.8511 23.8919C11.2194 23.8919 11.5828 23.8689 11.9398 23.824L11.6907 21.8396C11.4161 21.8741 11.1359 21.8919 10.8511 21.8919V23.8919ZM2.18896 15.2297C2.18896 20.0137 6.06715 23.8919 10.8511 23.8919V21.8919C7.17172 21.8919 4.18896 18.9091 4.18896 15.2297H2.18896ZM10.8511 6.56756C6.06715 6.56756 2.18896 10.4457 2.18896 15.2297H4.18896C4.18896 11.5503 7.17172 8.56756 10.8511 8.56756V6.56756ZM11.9398 6.63541C11.5828 6.59059 11.2194 6.56756 10.8511 6.56756V8.56756C11.1359 8.56756 11.4161 8.58537 11.6906 8.61984L11.9398 6.63541ZM12.3036 6.56756C12.0524 6.56756 11.8071 6.59866 11.5718 6.65771L12.0586 8.59754C12.136 8.57813 12.2179 8.56756 12.3036 8.56756V6.56756ZM13.2577 6.56756H12.3036V8.56756H13.2577V6.56756Z" fill="black"/>
<path d="M23.0687 7.56756V8.56756H23.8642L24.0431 7.79245L23.0687 7.56756ZM39.6018 7.57256L38.6273 7.79686L38.7933 8.51812L39.5316 8.57009L39.6018 7.57256ZM41.4593 11.9458H40.4593V12.9458H41.4593V11.9458ZM41.4593 22.8918V21.8918H40.4593V22.8918H41.4593ZM41.4593 22.8919V23.8919H42.4593V22.8919H41.4593ZM21.6262 22.8318L21.8697 21.8619L21.6878 21.8163L21.5017 21.8396L21.6262 22.8318ZM21.6262 7.62762L21.5017 8.61984L21.6878 8.6432L21.8697 8.59754L21.6262 7.62762ZM24.0431 7.79245C24.8091 4.47359 27.7842 2 31.3347 2V0C26.8324 0 23.0652 3.13652 22.0944 7.34266L24.0431 7.79245ZM31.3347 2C34.8867 2 37.8629 4.47578 38.6273 7.79686L40.5763 7.34825C39.6075 3.1393 35.8389 0 31.3347 0V2ZM42.4593 9.56756C42.4593 7.98214 41.2301 6.6847 39.672 6.57502L39.5316 8.57009C40.0496 8.60655 40.4593 9.03965 40.4593 9.56756H42.4593ZM42.4593 11.9458V9.56756H40.4593V11.9458H42.4593ZM41.4598 10.9458H41.4593V12.9458H41.4598V10.9458ZM47.9328 17.4188C47.9328 13.8439 45.0347 10.9458 41.4598 10.9458V12.9458C43.9302 12.9458 45.9328 14.9484 45.9328 17.4188H47.9328ZM41.4598 23.8918C45.0347 23.8918 47.9328 20.9937 47.9328 17.4188H45.9328C45.9328 19.8891 43.9302 21.8918 41.4598 21.8918V23.8918ZM41.4593 23.8918H41.4598V21.8918H41.4593V23.8918ZM42.4593 22.8919V22.8918H40.4593V22.8919H42.4593ZM22.1147 23.8919H41.4593V21.8919H22.1147V23.8919ZM21.3828 23.8017C21.6181 23.8608 21.8635 23.8919 22.1147 23.8919V21.8919C22.0289 21.8919 21.947 21.8813 21.8697 21.8619L21.3828 23.8017ZM20.6622 23.8919C21.0304 23.8919 21.3938 23.8689 21.7508 23.824L21.5017 21.8396C21.2271 21.8741 20.947 21.8919 20.6622 21.8919V23.8919ZM12 15.2297C12 20.0137 15.8782 23.8919 20.6622 23.8919V21.8919C16.9828 21.8919 14 18.9091 14 15.2297H12ZM20.6622 6.56756C15.8782 6.56756 12 10.4457 12 15.2297H14C14 11.5503 16.9828 8.56756 20.6622 8.56756V6.56756ZM21.7508 6.63541C21.3938 6.59059 21.0304 6.56756 20.6622 6.56756V8.56756C20.947 8.56756 21.2271 8.58537 21.5017 8.61984L21.7508 6.63541ZM22.1147 6.56756C21.8635 6.56756 21.6181 6.59866 21.3828 6.65771L21.8697 8.59754C21.947 8.57813 22.0289 8.56756 22.1147 8.56756V6.56756ZM23.0687 6.56756H22.1147V8.56756H23.0687V6.56756Z" fill="black"/>
<path d="M21.2026 24V32.8235H7.20264V36" stroke="black" stroke-width="2"/>
<path d="M33.2026 24V32.8235H47.2026V36" stroke="black" stroke-width="2"/>
<path d="M27.2026 24V37" stroke="black" stroke-width="2"/>
<path d="M1 49.527V39.3108H14.5V49.527H1Z" stroke="#085BD8" stroke-width="2"/>
<rect x="4.64844" y="49.8918" width="5.83784" height="2.91892" fill="#085BD8"/>
<rect x="2.45947" y="52.8108" width="10.2162" height="2.18919" fill="#085BD8"/>
<path d="M20.7026 49.527V39.3108H34.2027V49.527H20.7026Z" stroke="#085BD8" stroke-width="2"/>
<rect x="24.3511" y="49.8918" width="5.83784" height="2.91892" fill="#085BD8"/>
<rect x="22.1621" y="52.8108" width="10.2162" height="2.18919" fill="#085BD8"/>
<path d="M40.4053 49.527V39.3108H53.9053V49.527H40.4053Z" stroke="#085BD8" stroke-width="2"/>
<rect x="44.0537" y="49.8918" width="5.83784" height="2.91892" fill="#085BD8"/>
<rect x="41.8647" y="52.8108" width="10.2162" height="2.18919" fill="#085BD8"/>
</svg>
