<svg width="71" height="51" viewBox="0 0 71 51" fill="none" xmlns="http://www.w3.org/2000/svg">
<path d="M29.3524 7.56756V8.56756H30.1479L30.3268 7.79245L29.3524 7.56756ZM45.8855 7.57256L44.911 7.79686L45.077 8.51812L45.8153 8.57009L45.8855 7.57256ZM47.743 11.9459H46.743V12.9459H47.743V11.9459ZM47.743 22.8919V21.8919H46.743V22.8919H47.743ZM47.743 22.8919V23.8919H48.743V22.8919H47.743ZM27.9099 22.8318L28.1534 21.8619L27.9715 21.8163L27.7854 21.8396L27.9099 22.8318ZM27.9099 7.62762L27.7854 8.61984L27.9715 8.6432L28.1534 8.59754L27.9099 7.62762ZM30.3268 7.79245C31.0928 4.47359 34.0679 2 37.6184 2V0C33.1161 0 29.3489 3.13652 28.378 7.34266L30.3268 7.79245ZM37.6184 2C41.1704 2 44.1465 4.47578 44.911 7.79686L46.86 7.34825C45.8912 3.1393 42.1226 0 37.6184 0V2ZM48.743 9.56756C48.743 7.98214 47.5138 6.6847 45.9557 6.57502L45.8153 8.57009C46.3333 8.60655 46.743 9.03965 46.743 9.56756H48.743ZM48.743 11.9459V9.56756H46.743V11.9459H48.743ZM47.7435 10.9459H47.743V12.9459H47.7435V10.9459ZM54.2165 17.4189C54.2165 13.844 51.3184 10.9459 47.7435 10.9459V12.9459C50.2138 12.9459 52.2165 14.9485 52.2165 17.4189H54.2165ZM47.7435 23.8919C51.3184 23.8919 54.2165 20.9938 54.2165 17.4189H52.2165C52.2165 19.8893 50.2138 21.8919 47.7435 21.8919V23.8919ZM47.743 23.8919H47.7435V21.8919H47.743V23.8919ZM48.743 22.8919V22.8919H46.743V22.8919H48.743ZM28.3984 23.8919H47.743V21.8919H28.3984V23.8919ZM27.6665 23.8017C27.9018 23.8608 28.1471 23.8919 28.3984 23.8919V21.8919C28.3126 21.8919 28.2307 21.8813 28.1534 21.8619L27.6665 23.8017ZM26.9459 23.8919C27.3141 23.8919 27.6775 23.8689 28.0345 23.824L27.7854 21.8396C27.5108 21.8741 27.2306 21.8919 26.9459 21.8919V23.8919ZM18.2837 15.2297C18.2837 20.0137 22.1619 23.8919 26.9459 23.8919V21.8919C23.2664 21.8919 20.2837 18.9091 20.2837 15.2297H18.2837ZM26.9459 6.56756C22.1619 6.56756 18.2837 10.4457 18.2837 15.2297H20.2837C20.2837 11.5503 23.2664 8.56756 26.9459 8.56756V6.56756ZM28.0345 6.63541C27.6775 6.59059 27.3141 6.56756 26.9459 6.56756V8.56756C27.2307 8.56756 27.5108 8.58537 27.7854 8.61984L28.0345 6.63541ZM28.3984 6.56756C28.1471 6.56756 27.9018 6.59866 27.6665 6.65771L28.1534 8.59754C28.2307 8.57813 28.3126 8.56756 28.3984 8.56756V6.56756ZM29.3524 6.56756H28.3984V8.56756H29.3524V6.56756Z" fill="black"/>
<path d="M30 24V32.8235H16V36" stroke="black" stroke-width="2"/>
<path d="M42 24V32.8235H56V36" stroke="black" stroke-width="2"/>
<path d="M36.9999 11.9712C36.7335 11.9712 36.4697 12.0237 36.2236 12.1256C35.9774 12.2276 35.7538 12.377 35.5654 12.5654C35.377 12.7538 35.2276 12.9774 35.1256 13.2236C35.0237 13.4697 34.9712 13.7335 34.9712 13.9999C34.9712 14.2664 35.0237 14.5302 35.1256 14.7763C35.2276 15.0224 35.377 15.2461 35.5654 15.4345C35.7538 15.6229 35.9774 15.7723 36.2236 15.8743C36.4697 15.9762 36.7335 16.0287 36.9999 16.0287C37.538 16.0287 38.054 15.8149 38.4345 15.4345C38.8149 15.054 39.0287 14.538 39.0287 13.9999C39.0287 13.4619 38.8149 12.9459 38.4345 12.5654C38.054 12.1849 37.538 11.9712 36.9999 11.9712ZM35.5962 13.9999C35.5962 13.6276 35.7441 13.2706 36.0073 13.0073C36.2706 12.7441 36.6276 12.5962 36.9999 12.5962C37.3722 12.5962 37.7293 12.7441 37.9925 13.0073C38.2558 13.2706 38.4037 13.6276 38.4037 13.9999C38.4037 14.3722 38.2558 14.7293 37.9925 14.9925C37.7293 15.2558 37.3722 15.4037 36.9999 15.4037C36.6276 15.4037 36.2706 15.2558 36.0073 14.9925C35.7441 14.7293 35.5962 14.3722 35.5962 13.9999Z" fill="black"/>
<path d="M38.1227 9.83955C37.7933 8.7208 36.2071 8.7208 35.8777 9.83955L35.8189 10.0389C35.7959 10.117 35.7557 10.189 35.7013 10.2495C35.6469 10.3101 35.5796 10.3577 35.5044 10.3888C35.4292 10.42 35.3479 10.4339 35.2666 10.4296C35.1853 10.4253 35.106 10.4029 35.0346 10.3639L34.8521 10.2639C33.8271 9.70643 32.7064 10.8277 33.2646 11.8521L33.3639 12.0346C33.4029 12.106 33.4253 12.1853 33.4296 12.2666C33.4339 12.3479 33.42 12.4292 33.3888 12.5044C33.3577 12.5796 33.3101 12.6469 33.2495 12.7013C33.189 12.7557 33.117 12.7959 33.0389 12.8189L32.8396 12.8777C31.7208 13.2071 31.7208 14.7933 32.8396 15.1227L33.0389 15.1814C33.117 15.2044 33.189 15.2446 33.2495 15.299C33.3101 15.3535 33.3577 15.4208 33.3888 15.496C33.42 15.5712 33.4339 15.6524 33.4296 15.7337C33.4253 15.815 33.4029 15.8943 33.3639 15.9658L33.2639 16.1483C32.7064 17.1733 33.8271 18.2946 34.8521 17.7358L35.0346 17.6364C35.106 17.5975 35.1853 17.575 35.2666 17.5707C35.3479 17.5664 35.4292 17.5804 35.5044 17.6115C35.5796 17.6427 35.6469 17.6903 35.7013 17.7508C35.7557 17.8114 35.7959 17.8833 35.8189 17.9614L35.8777 18.1608C36.2071 19.2796 37.7933 19.2796 38.1227 18.1608L38.1814 17.9614C38.2044 17.8833 38.2446 17.8114 38.299 17.7508C38.3535 17.6903 38.4208 17.6427 38.496 17.6115C38.5712 17.5804 38.6524 17.5664 38.7337 17.5707C38.815 17.575 38.8943 17.5975 38.9658 17.6364L39.1483 17.7364C40.1733 18.2946 41.2946 17.1727 40.7358 16.1483L40.6364 15.9658C40.5975 15.8943 40.575 15.815 40.5707 15.7337C40.5664 15.6524 40.5804 15.5712 40.6115 15.496C40.6427 15.4208 40.6903 15.3535 40.7508 15.299C40.8114 15.2446 40.8833 15.2044 40.9614 15.1814L41.1608 15.1227C42.2796 14.7933 42.2796 13.2071 41.1608 12.8777L40.9614 12.8189C40.8833 12.7959 40.8114 12.7557 40.7508 12.7013C40.6903 12.6469 40.6427 12.5796 40.6115 12.5044C40.5804 12.4292 40.5664 12.3479 40.5707 12.2666C40.575 12.1853 40.5975 12.106 40.6364 12.0346L40.7364 11.8521C41.2946 10.8271 40.1727 9.70643 39.1483 10.2646L38.9658 10.3639C38.8943 10.4029 38.815 10.4253 38.7337 10.4296C38.6524 10.4339 38.5712 10.42 38.496 10.3888C38.4208 10.3577 38.3535 10.3101 38.299 10.2495C38.2446 10.189 38.2044 10.117 38.1814 10.0389L38.1227 9.83955ZM36.4771 10.0164C36.6308 9.49455 37.3696 9.49455 37.5233 10.0164L37.5821 10.2158C37.6314 10.3834 37.7177 10.5377 37.8345 10.6676C37.9513 10.7975 38.0957 10.8996 38.2571 10.9664C38.4185 11.0332 38.5928 11.0631 38.7672 11.0538C38.9417 11.0445 39.1118 10.9963 39.2652 10.9127L39.4471 10.8127C39.9246 10.5533 40.4471 11.0752 40.1871 11.5533L40.0877 11.7358C40.0042 11.8892 39.9561 12.0593 39.9469 12.2337C39.9377 12.4081 39.9676 12.5823 40.0345 12.7437C40.1014 12.905 40.2035 13.0493 40.3334 13.166C40.4633 13.2828 40.6177 13.369 40.7852 13.4183L40.9839 13.4771C41.5058 13.6308 41.5058 14.3696 40.9839 14.5233L40.7846 14.5821C40.617 14.6314 40.4626 14.7177 40.3327 14.8345C40.2029 14.9513 40.1008 15.0957 40.0339 15.2571C39.9671 15.4185 39.9373 15.5928 39.9466 15.7672C39.9559 15.9417 40.0041 16.1118 40.0877 16.2652L40.1877 16.4471C40.4471 16.9246 39.9252 17.4471 39.4471 17.1871L39.2652 17.0877C39.1118 17.0041 38.9416 16.9559 38.7671 16.9466C38.5926 16.9374 38.4183 16.9673 38.2569 17.0342C38.0955 17.1011 37.9511 17.2032 37.8344 17.3332C37.7176 17.4631 37.6314 17.6176 37.5821 17.7852L37.5233 17.9839C37.3696 18.5058 36.6308 18.5058 36.4771 17.9839L36.4183 17.7846C36.3689 17.6171 36.2826 17.4628 36.1659 17.333C36.0491 17.2032 35.9048 17.1011 35.7435 17.0343C35.5822 16.9675 35.408 16.9376 35.2336 16.9468C35.0592 16.9561 34.8892 17.0042 34.7358 17.0877L34.5533 17.1877C34.0758 17.4471 33.5533 16.9252 33.8133 16.4471L33.9127 16.2652C33.9964 16.1118 34.0447 15.9416 34.0541 15.7671C34.0634 15.5926 34.0336 15.4182 33.9668 15.2567C33.8999 15.0952 33.7978 14.9508 33.6678 14.8339C33.5379 14.7171 33.3834 14.6308 33.2158 14.5814L33.0164 14.5227C32.4946 14.3689 32.4946 13.6302 33.0164 13.4764L33.2158 13.4177C33.3832 13.3682 33.5374 13.282 33.6671 13.1653C33.7969 13.0486 33.8989 12.9043 33.9657 12.7431C34.0325 12.5819 34.0624 12.4077 34.0532 12.2334C34.0441 12.0592 33.996 11.8891 33.9127 11.7358L33.8127 11.5533C33.5533 11.0758 34.0752 10.5533 34.5533 10.8133L34.7358 10.9127C34.8892 10.9962 35.0592 11.0443 35.2336 11.0535C35.408 11.0628 35.5822 11.0329 35.7435 10.9661C35.9048 10.8992 36.0491 10.7972 36.1659 10.6674C36.2826 10.5376 36.3689 10.3833 36.4183 10.2158L36.4771 10.0164Z" fill="black"/>
<rect x="1" y="39" width="24" height="11" stroke="#085BD8" stroke-width="2"/>
<rect x="46" y="39" width="24" height="11" stroke="#085BD8" stroke-width="2"/>
<path d="M12 44.5H22" stroke="#085BD8" stroke-width="2"/>
<path d="M58 45H48" stroke="#085BD8" stroke-width="2"/>
<path d="M67 45H64" stroke="#085BD8" stroke-width="2"/>
<path d="M63 45H60" stroke="#085BD8" stroke-width="2"/>
<path d="M34.5 44H37.5" stroke="#085BD8" stroke-width="2"/>
</svg>
