<svg width="60" height="68" viewBox="0 0 60 68" fill="none" xmlns="http://www.w3.org/2000/svg">
<path fill-rule="evenodd" clip-rule="evenodd" d="M31.7902 13.2817C28.7898 13.2817 26.2756 15.372 25.6283 18.1767L25.4771 18.8317H23.9986C23.9261 18.8317 23.857 18.8407 23.7916 18.8571L23.6379 18.8957L23.4806 18.8759C23.2486 18.8468 23.0118 18.8317 22.7711 18.8317C19.6618 18.8317 17.1411 21.3524 17.1411 24.4617C17.1411 27.5711 19.6618 30.0917 22.7711 30.0917C23.0118 30.0917 23.2486 30.0767 23.4806 30.0476L23.6379 30.0278L23.7916 30.0664C23.857 30.0828 23.9261 30.0917 23.9986 30.0917H39.5011L40.3462 30.0916C42.4338 30.0916 44.1266 28.3993 44.1266 26.3116C44.1266 24.224 42.4342 22.5317 40.3466 22.5317H39.5011V19.6768C39.5011 19.2307 39.1549 18.8647 38.7171 18.8339L38.0932 18.79L37.9529 18.1804C37.3069 15.3739 34.7919 13.2817 31.7902 13.2817ZM41.1913 31.717V31.7819H23.9986C23.8445 31.7819 23.693 31.768 23.5454 31.7414C23.2908 31.7682 23.0324 31.7819 22.7711 31.7819C18.7283 31.7819 15.451 28.5045 15.451 24.4617C15.451 20.4189 18.7283 17.1416 22.7711 17.1416C23.0324 17.1416 23.2908 17.1553 23.5454 17.1821C23.693 17.1555 23.8445 17.1416 23.9986 17.1416H24.1624C25.202 13.9214 28.2231 11.5916 31.7902 11.5916C35.405 11.5916 38.4592 13.9842 39.4586 17.2714C40.4657 17.6073 41.1913 18.557 41.1913 19.6768V20.9063C43.8113 21.3124 45.8167 23.5778 45.8167 26.3116C45.8167 29.0455 43.8113 31.3109 41.1913 31.717Z" fill="white"/>
<path fill-rule="evenodd" clip-rule="evenodd" d="M24.507 38.4845V31.873H26.1972V40.1746H14.3662V42.0139H12.6761V38.4845H24.507Z" fill="white"/>
<path fill-rule="evenodd" clip-rule="evenodd" d="M36.338 38.4845V31.873H34.6479V40.1746H46.4789V42.0139H48.169V38.4845H36.338Z" fill="white"/>
<path d="M31.2676 21.7083C31.0425 21.7083 30.8195 21.7526 30.6115 21.8388C30.4035 21.9249 30.2145 22.0512 30.0553 22.2104C29.8961 22.3696 29.7698 22.5586 29.6837 22.7666C29.5975 22.9746 29.5532 23.1975 29.5532 23.4227C29.5532 23.6478 29.5975 23.8708 29.6837 24.0788C29.7698 24.2868 29.8961 24.4758 30.0553 24.635C30.2145 24.7942 30.4035 24.9205 30.6115 25.0066C30.8195 25.0928 31.0425 25.1371 31.2676 25.1371C31.7223 25.1371 32.1584 24.9565 32.4799 24.635C32.8014 24.3135 32.982 23.8774 32.982 23.4227C32.982 22.968 32.8014 22.5319 32.4799 22.2104C32.1584 21.8889 31.7223 21.7083 31.2676 21.7083ZM30.0813 23.4227C30.0813 23.1081 30.2063 22.8063 30.4288 22.5839C30.6512 22.3614 30.953 22.2364 31.2676 22.2364C31.5822 22.2364 31.8839 22.3614 32.1064 22.5839C32.3289 22.8063 32.4539 23.1081 32.4539 23.4227C32.4539 23.7373 32.3289 24.039 32.1064 24.2615C31.8839 24.484 31.5822 24.609 31.2676 24.609C30.953 24.609 30.6512 24.484 30.4288 24.2615C30.2063 24.039 30.0813 23.7373 30.0813 23.4227Z" fill="white"/>
<path d="M32.2164 19.9068C31.9381 18.9614 30.5976 18.9614 30.3192 19.9068L30.2696 20.0753C30.2501 20.1413 30.2162 20.2021 30.1702 20.2533C30.1242 20.3044 30.0673 20.3447 30.0038 20.371C29.9402 20.3973 29.8716 20.4091 29.8029 20.4055C29.7342 20.4018 29.6672 20.3829 29.6067 20.35L29.4525 20.2654C28.5863 19.7943 27.6393 20.7419 28.111 21.6075L28.1949 21.7617C28.2278 21.8222 28.2468 21.8892 28.2505 21.9579C28.2541 22.0266 28.2423 22.0952 28.216 22.1588C28.1897 22.2224 28.1494 22.2792 28.0983 22.3252C28.0471 22.3712 27.9863 22.4052 27.9203 22.4246L27.7518 22.4742C26.8064 22.7526 26.8064 24.0931 27.7518 24.3714L27.9203 24.4211C27.9863 24.4405 28.0471 24.4745 28.0983 24.5205C28.1494 24.5665 28.1897 24.6233 28.216 24.6869C28.2423 24.7504 28.2541 24.8191 28.2505 24.8878C28.2468 24.9565 28.2278 25.0235 28.1949 25.0839L28.1104 25.2382C27.6393 26.1044 28.5863 27.0519 29.4525 26.5797L29.6067 26.4957C29.6672 26.4628 29.7342 26.4439 29.8029 26.4402C29.8716 26.4366 29.9402 26.4483 30.0038 26.4747C30.0673 26.501 30.1242 26.5412 30.1702 26.5924C30.2162 26.6436 30.2501 26.7044 30.2696 26.7704L30.3192 26.9389C30.5976 27.8843 31.9381 27.8843 32.2164 26.9389L32.2661 26.7704C32.2855 26.7044 32.3195 26.6436 32.3655 26.5924C32.4115 26.5412 32.4683 26.501 32.5319 26.4747C32.5954 26.4483 32.6641 26.4366 32.7328 26.4402C32.8015 26.4439 32.8685 26.4628 32.9289 26.4957L33.0831 26.5802C33.9493 27.0519 34.8969 26.1038 34.4247 25.2382L34.3407 25.0839C34.3078 25.0235 34.2888 24.9565 34.2852 24.8878C34.2816 24.8191 34.2933 24.7504 34.3197 24.6869C34.346 24.6233 34.3862 24.5665 34.4374 24.5205C34.4886 24.4745 34.5494 24.4405 34.6154 24.4211L34.7838 24.3714C35.7293 24.0931 35.7293 22.7526 34.7838 22.4742L34.6154 22.4246C34.5494 22.4052 34.4886 22.3712 34.4374 22.3252C34.3862 22.2792 34.346 22.2224 34.3197 22.1588C34.2933 22.0952 34.2816 22.0266 34.2852 21.9579C34.2888 21.8892 34.3078 21.8222 34.3407 21.7617L34.4252 21.6075C34.8969 20.7413 33.9488 19.7943 33.0831 20.266L32.9289 20.35C32.8685 20.3829 32.8015 20.4018 32.7328 20.4055C32.6641 20.4091 32.5954 20.3973 32.5319 20.371C32.4683 20.3447 32.4115 20.3044 32.3655 20.2533C32.3195 20.2021 32.2855 20.1413 32.2661 20.0753L32.2164 19.9068ZM30.8257 20.0563C30.9557 19.6153 31.58 19.6153 31.7099 20.0563L31.7596 20.2248C31.8013 20.3664 31.8742 20.4968 31.9729 20.6066C32.0716 20.7164 32.1936 20.8026 32.33 20.8591C32.4664 20.9156 32.6137 20.9408 32.7611 20.9329C32.9085 20.9251 33.0523 20.8843 33.1819 20.8137L33.3356 20.7292C33.7391 20.51 34.1807 20.951 33.961 21.3551L33.877 21.5093C33.8064 21.6389 33.7658 21.7827 33.758 21.9301C33.7502 22.0774 33.7755 22.2247 33.8321 22.361C33.8886 22.4973 33.9749 22.6193 34.0846 22.7179C34.1944 22.8166 34.3249 22.8894 34.4664 22.9311L34.6344 22.9808C35.0754 23.1107 35.0754 23.735 34.6344 23.8649L34.4659 23.9146C34.3243 23.9563 34.1938 24.0292 34.0841 24.1279C33.9743 24.2266 33.888 24.3486 33.8316 24.485C33.7751 24.6214 33.7499 24.7687 33.7577 24.9161C33.7656 25.0635 33.8063 25.2073 33.877 25.3369L33.9615 25.4906C34.1807 25.8941 33.7397 26.3357 33.3356 26.116L33.1819 26.032C33.0523 25.9614 32.9084 25.9206 32.761 25.9128C32.6136 25.905 32.4663 25.9303 32.3299 25.9868C32.1935 26.0433 32.0714 26.1296 31.9728 26.2395C31.8741 26.3493 31.8012 26.4798 31.7596 26.6214L31.7099 26.7894C31.58 27.2304 30.9557 27.2304 30.8257 26.7894L30.7761 26.6209C30.7343 26.4794 30.6615 26.349 30.5628 26.2393C30.4641 26.1296 30.3422 26.0433 30.2058 25.9869C30.0695 25.9304 29.9223 25.9052 29.7749 25.913C29.6276 25.9208 29.4839 25.9614 29.3543 26.032L29.2 26.1165C28.7965 26.3357 28.355 25.8947 28.5747 25.4906L28.6587 25.3369C28.7294 25.2073 28.7702 25.0635 28.7782 24.916C28.7861 24.7685 28.7609 24.6212 28.7044 24.4847C28.6479 24.3482 28.5616 24.2262 28.4518 24.1274C28.342 24.0287 28.2114 23.9558 28.0698 23.914L27.9013 23.8644C27.4603 23.7345 27.4603 23.1102 27.9013 22.9802L28.0698 22.9306C28.2112 22.8888 28.3415 22.8159 28.4512 22.7173C28.5608 22.6187 28.647 22.4968 28.7035 22.3605C28.7599 22.2243 28.7852 22.0771 28.7775 21.9298C28.7697 21.7825 28.7291 21.6389 28.6587 21.5093L28.5742 21.3551C28.355 20.9515 28.796 20.51 29.2 20.7297L29.3543 20.8137C29.4839 20.8842 29.6276 20.9249 29.7749 20.9327C29.9223 20.9405 30.0695 20.9153 30.2058 20.8588C30.3422 20.8023 30.4641 20.7161 30.5628 20.6064C30.6615 20.4967 30.7343 20.3663 30.7761 20.2248L30.8257 20.0563Z" fill="white"/>
<path fill-rule="evenodd" clip-rule="evenodd" d="M20.2817 45.3945H1.69014V53.0001H20.2817V45.3945ZM0 43.7043V54.6903H21.9718V43.7043H0Z" fill="white"/>
<path fill-rule="evenodd" clip-rule="evenodd" d="M58.3099 45.3945H39.7183V53.0001H58.3099V45.3945ZM38.0282 43.7043V54.6903H60V43.7043H38.0282Z" fill="white"/>
<path fill-rule="evenodd" clip-rule="evenodd" d="M18.5915 50.0422H10.1408V48.3521H18.5915V50.0422Z" fill="white"/>
<path fill-rule="evenodd" clip-rule="evenodd" d="M40.5634 50.4648H49.0141V48.7747H40.5634V50.4648Z" fill="white"/>
<path fill-rule="evenodd" clip-rule="evenodd" d="M54.0845 50.4648H56.6197V48.7747H54.0845V50.4648Z" fill="white"/>
<path fill-rule="evenodd" clip-rule="evenodd" d="M50.7042 50.4648H53.2394V48.7747H50.7042V50.4648Z" fill="white"/>
<path fill-rule="evenodd" clip-rule="evenodd" d="M31.6901 49.6196H29.1549V47.9294H31.6901V49.6196Z" fill="white"/>
</svg>
