<svg width="30" height="30" viewBox="0 0 30 30" fill="none" xmlns="http://www.w3.org/2000/svg">
<circle cx="15" cy="15" r="15" fill="#085BD8"/>
<path d="M22.5 18.8512V11.148C22.4994 11.0368 22.4695 10.9276 22.4132 10.8316C22.357 10.7356 22.2764 10.6561 22.1797 10.6012L15.3047 6.73398C15.2121 6.6805 15.107 6.65234 15 6.65234C14.893 6.65234 14.7879 6.6805 14.6953 6.73398L7.82031 10.6012C7.72356 10.6561 7.643 10.7356 7.58676 10.8316C7.53052 10.9276 7.5006 11.0368 7.5 11.148V18.8512C7.5006 18.9624 7.53052 19.0716 7.58676 19.1676C7.643 19.2636 7.72356 19.3431 7.82031 19.398L14.6953 23.2652C14.7879 23.3187 14.893 23.3469 15 23.3469C15.107 23.3469 15.2121 23.3187 15.3047 23.2652L22.1797 19.398C22.2764 19.3431 22.357 19.2636 22.4132 19.1676C22.4695 19.0716 22.4994 18.9624 22.5 18.8512V18.8512Z" stroke="white" stroke-width="1.5" stroke-linecap="round" stroke-linejoin="round"/>
<path d="M18.8281 16.9141V12.8516L11.25 8.67188" stroke="white" stroke-width="1.5" stroke-linecap="round" stroke-linejoin="round"/>
<path d="M22.4141 10.8281L15.0703 15L7.58594 10.8281" stroke="white" stroke-width="1.5" stroke-linecap="round" stroke-linejoin="round"/>
<path d="M15.0703 15L15 23.3438" stroke="white" stroke-width="1.5" stroke-linecap="round" stroke-linejoin="round"/>
</svg>
