<svg width="30" height="30" viewBox="0 0 30 30" fill="none" xmlns="http://www.w3.org/2000/svg">
<rect width="30" height="30" rx="15" fill="#085BD8"/>
<path d="M23.1002 18.9182C23.6951 17.6968 24.0029 16.3553 24 14.9966C23.9973 13.0134 23.3415 11.0863 22.1342 9.51356C20.9268 7.9408 19.2351 6.81001 17.3208 6.29613H17.2775C15.8738 5.92635 14.4015 5.90252 12.9866 6.22668C11.5717 6.55084 10.2565 7.21333 9.15345 8.15742L9.04098 8.2613C7.67137 9.47081 6.70253 11.0691 6.26349 12.8434C5.82445 14.6177 5.93605 16.4837 6.58343 18.1929C7.2308 19.9021 8.38322 21.3734 9.88721 22.4108C11.3912 23.4483 13.1754 24.0026 15.0021 24H15.2097C16.8435 23.9596 18.4357 23.476 19.8162 22.6008C21.1968 21.7256 22.3139 20.4917 23.0483 19.0308L23.1002 18.9182ZM22.6157 14.9966C22.6141 15.9035 22.453 16.8032 22.1398 17.6543L18.1254 15.187C17.9598 15.0829 17.774 15.015 17.5803 14.9879L15.6077 14.7282C15.3543 14.6954 15.0968 14.733 14.8634 14.8368C14.6299 14.9406 14.4295 15.1067 14.284 15.3169H13.5399L13.2112 14.633C13.1191 14.4441 12.9857 14.2784 12.821 14.148C12.6563 14.0176 12.4643 13.926 12.2595 13.8798L11.6884 13.7586L11.9047 13.2478C11.9586 13.1224 12.0479 13.0155 12.1616 12.9402C12.2753 12.8648 12.4086 12.8243 12.545 12.8236H13.9379C14.171 12.8226 14.4 12.763 14.6041 12.6505L15.6596 12.0618C15.7528 12.0113 15.8399 11.9503 15.9192 11.88L18.2465 9.76765C18.4491 9.58991 18.5943 9.35591 18.6636 9.09539C18.733 8.83486 18.7233 8.5596 18.6359 8.30459C19.8394 8.95869 20.8444 9.92557 21.5448 11.1033C22.2453 12.2811 22.6152 13.6261 22.6157 14.9966ZM7.38848 14.9966C7.38651 13.802 7.66822 12.624 8.2104 11.5597L9.11019 13.975C9.19248 14.1914 9.32732 14.3838 9.50253 14.5349C9.67775 14.6861 9.88783 14.7912 10.1138 14.8407L10.5897 14.9446H10.5983L11.6365 15.1697C11.7393 15.1905 11.8358 15.235 11.9184 15.2996C12.001 15.3642 12.0674 15.4472 12.1124 15.542L12.2941 15.9229C12.4085 16.156 12.5859 16.3525 12.806 16.4902C13.0261 16.6278 13.2803 16.7012 13.5399 16.702H13.6437L12.9776 18.191C12.865 18.4381 12.8279 18.7128 12.871 18.9809C12.9141 19.2489 13.0355 19.4982 13.2198 19.6974L14.6128 21.2037C14.6845 21.284 14.7373 21.3793 14.7672 21.4827C14.7972 21.5861 14.8035 21.6949 14.7858 21.8011L14.6301 22.6062C12.6782 22.5085 10.8384 21.6644 9.49072 20.2483C8.14305 18.8321 7.39048 16.9521 7.38848 14.9966Z" fill="white"/>
</svg>
