<svg width="27" height="26" viewBox="0 0 27 26" fill="none" xmlns="http://www.w3.org/2000/svg">
<path d="M25.7002 18.6623C26.5597 16.8987 27.0044 14.9618 27.0002 12.9999C26.9963 10.1363 26.0489 7.35386 24.3045 5.08297C22.5601 2.81208 20.1159 1.17934 17.3502 0.43735H17.2877C15.2597 -0.0965794 13.1325 -0.13099 11.0883 0.337064C9.0441 0.805119 7.14382 1.76169 5.55019 3.12485L5.38769 3.27485C3.40891 5.02125 2.00915 7.32906 1.37483 9.89091C0.740515 12.4528 0.901751 15.1471 1.83707 17.615C2.77238 20.0829 4.43738 22.2073 6.61031 23.7053C8.78325 25.2032 11.361 26.0036 14.0002 25.9998H14.3002C16.6607 25.9415 18.961 25.2432 20.9556 23.9796C22.9502 22.7159 24.5642 20.9342 25.6252 18.8249L25.7002 18.6623ZM25.0002 12.9999C24.9979 14.3094 24.7652 15.6084 24.3127 16.8373L18.5127 13.2748C18.2735 13.1245 18.0051 13.0265 17.7252 12.9874L14.8752 12.6124C14.5091 12.565 14.1371 12.6193 13.7998 12.7692C13.4624 12.9191 13.1729 13.1589 12.9627 13.4623H11.8877L11.4127 12.4749C11.2796 12.2021 11.087 11.9628 10.849 11.7746C10.611 11.5864 10.3337 11.454 10.0377 11.3874L9.21269 11.2123L9.52519 10.4749C9.60304 10.2938 9.73203 10.1394 9.89634 10.0306C10.0606 9.92184 10.2531 9.86335 10.4502 9.86235H12.4627C12.7994 9.86084 13.1303 9.77489 13.4252 9.61235L14.9502 8.76235C15.0848 8.6894 15.2106 8.60133 15.3252 8.49985L18.6877 5.44985C18.9804 5.19322 19.1902 4.85534 19.2903 4.47917C19.3905 4.10301 19.3765 3.70555 19.2502 3.33735C20.9891 4.28181 22.4411 5.67787 23.4531 7.37841C24.465 9.07895 24.9995 11.021 25.0002 12.9999ZM3.00019 12.9999C2.99734 11.275 3.40435 9.5741 4.18769 8.03735L5.48769 11.5248C5.60658 11.8372 5.80139 12.1151 6.05454 12.3333C6.30769 12.5515 6.61121 12.7033 6.93769 12.7748L7.62519 12.9249H7.63769L9.13769 13.2499C9.28617 13.2799 9.4256 13.3441 9.54494 13.4374C9.66427 13.5307 9.76023 13.6505 9.82519 13.7874L10.0877 14.3373C10.2531 14.674 10.5093 14.9577 10.8273 15.1565C11.1454 15.3552 11.5126 15.4612 11.8877 15.4623H12.0377L11.0752 17.6123C10.9125 17.969 10.859 18.3658 10.9213 18.7528C10.9836 19.1398 11.1589 19.4997 11.4252 19.7873L13.4377 21.9623C13.5413 22.0782 13.6176 22.2159 13.6608 22.3652C13.7041 22.5144 13.7133 22.6715 13.6877 22.8249L13.4627 23.9873C10.6427 23.8463 7.98456 22.6275 6.03747 20.5827C4.09038 18.5379 3.00308 15.8234 3.00019 12.9999Z" fill="url(#paint0_linear_884_2282)"/>
<defs>
<linearGradient id="paint0_linear_884_2282" x1="0.994141" y1="13.0048" x2="27.599" y2="13.0048" gradientUnits="userSpaceOnUse">
<stop stop-color="#432BDA"/>
<stop offset="1" stop-color="#086AD8"/>
</linearGradient>
</defs>
</svg>
