<svg width="35" height="37" viewBox="0 0 35 37" fill="none" xmlns="http://www.w3.org/2000/svg">
<g filter="url(#filter0_d_884_2280)">
<path d="M29.7002 21.6623C30.5597 19.8987 31.0044 17.9618 31.0002 15.9999C30.9963 13.1363 30.0489 10.3539 28.3045 8.08297C26.5601 5.81208 24.1159 4.17934 21.3502 3.43735H21.2877C19.2597 2.90342 17.1325 2.86901 15.0883 3.33706C13.0441 3.80512 11.1438 4.76169 9.55019 6.12485L9.38769 6.27485C7.40891 8.02125 6.00915 10.3291 5.37483 12.8909C4.74051 15.4528 4.90175 18.1471 5.83707 20.615C6.77238 23.0829 8.43738 25.2073 10.6103 26.7053C12.7832 28.2032 15.361 29.0036 18.0002 28.9998H18.3002C20.6607 28.9415 22.961 28.2432 24.9556 26.9796C26.9502 25.7159 28.5642 23.9342 29.6252 21.8249V21.8249L29.7002 21.6623ZM29.0002 15.9999C28.9979 17.3094 28.7652 18.6084 28.3127 19.8373L22.5127 16.2748C22.2735 16.1245 22.0051 16.0265 21.7252 15.9874L18.8752 15.6124C18.5091 15.565 18.1371 15.6193 17.7998 15.7692C17.4624 15.9191 17.1729 16.1589 16.9627 16.4623H15.8877L15.4127 15.4749C15.2796 15.2021 15.087 14.9628 14.849 14.7746C14.611 14.5864 14.3337 14.454 14.0377 14.3874L13.2127 14.2123L13.5252 13.4749C13.603 13.2938 13.732 13.1394 13.8963 13.0306C14.0606 12.9218 14.2531 12.8634 14.4502 12.8624H16.4627C16.7994 12.8608 17.1303 12.7749 17.4252 12.6124L18.9502 11.7624C19.0848 11.6894 19.2106 11.6013 19.3252 11.4999L22.6877 8.44985C22.9804 8.19322 23.1902 7.85534 23.2903 7.47917C23.3905 7.10301 23.3765 6.70555 23.2502 6.33735C24.9891 7.28181 26.4411 8.67787 27.4531 10.3784C28.465 12.0789 28.9995 14.021 29.0002 15.9999ZM7.00019 15.9999C6.99734 14.275 7.40435 12.5741 8.18769 11.0374L9.48769 14.5248C9.60658 14.8372 9.80139 15.1151 10.0545 15.3333C10.3077 15.5515 10.6112 15.7033 10.9377 15.7748L11.6252 15.9249H11.6377L13.1377 16.2499C13.2862 16.2799 13.4256 16.3441 13.5449 16.4374C13.6643 16.5307 13.7602 16.6505 13.8252 16.7874L14.0877 17.3373C14.2531 17.674 14.5093 17.9577 14.8273 18.1565C15.1454 18.3552 15.5126 18.4612 15.8877 18.4623H16.0377L15.0752 20.6123C14.9125 20.969 14.859 21.3658 14.9213 21.7528C14.9836 22.1398 15.1589 22.4997 15.4252 22.7873L17.4377 24.9623C17.5413 25.0782 17.6176 25.2159 17.6608 25.3652C17.7041 25.5144 17.7133 25.6715 17.6877 25.8249L17.4627 26.9873C14.6427 26.8463 11.9846 25.6275 10.0375 23.5827C8.09038 21.5379 7.00308 18.8234 7.00019 15.9999V15.9999Z" fill="url(#paint0_linear_884_2280)"/>
</g>
<defs>
<filter id="filter0_d_884_2280" x="-2" y="0" width="40" height="40" filterUnits="userSpaceOnUse" color-interpolation-filters="sRGB">
<feFlood flood-opacity="0" result="BackgroundImageFix"/>
<feColorMatrix in="SourceAlpha" type="matrix" values="0 0 0 0 0 0 0 0 0 0 0 0 0 0 0 0 0 0 127 0" result="hardAlpha"/>
<feOffset dy="4"/>
<feGaussianBlur stdDeviation="2"/>
<feComposite in2="hardAlpha" operator="out"/>
<feColorMatrix type="matrix" values="0 0 0 0 0 0 0 0 0 0 0 0 0 0 0 0 0 0 0.25 0"/>
<feBlend mode="normal" in2="BackgroundImageFix" result="effect1_dropShadow_884_2280"/>
<feBlend mode="normal" in="SourceGraphic" in2="effect1_dropShadow_884_2280" result="shape"/>
</filter>
<linearGradient id="paint0_linear_884_2280" x1="4.99414" y1="16.0048" x2="31.599" y2="16.0048" gradientUnits="userSpaceOnUse">
<stop stop-color="#432BDA"/>
<stop offset="1" stop-color="#086AD8"/>
</linearGradient>
</defs>
</svg>
