<svg width="375" height="427" viewBox="0 0 375 427" fill="none" xmlns="http://www.w3.org/2000/svg">
<g clip-path="url(#clip0_884_2817)">
<rect x="-1" y="0.775879" width="378" height="426" rx="10" fill="#085BD8"/>
<g opacity="0.4">
<path fill-rule="evenodd" clip-rule="evenodd" d="M1933.46 -727.275C2241.9 120.168 1962.84 -646.567 2271.28 200.877C2579.72 1048.32 2451.39 1323.53 1603.95 1631.98C756.505 1940.42 1523.24 1661.35 675.796 1969.8C-171.647 2278.24 -446.858 2149.91 -755.303 1302.46C-1063.75 455.02 -784.678 1221.75 -1093.12 374.311C-1401.57 -473.132 -1273.23 -748.344 -425.79 -1056.79C421.653 -1365.23 29.1381 -1222.37 502.362 -1394.61C1349.81 -1703.05 1625.02 -1574.72 1933.46 -727.275Z" stroke="white" stroke-opacity="0.33" stroke-width="2.61558"/>
<path fill-rule="evenodd" clip-rule="evenodd" d="M1589.89 -615.094C1894.84 38.8805 1618.93 -552.81 1923.89 101.164C2228.84 755.138 2145.74 983.454 1491.77 1288.41C837.792 1593.36 1429.48 1317.45 775.508 1622.4C121.534 1927.36 -106.782 1844.26 -411.735 1190.28C-716.688 536.308 -440.778 1128 -745.731 474.025C-1050.68 -179.949 -967.584 -408.265 -313.61 -713.219C340.364 -1018.17 37.4591 -876.925 402.647 -1047.21C1056.62 -1352.17 1284.94 -1269.07 1589.89 -615.094Z" stroke="white" stroke-opacity="0.33" stroke-width="2.61558"/>
<path fill-rule="evenodd" clip-rule="evenodd" d="M1323.89 -501.749C1612.58 -1.72311 1351.38 -454.128 1640.08 45.8984C1928.77 545.925 1878.45 733.714 1378.42 1022.4C878.395 1311.1 1330.8 1049.9 830.773 1338.59C330.747 1627.28 142.957 1576.96 -145.733 1076.94C-434.423 576.909 -173.227 1029.31 -461.918 529.287C-750.608 29.2611 -700.29 -158.529 -200.264 -447.219C299.763 -735.909 68.1626 -602.195 347.384 -763.403C847.41 -1052.09 1035.2 -1001.78 1323.89 -501.749Z" stroke="white" stroke-opacity="0.33" stroke-width="2.61558"/>
<path fill-rule="evenodd" clip-rule="evenodd" d="M478.763 109.22C534.852 165.309 484.105 114.562 540.194 170.651C596.283 226.74 596.283 253.449 540.194 309.539C484.105 365.628 534.852 314.88 478.763 370.97C422.673 427.059 395.964 427.059 339.875 370.97C283.786 314.88 334.533 365.628 278.444 309.539C222.355 253.449 222.355 226.74 278.444 170.651C334.533 114.562 308.554 140.541 339.875 109.22C395.964 53.1305 422.673 53.1305 478.763 109.22Z" stroke="white" stroke-opacity="0.33"/>
<path fill-rule="evenodd" clip-rule="evenodd" d="M455.492 131.058C504.055 171.808 460.117 134.939 508.68 175.689C557.244 216.438 559.104 237.703 518.355 286.267C477.605 334.831 514.474 290.892 473.724 339.456C432.974 388.019 411.709 389.88 363.146 349.13C314.582 308.38 358.521 345.249 309.957 304.499C261.393 263.75 259.533 242.485 300.283 193.921C341.032 145.357 322.158 167.851 344.913 140.732C385.663 92.1687 406.928 90.3083 455.492 131.058Z" stroke="white" stroke-opacity="0.33"/>
<path fill-rule="evenodd" clip-rule="evenodd" d="M438.532 149.923C480.102 179.031 442.491 152.695 484.061 181.803C525.631 210.91 528.598 227.738 499.49 269.308C470.383 310.878 496.718 273.267 467.611 314.837C438.503 356.407 421.675 359.374 380.105 330.267C338.535 301.159 376.146 327.495 334.576 298.387C293.007 269.28 290.039 252.452 319.147 210.882C348.254 169.312 334.772 188.566 351.027 165.353C380.134 123.783 396.962 120.816 438.532 149.923Z" stroke="white" stroke-opacity="0.33"/>
<path fill-rule="evenodd" clip-rule="evenodd" d="M426.313 166.194C461.472 186.493 429.662 168.127 464.821 188.426C499.979 208.725 503.518 221.93 483.219 257.088C462.92 292.247 481.285 260.437 460.986 295.596C440.687 330.755 427.483 334.293 392.324 313.994C357.165 293.695 388.976 312.061 353.817 291.762C318.658 271.463 315.12 258.258 335.419 223.099C355.718 187.941 346.316 204.225 357.651 184.592C377.95 149.433 391.154 145.895 426.313 166.194Z" stroke="white" stroke-opacity="0.33"/>
<path fill-rule="evenodd" clip-rule="evenodd" d="M417.71 180.014C447.145 193.74 420.513 181.321 449.949 195.047C479.384 208.773 483.124 219.05 469.399 248.485C455.673 277.921 468.091 251.289 454.365 280.724C440.639 310.159 430.363 313.9 400.927 300.174C371.492 286.448 398.124 298.866 368.689 285.141C339.253 271.415 335.513 261.138 349.239 231.703C362.965 202.267 356.607 215.901 364.272 199.464C377.998 170.028 388.275 166.288 417.71 180.014Z" stroke="white" stroke-opacity="0.33"/>
<path fill-rule="evenodd" clip-rule="evenodd" d="M598.36 107.551C689.06 140.563 606.998 110.695 697.698 143.707C788.398 176.719 802.133 206.174 769.121 296.874C736.109 387.574 765.977 305.512 732.965 396.212C699.953 486.912 670.497 500.648 579.797 467.635C489.097 434.623 571.159 464.491 480.459 431.479C389.759 398.467 376.024 369.012 409.036 278.312C442.048 187.612 426.758 229.622 445.192 178.974C478.204 88.2742 507.66 74.539 598.36 107.551Z" stroke="white" stroke-opacity="0.33" stroke-width="2.61558"/>
</g>
</g>
<defs>
<clipPath id="clip0_884_2817">
<rect x="-1" y="0.775879" width="378" height="426" rx="10" fill="white"/>
</clipPath>
</defs>
</svg>
