<svg width="375" height="404" viewBox="0 0 375 404" fill="none" xmlns="http://www.w3.org/2000/svg">
<g clip-path="url(#clip0_884_2984)">
<rect width="377" height="403" transform="translate(-0.5 0.527344)" fill="#F2F8FE"/>
<path fill-rule="evenodd" clip-rule="evenodd" d="M285.092 1.83682C284.167 1.70232 283.271 1.59864 282.413 1.52365L282.587 -0.46875C283.484 -0.390373 284.418 -0.282241 285.38 -0.142369L285.092 1.83682ZM295.573 4.50688C293.848 3.86436 292.111 3.33123 290.407 2.89791L290.9 0.959557C292.669 1.40929 294.475 1.96339 296.271 2.63273L295.573 4.50688ZM305.077 9.50351C303.633 8.45267 302.097 7.51716 300.506 6.68924L301.43 4.91519C303.099 5.78415 304.721 6.77111 306.254 7.88643L305.077 9.50351ZM312.305 17.2145C311.387 15.6867 310.304 14.2876 309.093 13.0089L310.545 11.6335C311.848 13.0092 313.021 14.5229 314.019 16.1841L312.305 17.2145ZM315.508 27.2135C315.344 25.3591 314.991 23.6304 314.478 22.0194L316.384 21.4131C316.942 23.1663 317.324 25.0393 317.5 27.037L315.508 27.2135ZM314.558 37.8234C315.012 35.9707 315.311 34.2091 315.471 32.535L317.462 32.7254C317.292 34.5021 316.976 36.3591 316.501 38.2993L314.558 37.8234ZM311.962 45.5309C312.325 44.6696 312.659 43.8244 312.965 42.9951L314.841 43.6861C314.525 44.5457 314.179 45.4198 313.804 46.3088C313.427 47.2009 313.055 48.0877 312.686 48.9693L310.841 48.1979C311.21 47.3138 311.584 46.4247 311.962 45.5309ZM306.514 58.913C307.196 57.141 307.907 55.3471 308.643 53.5317L310.496 54.2825C309.764 56.0892 309.057 57.8721 308.381 59.6311L306.514 58.913ZM302.651 69.834C303.222 68.0255 303.842 66.191 304.504 64.3314L306.388 65.0017C305.734 66.8421 305.121 68.6538 304.558 70.4367L302.651 69.834ZM299.723 81.0812C300.084 79.2222 300.523 77.3321 301.029 75.4117L302.963 75.921C302.467 77.8045 302.038 79.6518 301.686 81.4628L299.723 81.0812ZM298.563 92.7398C298.54 90.8221 298.64 88.8653 298.848 86.8708L300.837 87.0783C300.636 89.0043 300.541 90.8834 300.563 92.7157L298.563 92.7398ZM300.495 104.371C299.846 102.504 299.371 100.586 299.055 98.6219L301.029 98.3038C301.328 100.16 301.775 101.963 302.384 103.714L300.495 104.371ZM306.353 114.628C305.044 113.061 303.917 111.442 302.959 109.773L304.693 108.777C305.592 110.343 306.652 111.866 307.888 113.346L306.353 114.628ZM315.104 122.482C313.416 121.31 311.873 120.1 310.468 118.852L311.797 117.357C313.138 118.549 314.617 119.71 316.244 120.839L315.104 122.482ZM325.276 128.252C323.427 127.386 321.689 126.493 320.057 125.574L321.039 123.831C322.624 124.724 324.318 125.594 326.124 126.441L325.276 128.252ZM336.03 132.563C334.134 131.91 332.322 131.239 330.592 130.549L331.333 128.691C333.032 129.369 334.813 130.029 336.681 130.672L336.03 132.563ZM344.375 135.161C343.416 134.891 342.474 134.616 341.55 134.339L342.126 132.423C343.038 132.698 343.969 132.969 344.918 133.236C345.879 133.506 346.835 133.77 347.788 134.028L347.266 135.959C346.307 135.699 345.343 135.434 344.375 135.161ZM358.846 138.831C356.932 138.397 354.997 137.939 353.043 137.455L353.524 135.514C355.465 135.995 357.386 136.45 359.288 136.88L358.846 138.831ZM370.533 141.235C368.605 140.877 366.65 140.495 364.672 140.088L365.075 138.129C367.04 138.534 368.982 138.912 370.899 139.269L370.533 141.235ZM382.306 143.202C380.373 142.913 378.409 142.604 376.415 142.271L376.744 140.299C378.727 140.629 380.679 140.937 382.601 141.224L382.306 143.202ZM394.128 144.777C392.191 144.548 390.214 144.301 388.197 144.032L388.461 142.05C390.467 142.317 392.435 142.562 394.363 142.791L394.128 144.777ZM405.978 146.038C404.053 145.852 402.075 145.655 400.046 145.439L400.256 143.451C402.278 143.665 404.25 143.862 406.17 144.047L405.978 146.038ZM415.156 146.882C414.09 146.786 413.001 146.688 411.895 146.588L412.075 144.596C413.183 144.697 414.266 144.794 415.329 144.889C416.237 144.97 417.13 145.05 418.011 145.13L417.831 147.122C416.958 147.043 416.065 146.963 415.156 146.882ZM429.636 148.319C427.793 148.092 425.829 147.882 423.747 147.676L423.944 145.686C426.035 145.893 428.016 146.105 429.88 146.334L429.636 148.319ZM441.121 150.501C439.499 149.989 437.607 149.554 435.453 149.171L435.803 147.202C438.01 147.594 439.992 148.047 441.723 148.594L441.121 150.501ZM447.588 154.937C447.263 154.213 446.759 153.558 446.056 152.959L447.353 151.437C448.25 152.201 448.95 153.088 449.413 154.118L447.588 154.937Z" fill="#085BD8"/>
<path opacity="0.8" fill-rule="evenodd" clip-rule="evenodd" d="M11.1414 283.669C9.14016 283.544 7.1937 283.501 5.30863 283.543L5.2638 281.544C7.20978 281.5 9.21303 281.544 11.2664 281.673L11.1414 283.669ZM-0.487996 283.97C-1.44995 284.094 -2.39077 284.246 -3.30943 284.424L-3.69043 282.461C-2.72881 282.274 -1.74656 282.116 -0.744948 281.986L-0.487996 283.97ZM22.7475 285.189C20.7839 284.81 18.8538 284.495 16.9622 284.243L17.2255 282.261C19.1579 282.517 21.1264 282.84 23.126 283.225L22.7475 285.189ZM34.172 287.979C32.2551 287.419 30.3585 286.908 28.4861 286.448L28.9625 284.506C30.8647 284.973 32.7897 285.491 34.7335 286.06L34.172 287.979ZM45.3246 291.716C43.4714 291.019 41.6289 290.363 39.8006 289.749L40.4373 287.853C42.2888 288.475 44.1536 289.139 46.0283 289.844L45.3246 291.716ZM56.2055 296.216C54.3967 295.401 52.5919 294.621 50.794 293.876L51.5589 292.028C53.3762 292.781 55.1999 293.569 57.0269 294.392L56.2055 296.216ZM66.8078 301.366C65.0573 300.454 63.3052 299.572 61.5539 298.72L62.4283 296.922C64.1965 297.781 65.9652 298.672 67.7319 299.592L66.8078 301.366ZM77.1131 307.093C75.4128 306.088 73.7058 305.11 71.9945 304.158L72.9662 302.41C74.6929 303.37 76.4152 304.357 78.1306 305.371L77.1131 307.093ZM87.1014 313.352C85.4616 312.264 83.8106 311.199 82.1505 310.159L83.2126 308.464C84.8872 309.514 86.5528 310.588 88.207 311.685L87.1014 313.352ZM96.7531 320.124C95.1748 318.953 93.5804 317.803 91.9725 316.675L93.1211 315.038C94.7434 316.176 96.3519 317.336 97.9445 318.517L96.7531 320.124ZM106.029 327.4C104.519 326.147 102.989 324.913 101.44 323.698L102.674 322.125C104.237 323.351 105.782 324.596 107.306 325.861L106.029 327.4ZM114.871 335.181C113.441 333.846 111.985 332.527 110.506 331.225L111.827 329.724C113.321 331.038 114.791 332.37 116.236 333.72L114.871 335.181ZM123.218 343.493C121.882 342.071 120.514 340.664 119.115 339.273L120.526 337.855C121.94 339.261 123.324 340.685 124.676 342.123L123.218 343.493ZM130.961 352.349C129.734 350.833 128.467 349.33 127.164 347.841L128.669 346.524C129.989 348.032 131.272 349.555 132.516 351.091L130.961 352.349ZM137.965 361.788C136.88 360.18 135.747 358.583 134.569 356.998L136.175 355.806C137.37 357.414 138.52 359.035 139.623 360.669L137.965 361.788ZM144.028 371.824C143.117 370.114 142.147 368.412 141.123 366.72L142.833 365.684C143.876 367.406 144.864 369.14 145.793 370.883L144.028 371.824ZM148.889 382.482C148.206 380.677 147.452 378.876 146.632 377.082L148.451 376.25C149.289 378.083 150.06 379.925 150.76 381.774L148.889 382.482ZM152.179 393.669C151.787 391.783 151.311 389.898 150.755 388.016L152.673 387.449C153.244 389.382 153.734 391.32 154.137 393.262L152.179 393.669ZM153.492 405.226C153.46 403.292 153.331 401.355 153.108 399.417L155.095 399.188C155.325 401.189 155.459 403.191 155.492 405.193L153.492 405.226ZM152.477 416.782C152.852 414.873 153.122 412.956 153.289 411.036L155.282 411.21C155.108 413.201 154.829 415.188 154.439 417.168L152.477 416.782ZM150.11 425.18C150.452 424.257 150.766 423.332 151.054 422.405L152.964 422.999C152.666 423.96 152.34 424.918 151.986 425.874L150.11 425.18Z" fill="#085BD8"/>
</g>
<defs>
<clipPath id="clip0_884_2984">
<rect width="377" height="403" fill="white" transform="translate(-0.5 0.527344)"/>
</clipPath>
</defs>
</svg>
