<svg width="1400" height="391" viewBox="0 0 1400 391" fill="none" xmlns="http://www.w3.org/2000/svg">
<g clip-path="url(#clip0_884_2538)">
<rect width="1400" height="391" fill="#085BD8"/>
<g opacity="0.4">
<path fill-rule="evenodd" clip-rule="evenodd" d="M2597.46 -728.05C2905.9 119.393 2626.84 -647.341 2935.28 200.102C3243.72 1047.55 3115.39 1322.76 2267.95 1631.2C1420.51 1939.64 2187.24 1660.58 1339.8 1969.02C492.353 2277.46 217.142 2149.13 -91.3026 1301.69C-399.747 454.245 -120.678 1220.98 -429.122 373.536C-737.566 -473.907 -609.233 -749.119 238.21 -1057.56C1085.65 -1366.01 693.138 -1223.14 1166.36 -1395.38C2013.81 -1703.83 2289.02 -1575.49 2597.46 -728.05Z" stroke="white" stroke-opacity="0.33" stroke-width="2.61558"/>
<path fill-rule="evenodd" clip-rule="evenodd" d="M2253.89 -615.868C2558.84 38.1056 2282.93 -553.585 2587.89 100.389C2892.84 754.363 2809.74 982.679 2155.77 1287.63C1501.79 1592.59 2093.48 1316.68 1439.51 1621.63C785.534 1926.58 557.218 1843.48 252.265 1189.51C-52.6881 535.533 223.222 1127.22 -81.7312 473.25C-386.684 -180.724 -303.584 -409.04 350.39 -713.993C1004.36 -1018.95 701.459 -877.7 1066.65 -1047.99C1720.62 -1352.94 1948.94 -1269.84 2253.89 -615.868Z" stroke="white" stroke-opacity="0.33" stroke-width="2.61558"/>
<path fill-rule="evenodd" clip-rule="evenodd" d="M1987.89 -502.525C2276.58 -2.49899 2015.38 -454.904 2304.08 45.1225C2592.77 545.149 2542.45 732.939 2042.42 1021.63C1542.39 1310.32 1994.8 1049.12 1494.77 1337.81C994.747 1626.5 806.957 1576.19 518.267 1076.16C229.577 576.133 490.773 1028.54 202.082 528.512C-86.608 28.4853 -36.29 -159.304 463.736 -447.995C963.763 -736.685 732.163 -602.971 1011.38 -764.179C1511.41 -1052.87 1699.2 -1002.55 1987.89 -502.525Z" stroke="white" stroke-opacity="0.33" stroke-width="2.61558"/>
<path fill-rule="evenodd" clip-rule="evenodd" d="M1511.67 -200.529C1720.53 8.33445 1531.56 -180.637 1740.43 28.2262C1949.29 237.089 1949.29 336.548 1740.43 545.411C1531.56 754.274 1720.53 565.303 1511.67 774.166C1302.81 983.029 1203.35 983.029 994.487 774.166C785.623 565.303 974.595 754.274 765.732 545.411C556.869 336.548 556.869 237.089 765.732 28.2262C974.595 -180.637 877.855 -83.8966 994.487 -200.529C1203.35 -409.392 1302.81 -409.392 1511.67 -200.529Z" stroke="white" stroke-opacity="0.33" stroke-width="2.61558"/>
<path fill-rule="evenodd" clip-rule="evenodd" d="M1425.02 -119.207C1605.85 32.5355 1442.24 -104.755 1623.08 46.9872C1803.92 198.729 1810.84 277.916 1659.1 458.755C1507.36 639.594 1644.65 475.978 1492.91 656.817C1341.17 837.656 1261.98 844.584 1081.14 692.842C900.302 541.1 1063.92 678.39 883.079 526.648C702.239 374.906 695.312 295.72 847.054 114.88C998.796 -65.959 928.513 17.8015 1013.25 -83.1818C1164.99 -264.021 1244.18 -270.949 1425.02 -119.207Z" stroke="white" stroke-opacity="0.33" stroke-width="2.61558"/>
<path fill-rule="evenodd" clip-rule="evenodd" d="M1361.86 -48.9596C1516.66 59.4301 1376.6 -38.6367 1531.4 69.7529C1686.2 178.143 1697.25 240.806 1588.86 395.602C1480.47 550.399 1578.53 410.345 1470.14 565.141C1361.76 719.938 1299.09 730.987 1144.3 622.597C989.499 514.208 1129.55 612.274 974.756 503.885C819.96 395.495 808.911 332.832 917.3 178.035C1025.69 23.239 975.487 94.9369 1036.01 8.49647C1144.4 -146.3 1207.07 -157.349 1361.86 -48.9596Z" stroke="white" stroke-opacity="0.33" stroke-width="2.61558"/>
<path fill-rule="evenodd" clip-rule="evenodd" d="M1316.36 11.6328C1447.29 87.2214 1328.83 18.8317 1459.75 94.4203C1590.68 170.009 1603.85 219.178 1528.26 350.102C1452.68 481.025 1521.07 362.571 1445.48 493.494C1369.89 624.417 1320.72 637.592 1189.8 562.004C1058.87 486.415 1177.33 554.805 1046.4 479.216C915.479 403.628 902.305 354.458 977.893 223.535C1053.48 92.6113 1018.47 153.252 1060.68 80.1424C1136.27 -50.7809 1185.44 -63.9558 1316.36 11.6328Z" stroke="white" stroke-opacity="0.33" stroke-width="2.61558"/>
<path fill-rule="evenodd" clip-rule="evenodd" d="M1284.33 63.0962C1393.94 114.208 1294.76 67.9641 1404.38 119.076C1513.99 170.188 1527.91 208.456 1476.8 318.066C1425.69 427.677 1471.93 328.505 1420.82 438.116C1369.71 547.726 1331.44 561.655 1221.83 510.542C1112.22 459.43 1211.39 505.674 1101.78 454.562C992.171 403.45 978.243 365.183 1029.36 255.572C1080.47 145.962 1056.79 196.731 1085.34 135.523C1136.45 25.9122 1174.71 11.984 1284.33 63.0962Z" stroke="white" stroke-opacity="0.33" stroke-width="2.61558"/>
<path fill-rule="evenodd" clip-rule="evenodd" d="M1262.36 106.774C1353.06 139.787 1271 109.918 1361.7 142.931C1452.4 175.943 1466.13 205.398 1433.12 296.098C1400.11 386.798 1429.98 304.736 1396.96 395.436C1363.95 486.136 1334.5 499.871 1243.8 466.859C1153.1 433.847 1235.16 463.715 1144.46 430.703C1053.76 397.691 1040.02 368.235 1073.04 277.536C1106.05 186.836 1090.76 228.846 1109.19 178.198C1142.2 87.4976 1171.66 73.7624 1262.36 106.774Z" stroke="white" stroke-opacity="0.33" stroke-width="2.61558"/>
<path fill-rule="evenodd" clip-rule="evenodd" d="M1247.91 142.468C1322.61 162.484 1255.03 144.374 1329.73 164.39C1404.42 184.405 1417.44 206.956 1397.43 281.654C1377.41 356.352 1395.52 288.768 1375.51 363.466C1355.49 438.164 1332.94 451.183 1258.24 431.168C1183.54 411.153 1251.13 429.262 1176.43 409.247C1101.73 389.231 1088.71 366.681 1108.73 291.983C1128.74 217.285 1119.47 251.883 1130.65 210.171C1150.67 135.473 1173.22 122.453 1247.91 142.468Z" stroke="white" stroke-opacity="0.33" stroke-width="2.61558"/>
<path fill-rule="evenodd" clip-rule="evenodd" d="M1238.95 172.567C1299.65 183.27 1244.73 173.587 1305.43 184.289C1366.13 194.992 1378.03 211.992 1367.33 272.689C1356.63 333.387 1366.31 278.47 1355.61 339.167C1344.9 399.865 1327.9 411.768 1267.21 401.066C1206.51 390.363 1261.43 400.046 1200.73 389.344C1140.03 378.641 1128.13 361.641 1138.83 300.944C1149.53 240.246 1144.57 268.36 1150.55 234.466C1161.25 173.768 1178.25 161.865 1238.95 172.567Z" stroke="white" stroke-opacity="0.33" stroke-width="2.61558"/>
<path fill-rule="evenodd" clip-rule="evenodd" d="M1233.81 196.54C1283.04 200.848 1238.5 196.95 1287.73 201.258C1336.97 205.565 1347.67 218.314 1343.36 267.549C1339.05 316.784 1342.95 272.238 1338.64 321.473C1334.33 370.709 1321.58 381.406 1272.35 377.098C1223.11 372.791 1267.66 376.688 1218.42 372.38C1169.19 368.073 1158.49 355.325 1162.8 306.089C1167.11 256.854 1165.11 279.659 1167.52 252.165C1171.83 202.93 1184.57 192.233 1233.81 196.54Z" stroke="white" stroke-opacity="0.33" stroke-width="2.61558"/>
<path fill-rule="evenodd" clip-rule="evenodd" d="M1240.18 213C1274.24 213 1243.42 213 1277.49 213C1311.55 213 1319.66 222.414 1319.66 261.953C1319.66 301.491 1319.66 265.718 1319.66 305.257C1319.66 344.796 1311.55 354.209 1277.49 354.209C1243.42 354.209 1274.24 354.209 1240.18 354.209C1206.11 354.209 1198 344.796 1198 305.257C1198 265.718 1198 284.032 1198 261.953C1198 222.414 1206.11 213 1240.18 213Z" stroke="white" stroke-opacity="0.33" stroke-width="2.61558"/>
</g>
</g>
<defs>
<clipPath id="clip0_884_2538">
<rect width="1400" height="391" fill="white"/>
</clipPath>
</defs>
</svg>
