<svg width="30" height="30" viewBox="0 0 30 30" fill="none" xmlns="http://www.w3.org/2000/svg">
<circle cx="15" cy="15" r="15" fill="#085BD8"/>
<path d="M15.3384 20.5021L19.2151 22.9011C19.715 23.2085 20.3304 22.7512 20.1842 22.1889L19.0612 17.8857C19.0309 17.7664 19.0357 17.6412 19.0752 17.5245C19.1146 17.4077 19.1871 17.3043 19.2843 17.2259L22.761 14.3996C23.2148 14.0322 22.984 13.29 22.3918 13.2526L17.8536 12.9677C17.7298 12.9607 17.6108 12.9186 17.5111 12.8467C17.4113 12.7748 17.3353 12.6762 17.2921 12.5628L15.6 8.40954C15.5552 8.28952 15.4736 8.18583 15.3662 8.11257C15.2589 8.0393 15.131 8 15 8C14.869 8 14.7411 8.0393 14.6338 8.11257C14.5264 8.18583 14.4448 8.28952 14.4 8.40954L12.7079 12.5628C12.6647 12.6762 12.5887 12.7748 12.489 12.8467C12.3892 12.9186 12.2702 12.9607 12.1464 12.9677L7.60824 13.2526C7.01598 13.29 6.78523 14.0322 7.23904 14.3996L10.7157 17.2259C10.8129 17.3043 10.8854 17.4077 10.9248 17.5245C10.9643 17.6412 10.9691 17.7664 10.9388 17.8857L9.90038 21.874C9.72347 22.5488 10.4619 23.096 11.0541 22.7287L14.6616 20.5021C14.7627 20.4394 14.8801 20.4061 15 20.4061C15.1199 20.4061 15.2373 20.4394 15.3384 20.5021Z" stroke="white" stroke-width="1.5" stroke-linecap="round" stroke-linejoin="round"/>
</svg>
