<svg width="38" height="38" viewBox="0 0 38 38" fill="none" xmlns="http://www.w3.org/2000/svg">
<g filter="url(#filter0_dd_884_2392)">
<circle cx="19" cy="15" r="15" fill="#085BD8"/>
<path d="M19.3384 20.5021L23.2151 22.9011C23.715 23.2085 24.3304 22.7512 24.1842 22.1889L23.0612 17.8857C23.0309 17.7664 23.0357 17.6412 23.0752 17.5245C23.1146 17.4077 23.1871 17.3043 23.2843 17.2259L26.761 14.3996C27.2148 14.0322 26.984 13.29 26.3918 13.2526L21.8536 12.9677C21.7298 12.9607 21.6108 12.9186 21.5111 12.8467C21.4113 12.7748 21.3353 12.6762 21.2921 12.5628L19.6 8.40954C19.5552 8.28952 19.4736 8.18583 19.3662 8.11257C19.2589 8.0393 19.131 8 19 8C18.869 8 18.7411 8.0393 18.6338 8.11257C18.5264 8.18583 18.4448 8.28952 18.4 8.40954L16.7079 12.5628C16.6647 12.6762 16.5887 12.7748 16.489 12.8467C16.3892 12.9186 16.2702 12.9607 16.1464 12.9677L11.6082 13.2526C11.016 13.29 10.7852 14.0322 11.239 14.3996L14.7157 17.2259C14.8129 17.3043 14.8854 17.4077 14.9248 17.5245C14.9643 17.6412 14.9691 17.7664 14.9388 17.8857L13.9004 21.874C13.7235 22.5488 14.4619 23.096 15.0541 22.7287L18.6616 20.5021C18.7627 20.4394 18.8801 20.4061 19 20.4061C19.1199 20.4061 19.2373 20.4394 19.3384 20.5021Z" stroke="white" stroke-width="1.5" stroke-linecap="round" stroke-linejoin="round"/>
</g>
<defs>
<filter id="filter0_dd_884_2392" x="0" y="0" width="38" height="38" filterUnits="userSpaceOnUse" color-interpolation-filters="sRGB">
<feFlood flood-opacity="0" result="BackgroundImageFix"/>
<feColorMatrix in="SourceAlpha" type="matrix" values="0 0 0 0 0 0 0 0 0 0 0 0 0 0 0 0 0 0 127 0" result="hardAlpha"/>
<feOffset dy="4"/>
<feGaussianBlur stdDeviation="2"/>
<feComposite in2="hardAlpha" operator="out"/>
<feColorMatrix type="matrix" values="0 0 0 0 0 0 0 0 0 0 0 0 0 0 0 0 0 0 0.25 0"/>
<feBlend mode="normal" in2="BackgroundImageFix" result="effect1_dropShadow_884_2392"/>
<feColorMatrix in="SourceAlpha" type="matrix" values="0 0 0 0 0 0 0 0 0 0 0 0 0 0 0 0 0 0 127 0" result="hardAlpha"/>
<feOffset dy="4"/>
<feGaussianBlur stdDeviation="2"/>
<feComposite in2="hardAlpha" operator="out"/>
<feColorMatrix type="matrix" values="0 0 0 0 0 0 0 0 0 0 0 0 0 0 0 0 0 0 0.25 0"/>
<feBlend mode="normal" in2="effect1_dropShadow_884_2392" result="effect2_dropShadow_884_2392"/>
<feBlend mode="normal" in="SourceGraphic" in2="effect2_dropShadow_884_2392" result="shape"/>
</filter>
</defs>
</svg>
