<svg width="51" height="50" viewBox="0 0 51 50" fill="none" xmlns="http://www.w3.org/2000/svg">
<rect x="0.5" width="50" height="50" rx="4" fill="white"/>
<path d="M36.65 13.7499V13.75V36.25C36.65 36.4224 36.5815 36.5877 36.4596 36.7096C36.3377 36.8315 36.1724 36.9 36 36.9H31.5C31.3276 36.9 31.1623 36.8315 31.0404 36.7096C30.9185 36.5877 30.85 36.4224 30.85 36.25V34V33.9H30.75H29.25H29.15V34V36.25C29.15 36.4224 29.0815 36.5877 28.9596 36.7096C28.8377 36.8315 28.6724 36.9 28.5 36.9H15C14.8276 36.9 14.6623 36.8315 14.5404 36.7096C14.4185 36.5877 14.35 36.4224 14.35 36.25L14.35 27.25C14.35 27.25 14.35 27.25 14.35 27.25C14.3501 27.0961 14.4047 26.9473 14.5042 26.83C14.6037 26.7126 14.7416 26.6344 14.8934 26.6091L14.8934 26.6091L23.2664 25.2141L23.35 25.2002V25.1155V18.25C23.35 18.1178 23.3903 17.9887 23.4656 17.88C23.5408 17.7713 23.6474 17.6881 23.7712 17.6416L35.7711 13.1416C35.8694 13.1048 35.9751 13.0923 36.0792 13.1052C36.1833 13.1181 36.2828 13.156 36.3691 13.2157L36.3948 13.2335H36.395C36.4702 13.291 36.532 13.3643 36.576 13.4484C36.6246 13.5415 36.65 13.6449 36.65 13.7499ZM24.7149 18.6753L24.65 18.6997V18.769V25.7499C24.65 25.7499 24.65 25.75 24.65 25.75C24.6499 25.9038 24.5953 26.0526 24.4958 26.17C24.3963 26.2873 24.2584 26.3656 24.1066 26.3908L24.1066 26.3908L15.7336 27.7858L15.65 27.7998V27.8845V35.5V35.6H15.75H27.75H27.85V35.5V33.25C27.85 33.0776 27.9185 32.9123 28.0404 32.7904C28.1623 32.6685 28.3276 32.6 28.5 32.6H31.5C31.6724 32.6 31.8377 32.6685 31.9596 32.7904C32.0815 32.9123 32.15 33.0776 32.15 33.25V35.5V35.6H32.25H35.25H35.35V35.5V14.833V14.6887L35.2149 14.7393L24.7149 18.6753Z" fill="#086AD8" stroke="white" stroke-width="0.2"/>
<path d="M23.35 36.15V25.85H24.65V36.15H23.35Z" fill="#086AD8" stroke="white" stroke-width="0.2"/>
<path d="M17.25 29.5H18.75V31H17.25V29.5ZM20.25 29.5H21.75V31H20.25V29.5ZM17.25 32.5H18.75V34H17.25V32.5ZM20.25 32.5H21.75V34H20.25V32.5ZM29.25 17.5H30.75V19H29.25V17.5ZM32.25 17.5H33.75V19H32.25V17.5ZM26.25 20.5H27.75V22H26.25V20.5ZM29.25 20.5H30.75V22H29.25V20.5ZM32.25 20.5H33.75V22H32.25V20.5ZM29.25 23.5H30.75V25H29.25V23.5ZM32.25 23.5H33.75V25H32.25V23.5ZM26.25 23.5H27.75V25H26.25V23.5ZM26.25 26.5H27.75V28H26.25V26.5ZM29.25 26.5H30.75V28H29.25V26.5ZM32.25 26.5H33.75V28H32.25V26.5ZM26.25 29.5H27.75V31H26.25V29.5ZM29.25 29.5H30.75V31H29.25V29.5ZM32.25 29.5H33.75V31H32.25V29.5Z" fill="#086AD8"/>
</svg>
