<svg width="51" height="50" viewBox="0 0 51 50" fill="none" xmlns="http://www.w3.org/2000/svg">
<rect x="0.5" width="50" height="50" rx="4" fill="white"/>
<path fill-rule="evenodd" clip-rule="evenodd" d="M24.2282 11.5547C21.6576 11.7832 19.0018 12.8711 16.9598 14.5321C16.3596 15.0203 15.4093 15.9781 14.9306 16.5773C13.7201 18.0924 12.7282 20.1418 12.3169 21.9773C12.0585 23.1303 12 23.6908 12 25.0134C12 26.336 12.0585 26.8965 12.3169 28.0495C12.7372 29.9251 13.755 32.0037 15.0056 33.5408C15.494 34.141 16.4519 35.0912 17.0512 35.5698C18.5665 36.7801 20.6161 37.7719 22.4519 38.1832C23.605 38.4415 24.1656 38.5 25.4884 38.5C26.8112 38.5 27.3718 38.4415 28.5249 38.1832C29.9051 37.8739 31.7099 37.1028 32.8958 36.3156C34.9527 34.9502 36.5325 33.1538 37.6111 30.9536C38.4844 29.1719 38.9128 27.4771 38.9899 25.4976C39.1129 22.3431 38.1064 19.2554 36.1127 16.6708C35.6672 16.0934 34.4096 14.836 33.8321 14.3906C31.0423 12.2391 27.6843 11.2476 24.2282 11.5547ZM27.3367 12.6314C28.6281 12.8308 29.8204 13.2083 31.0069 13.7933C33.5351 15.04 35.4632 16.9678 36.71 19.4957C37.303 20.6979 37.6723 21.872 37.881 23.2182C38.0129 24.0686 38.0126 25.9622 37.8805 26.8068C37.4867 29.3242 36.4224 31.5697 34.7477 33.4164C32.8033 35.5607 30.2095 36.946 27.282 37.4038C26.4373 37.536 24.5435 37.5363 23.6929 37.4044C22.3466 37.1957 21.1723 36.8264 19.9699 36.2335C17.4416 34.9869 15.5136 33.0591 14.2668 30.5312C13.6738 29.3289 13.3045 28.1548 13.0958 26.8087C12.9642 25.9605 12.9642 24.0664 13.0958 23.2182C13.3045 21.872 13.6738 20.6979 14.2668 19.4957C15.5136 16.9678 17.4416 15.04 19.9699 13.7933C21.3944 13.091 22.7479 12.7106 24.4586 12.5321C24.9182 12.4841 26.8042 12.5492 27.3367 12.6314ZM21.0659 14.5266C20.7119 14.6429 20.3238 14.9202 20.0433 15.2573C19.6901 15.6816 19.6149 15.8461 19.5853 16.2596C19.5503 16.7488 19.7233 17.111 20.1319 17.4035C20.429 17.6162 21.0879 17.8544 21.5386 17.9121C21.7604 17.9404 21.8074 17.9715 21.9772 18.2028C22.5001 18.915 23.3716 19.2469 24.0841 19.0051L24.396 18.8992L24.7706 19.1846C25.2245 19.5304 25.7253 19.7987 26.1412 19.9188C26.5567 20.0388 27.1212 20.0093 27.4464 19.8507C27.7521 19.7014 28.1433 19.3289 28.2842 19.0527C28.4126 18.8013 28.4296 18.3368 28.3198 18.0815C28.16 17.7099 27.5809 17.3185 26.8975 17.12C26.7286 17.071 26.5827 17.0033 26.5733 16.9697C26.3016 15.9966 25.5546 15.4839 24.2474 15.3732C23.926 15.346 23.7857 15.3082 23.6609 15.2152C23.3414 14.9771 22.9225 14.7542 22.5575 14.628C22.0952 14.4681 21.3899 14.4202 21.0659 14.5266ZM22.165 15.5942C22.5471 15.7074 22.7585 15.8194 23.1601 16.1212C23.4924 16.371 23.5011 16.374 24.0036 16.4099C24.5735 16.4506 24.8995 16.5258 25.1715 16.6792C25.439 16.8302 25.5491 17.0094 25.5906 17.3618C25.6386 17.7686 25.7717 17.9137 26.1688 17.9919C26.8928 18.1347 27.3895 18.3684 27.3895 18.5663C27.3895 18.6655 27.2243 18.838 27.0365 18.9347C26.6256 19.1463 25.8694 18.8289 25.0398 18.0967C24.6175 17.7239 24.4363 17.6892 24.1062 17.918C23.6169 18.2571 23.1402 18.1009 22.7158 17.4626C22.5803 17.2589 22.4299 17.0715 22.3815 17.0461C22.3331 17.0207 22.1034 16.9744 21.871 16.943C21.3649 16.8748 20.9839 16.7643 20.7428 16.6159C20.586 16.5194 20.569 16.4874 20.5979 16.343C20.641 16.1272 20.9592 15.7444 21.202 15.6161C21.4407 15.4901 21.7873 15.4822 22.165 15.5942ZM24.378 20.5597C23.952 20.8441 23.6695 21.2549 23.3483 22.0565C23.2378 22.3324 23.1058 22.6029 23.0551 22.6576C22.966 22.7537 22.9569 22.7442 22.7875 22.3805C22.5825 21.9406 22.5604 21.9312 21.739 21.9338C20.9438 21.9362 20.3578 22.1765 19.7587 22.7458C19.3884 23.0976 19.3002 23.1325 18.8139 23.1202C18.4553 23.1112 18.4472 23.114 18.2594 23.3144C18.1546 23.4263 18.0004 23.6884 17.9169 23.8969C17.7273 24.3701 17.5453 24.5382 17.2224 24.5382C16.0959 24.5382 15.131 25.3166 14.9857 26.3426C14.9218 26.7945 14.9899 27.1761 15.2507 27.8264C15.6364 28.7883 15.7378 29.2079 15.849 30.3018C15.9256 31.0558 15.9807 31.2264 16.2288 31.477C16.8331 32.0875 17.9204 31.882 19.1929 30.9169C19.4627 30.7123 19.8407 30.3699 20.033 30.1559C20.4563 29.6849 20.7419 29.5264 21.083 29.5731C21.5168 29.6326 21.889 29.8954 22.2527 30.3992C23.0382 31.4871 24.9293 32.3442 25.9468 32.0734C26.3481 31.9666 26.7781 31.6893 27.2008 31.2648C28.2007 30.2603 28.6706 28.6875 28.3158 27.5322C28.1483 26.9869 27.9126 26.6421 27.2799 26.0166C26.942 25.6827 26.604 25.3144 26.5287 25.1982C26.3508 24.9239 26.1587 24.2435 26.0444 23.4822C25.8065 21.8994 25.745 21.5577 25.6488 21.284C25.5252 20.9322 25.3281 20.6599 25.1186 20.5516C24.9161 20.4469 24.5407 20.451 24.378 20.5597ZM24.7473 21.8388C24.7776 21.9513 24.8604 22.4562 24.9313 22.9608C25.2451 25.1954 25.399 25.5746 26.3868 26.5467C26.8304 26.9832 27.1061 27.3006 27.1962 27.4785C27.6465 28.3668 27.3767 29.5805 26.5272 30.4885C25.9285 31.1285 25.5918 31.2188 24.7755 30.9589C23.9912 30.7091 23.5646 30.3889 22.6783 29.3848C22.188 28.8296 21.4194 28.4997 20.797 28.5775C20.2638 28.644 19.9865 28.8128 19.2899 29.4946C18.4039 30.3616 17.6609 30.8216 17.1462 30.8216C16.9051 30.8216 16.901 30.8132 16.8541 30.2144C16.7813 29.2864 16.61 28.5772 16.2099 27.5479C16.038 27.1055 15.9729 26.8618 15.9701 26.6503C15.9616 26.0049 16.3891 25.6276 17.2269 25.5411C17.4696 25.5161 17.7766 25.4477 17.909 25.389C18.2303 25.247 18.6428 24.8159 18.7594 24.5002C18.8898 24.1475 18.9084 24.1315 19.2185 24.1058C19.6107 24.0732 20.0741 23.8455 20.3226 23.5632C20.6137 23.2325 21.1249 22.9889 21.5816 22.9631C21.9326 22.9432 21.9329 22.9433 22.0017 23.1092C22.1718 23.52 22.822 23.8519 23.2394 23.7412C23.5614 23.6557 23.9534 23.2298 24.1096 22.7958C24.2255 22.4736 24.6332 21.6341 24.6737 21.6341C24.6839 21.6341 24.717 21.7262 24.7473 21.8388ZM34.1563 28.0303C33.8553 28.1179 33.5822 28.3251 33.3495 28.6428C33.2268 28.8102 32.8986 29.1788 32.6201 29.4619L32.1136 29.9767H31.5694C31.0383 29.9767 31.0215 29.9804 30.8708 30.1311C30.7028 30.2991 30.6852 30.4689 30.7636 31.1648L30.7993 31.4816L30.309 31.989C29.8234 32.4915 29.7913 32.5497 29.8174 32.8808C29.8441 33.2212 30.1718 33.6792 30.5284 33.8747C30.7468 33.9944 31.6634 33.9953 31.931 33.876C32.4146 33.6605 34.0322 32.1419 34.625 31.3466C34.8079 31.1014 35.0532 30.6988 35.17 30.452C35.3514 30.069 35.3861 29.939 35.4062 29.5663C35.4243 29.2303 35.4079 29.0717 35.3351 28.8799C35.0785 28.2037 34.6421 27.8891 34.1563 28.0303ZM34.409 29.2771C34.5429 29.7796 34.1259 30.5116 33.1018 31.5715C32.5512 32.1413 31.7971 32.8117 31.5781 32.9262C31.4324 33.0023 31.0596 33.0042 30.9201 32.9296C30.822 32.8771 30.8529 32.8326 31.3256 32.3455L31.8373 31.8182L31.8002 31.3727L31.7631 30.9272H32.1032C32.3936 30.9272 32.4733 30.9052 32.6492 30.7767C32.9372 30.5664 33.804 29.6926 34.0567 29.358C34.1725 29.2046 34.2873 29.0791 34.3117 29.0791C34.3361 29.0791 34.3799 29.1683 34.409 29.2771ZM22.0953 32.217C21.5954 32.3954 21.2782 32.8462 21.2275 33.4507C21.1755 34.0714 21.4031 34.6071 21.8079 34.8164C22.0214 34.9268 22.5375 34.8872 22.83 34.7381C23.1225 34.5888 23.4797 34.2215 23.6392 33.9059C23.8317 33.5251 23.8522 32.8938 23.6829 32.5646C23.575 32.3551 23.5271 32.3172 23.2704 32.2378C22.9208 32.1298 22.3672 32.1199 22.0953 32.217ZM22.7747 33.3164C22.7335 33.5268 22.605 33.7053 22.4105 33.8221C22.2808 33.9 22.2575 33.9011 22.2133 33.8312C22.1076 33.6646 22.1814 33.2918 22.341 33.1852C22.373 33.1639 22.4912 33.1461 22.6037 33.1456C22.8064 33.1448 22.808 33.1465 22.7747 33.3164Z" fill="#086AD8"/>
</svg>
