<svg width="50" height="50" viewBox="0 0 50 50" fill="none" xmlns="http://www.w3.org/2000/svg">
<rect x="0.5" width="49" height="50" rx="4" fill="white"/>
<path fill-rule="evenodd" clip-rule="evenodd" d="M33.457 17.7546C32.1115 18.7734 31.093 19.5814 31.0525 19.6623C31.0022 19.7626 30.9981 19.8318 31.038 19.9045C31.0878 19.9954 31.0561 20.0209 30.7401 20.1444C30.2197 20.3477 29.7235 20.4184 29.2988 20.3498C29.1068 20.3186 28.4371 20.1297 27.8106 19.9298C26.7879 19.6034 26.6272 19.5663 26.2373 19.5663C25.8463 19.5663 25.7592 19.5865 25.3634 19.7696L24.9237 19.9729L24.5491 19.8589C24.0636 19.7112 23.8454 19.713 22.5732 19.8754C21.5954 20.0003 20.8258 20.0683 19.4655 20.1502L18.9364 20.182L18.987 20.0521C19.0148 19.9806 19.0244 19.8726 19.0082 19.8121C18.9907 19.7468 18.0204 18.9779 16.6161 17.9165C14.1457 16.0493 14.0688 16.0021 13.8492 16.2164C13.7916 16.2726 13.3728 17.9562 12.6311 21.1136C12.0093 23.7599 11.5004 25.9776 11.5 26.0416C11.4991 26.1997 11.6693 26.3144 12.8873 26.9777C14.1235 27.6509 14.1816 27.662 14.4468 27.2777L14.6286 27.0141L14.9337 27.2327L15.2388 27.4513L15.1261 27.667C14.9698 27.966 14.9363 28.4643 15.0499 28.7984C15.2236 29.309 15.744 29.7267 16.2986 29.801C16.5346 29.8326 16.5378 29.8358 16.5748 30.0781C16.6973 30.8789 17.3285 31.4314 18.1212 31.4314H18.4807L18.5752 31.7443C18.7008 32.1604 19.1064 32.5695 19.529 32.7065C19.8634 32.8149 20.3463 32.7956 20.6189 32.6629C20.7737 32.5875 20.7898 32.5881 20.8183 32.6708C21.0728 33.4121 21.7161 33.8516 22.44 33.7786C22.8159 33.7408 23.0804 33.601 23.5731 33.1799C23.8704 32.9258 24.0102 32.8386 24.0792 32.8643C24.1316 32.8839 24.5593 33.1158 25.0297 33.3798C25.5001 33.6438 25.9764 33.8917 26.0882 33.9306C26.534 34.0859 27.125 33.9735 27.4969 33.6628C27.7362 33.4629 28.0015 33.0077 28.0015 32.7973C28.0015 32.6884 28.0199 32.6748 28.1236 32.7069C28.4183 32.7984 28.9168 32.7983 29.1994 32.7067C29.6861 32.5489 30.1013 32.0456 30.1593 31.5433L30.1841 31.3282L30.4928 31.3213C31.269 31.3038 31.8836 30.7317 31.9599 29.9557L31.9913 29.6355L32.2506 29.5994C32.9184 29.5065 33.4772 28.8935 33.5017 28.2272L33.5113 27.9656L34.318 27.1839C34.7617 26.7538 35.1343 26.4259 35.146 26.455C35.2021 26.5948 35.7473 27.3554 35.8235 27.4001C35.9626 27.4818 36.109 27.4185 37.3111 26.757C38.1755 26.2813 38.4626 26.0977 38.4987 25.9975C38.5607 25.8256 36.3528 16.3522 36.2033 16.1484C35.9804 15.8445 35.9782 15.8457 33.457 17.7546ZM36.7127 21.3355C37.2695 23.7075 37.7052 25.6672 37.6809 25.6903C37.6567 25.7134 37.2902 25.9225 36.8665 26.155L36.0961 26.5777L35.8622 26.1984C35.7336 25.9898 35.6104 25.7763 35.5884 25.7239C35.5664 25.6715 35.4896 25.5523 35.4176 25.4589C35.3457 25.3656 34.5247 24.0762 33.5933 22.5936C32.1153 20.241 31.9097 19.8882 31.9783 19.8212C32.0792 19.7228 35.6782 17.0007 35.6909 17.0133C35.6961 17.0185 36.1559 18.9635 36.7127 21.3355ZM16.2689 18.582C17.2881 19.3522 18.1219 19.9974 18.1219 20.0158C18.1219 20.0526 14.0126 26.5901 13.9499 26.653C13.9207 26.6824 12.4276 25.916 12.3215 25.8171C12.3064 25.803 14.0321 18.3643 14.2791 17.3783C14.3104 17.2533 14.354 17.1579 14.376 17.1664C14.3979 17.1748 15.2497 17.8118 16.2689 18.582ZM27.649 20.6527C28.2874 20.8568 28.9942 21.0488 29.2198 21.0794C29.7639 21.1533 30.2996 21.0782 30.9664 20.8344C31.2519 20.73 31.4913 20.6523 31.4983 20.6618C31.5177 20.6881 34.6362 25.6535 34.6661 25.7057C34.6804 25.7308 34.3538 26.0822 33.9402 26.4867L33.1883 27.2221L32.9698 27.0182C32.6788 26.7466 26.8985 22.1594 26.7486 22.081C26.6485 22.0287 26.5461 22.0594 26.0472 22.2906C25.2658 22.6528 24.749 22.783 24.066 22.7898C23.6456 22.7939 23.4374 22.7688 23.1431 22.6781C22.683 22.5364 22.3289 22.3462 22.3289 22.2406C22.3289 22.1924 23.0218 21.8048 24.1474 21.2231C25.7708 20.3842 25.9939 20.2832 26.2271 20.2825C26.4058 20.2819 26.8556 20.399 27.649 20.6527ZM23.8488 20.5245C23.7891 20.5688 23.3372 20.8109 22.8446 21.0624C22.352 21.314 21.8839 21.5829 21.8045 21.6602C21.5976 21.8615 21.5077 22.1873 21.5874 22.4471C21.686 22.768 21.8422 22.9162 22.3197 23.1416C22.9847 23.4554 23.3846 23.5301 24.2288 23.498C25.0051 23.4684 25.3464 23.3902 26.1278 23.0625C26.5463 22.887 26.6051 22.8747 26.6878 22.945C26.7386 22.9882 28.0504 24.0304 29.6029 25.2611C31.1554 26.4917 32.4912 27.5711 32.5714 27.6595C32.7439 27.8501 32.808 28.1471 32.7236 28.3651C32.5803 28.7351 32.1638 28.9676 31.8176 28.8706C31.7254 28.8448 30.6275 28.1031 29.3779 27.2224C28.1283 26.3417 27.0271 25.5841 26.9308 25.5388C26.7909 25.4729 26.7281 25.4687 26.6176 25.5179C26.4309 25.6009 26.3511 25.8141 26.4403 25.9916C26.4816 26.0738 27.3896 26.7488 28.7327 27.6956C30.1224 28.6754 31.0031 29.3311 31.0805 29.4436C31.2226 29.6504 31.2397 29.9171 31.1248 30.1342C30.8815 30.5933 30.3398 30.7071 29.896 30.3923C29.7646 30.2991 28.8038 29.6314 27.7609 28.9086C26.2174 27.8388 25.8316 27.5943 25.6876 27.5943C25.4824 27.5943 25.3416 27.7486 25.3416 27.9735C25.3416 28.1568 25.3893 28.194 27.4715 29.6314C28.3893 30.265 29.2014 30.8545 29.2765 30.9415C29.6398 31.363 29.286 32.0455 28.7041 32.0455C28.4069 32.0455 28.6076 32.1667 26.1633 30.511C24.4591 29.3566 24.3456 29.3028 24.1389 29.552C24.0093 29.7083 24.0118 29.8776 24.1459 30.018C24.2047 30.0797 24.876 30.5509 25.6377 31.065C26.3993 31.5792 27.0711 32.0602 27.1306 32.134C27.3854 32.4503 27.2916 32.9037 26.9214 33.1444C26.5938 33.3573 26.4299 33.3164 25.4727 32.7821C24.9976 32.5168 24.5983 32.29 24.5855 32.278C24.5727 32.2659 24.6056 32.1673 24.6586 32.0588C25.0801 31.1958 24.4658 30.1305 23.4696 29.9973C23.2409 29.9666 23.2249 29.9537 23.195 29.7731C23.0915 29.1475 22.6694 28.6266 22.1426 28.4744C21.9804 28.4275 21.7922 28.3892 21.7244 28.3892C21.6239 28.3892 21.5949 28.3523 21.5679 28.1905C21.4769 27.6436 21.2002 27.237 20.7399 26.9737C20.395 26.7764 19.816 26.7428 19.454 26.899C19.3109 26.9609 19.1877 27.0114 19.1803 27.0114C19.173 27.0114 19.153 26.9458 19.1361 26.8657C19.0827 26.6132 18.7848 26.2213 18.523 26.0593C18.177 25.8451 17.7712 25.7682 17.3919 25.8451C17.0442 25.9155 16.8309 26.0478 16.2691 26.5415C16.0412 26.7416 15.8256 26.9054 15.79 26.9054C15.7544 26.9054 15.5744 26.7939 15.3901 26.6576C15.2057 26.5213 15.0461 26.4034 15.0353 26.3956C15.0246 26.3878 15.7891 25.1545 16.7343 23.6548L18.4529 20.9281L19.1967 20.8942C20.4002 20.8394 21.9626 20.7053 22.9109 20.5755C24.0237 20.4232 23.9824 20.4255 23.8488 20.5245ZM18.0995 26.6651C18.4224 26.8716 18.547 27.3618 18.3524 27.6599C18.3002 27.7397 17.9345 28.0783 17.5396 28.4124C16.6196 29.1906 16.3852 29.2498 15.9407 28.8159C15.7564 28.636 15.7337 28.585 15.7354 28.3557C15.7364 28.2138 15.767 28.0458 15.8032 27.9823C15.8944 27.8227 17.1892 26.7011 17.3891 26.6085C17.5838 26.5184 17.9108 26.5444 18.0995 26.6651ZM20.4323 27.6493C20.7883 27.8641 20.9142 28.3536 20.6991 28.686C20.6594 28.7473 20.1377 29.217 19.5396 29.7298C18.3772 30.7265 18.2623 30.7917 17.8839 30.6698C17.6425 30.592 17.3779 30.3009 17.3321 30.063C17.2667 29.7225 17.3795 29.5459 18.0014 29.0157C18.3201 28.7439 18.7767 28.3462 19.0163 28.1318C19.2559 27.9174 19.5252 27.697 19.6147 27.6419C19.8327 27.5078 20.2033 27.5112 20.4323 27.6493ZM22.1315 29.2764C22.2102 29.3336 22.3197 29.4861 22.3748 29.6153C22.4581 29.8106 22.4651 29.8862 22.4161 30.0638C22.3659 30.2459 22.2299 30.3878 21.4933 31.0271C21.0181 31.4395 20.538 31.8373 20.4265 31.9112C19.9185 32.2477 19.2619 31.9008 19.2619 31.2959C19.2619 31.1674 19.2995 31.0098 19.3455 30.9457C19.4618 30.7836 21.1778 29.3039 21.3632 29.2058C21.558 29.1027 21.941 29.1379 22.1315 29.2764ZM23.8037 30.9435C24.0236 31.1581 24.0944 31.4686 23.9832 31.7306C23.9139 31.8941 22.964 32.7689 22.6546 32.9543C22.3333 33.1468 21.8542 33.0298 21.6512 32.7092C21.5345 32.5248 21.5098 32.2405 21.5922 32.0289C21.639 31.9087 22.736 30.9224 22.9803 30.7807C23.0404 30.7459 23.2063 30.727 23.3519 30.7385C23.5647 30.7552 23.651 30.7944 23.8037 30.9435Z" fill="#086AD8"/>
</svg>
