<svg width="57" height="47" viewBox="0 0 57 47" fill="none" xmlns="http://www.w3.org/2000/svg">
<path fill-rule="evenodd" clip-rule="evenodd" d="M1.34886 0.186189C1.09894 0.296995 0.854375 0.508142 0.719953 0.729296C0.501422 1.08898 0.5 1.23146 0.5 23.4984C0.5 45.7744 0.501313 45.9078 0.720172 46.268C0.861922 46.5012 1.09423 46.6962 1.37216 46.8152C1.80123 46.9989 1.96016 47 28.5 47C55.0398 47 55.1988 46.9989 55.6278 46.8152C55.9058 46.6962 56.1381 46.5012 56.2798 46.268C56.4987 45.9078 56.5 45.7744 56.5 23.4984C56.5 1.22246 56.4987 1.08907 56.2798 0.728928C56.1381 0.495657 55.9058 0.300668 55.6278 0.181691C55.1987 -0.00209857 55.0448 -0.00310839 28.477 0.00093094C2.09075 0.00497027 1.75267 0.00726536 1.34886 0.186189ZM33.5312 4.17393V5.59687H18.6562H3.78125V4.17393V2.75098H18.6562H33.5312V4.17393ZM40.0938 4.17393V5.59687H38.4531H36.8125V4.17393V2.75098H38.4531H40.0938V4.17393ZM46.6562 4.17393V5.59687H45.0156H43.375V4.17393V2.75098H45.0156H46.6562V4.17393ZM53.2188 4.17393V5.59687H51.5781H49.9375V4.17393V2.75098H51.5781H53.2188V4.17393ZM53.2188 26.2984V44.2459H28.5H3.78125V26.2984V8.35096H28.5H53.2188V26.2984ZM18 19.4687C17.6703 19.5768 10.8332 25.2757 10.61 25.6283C10.4247 25.9211 10.4071 26.4132 10.569 26.7744C10.6912 27.0475 16.8772 32.327 17.6062 32.7805C18.4086 33.2798 19.6122 33.0718 20.0118 32.3651C20.2384 31.9643 20.2368 31.3133 20.0086 31.0238C19.9101 30.899 18.6058 29.7637 17.1101 28.5011L14.3906 26.2053L17.1322 23.9109C18.6402 22.649 19.9445 21.5049 20.0307 21.3686C20.117 21.2322 20.1875 20.9389 20.1875 20.7166C20.1875 19.7842 19.0378 19.1283 18 19.4687ZM31.2345 19.4704C31.0841 19.5208 30.8486 19.6506 30.7112 19.7589C30.4245 19.9851 23.9536 30.8823 23.774 31.4416C23.673 31.7563 23.689 31.8748 23.8827 32.2424C24.2038 32.8515 24.6464 33.0663 25.4865 33.0209C26.0869 32.9884 26.1652 32.9579 26.5011 32.6257C26.7033 32.4255 28.321 29.7985 30.1427 26.7115C33.0025 21.8657 33.4206 21.1036 33.4212 20.735C33.4227 19.7836 32.2774 19.1214 31.2345 19.4704ZM37.6897 19.5282C36.9178 19.8536 36.5712 20.7392 36.9693 21.3686C37.0555 21.5049 38.3598 22.649 39.8678 23.9109L42.6094 26.2053L39.8899 28.5011C38.3942 29.7637 37.0899 30.899 36.9914 31.0238C36.7423 31.3398 36.7578 32.1023 37.0201 32.4363C37.5463 33.1062 38.6201 33.2619 39.3937 32.7805C40.1228 32.327 46.3088 27.0475 46.431 26.7744C46.5929 26.4132 46.5753 25.9211 46.39 25.6283C46.1488 25.247 39.3147 19.5724 38.9655 19.4634C38.5214 19.3248 38.124 19.3449 37.6897 19.5282Z" fill="#085BD8"/>
</svg>
