<svg width="63" height="63" viewBox="0 0 63 63" fill="none" xmlns="http://www.w3.org/2000/svg">
<path fill-rule="evenodd" clip-rule="evenodd" d="M30.3617 0.13064C29.6555 0.297126 28.7074 0.819472 28.1074 1.37283C27.6033 1.83758 26.7026 3.37238 26.7026 3.76651C26.7026 3.90654 25.6017 3.93459 20.1216 3.93459C14.2319 3.93459 13.5406 3.91441 13.5406 3.74202C13.5406 3.40683 12.2929 2.2781 11.7427 2.11543C10.6529 1.79329 9.73374 2.00887 8.8648 2.79036C7.5684 3.95625 7.54158 5.69408 8.80059 6.95349C9.66989 7.82308 10.5894 8.0634 11.7427 7.72255C12.2929 7.55988 13.5406 6.43115 13.5406 6.09596C13.5406 5.92541 13.9725 5.90351 17.3232 5.90437L21.1057 5.90536L19.8088 6.49747C17.4103 7.59249 15.2047 9.01937 13.1101 10.8312C8.49725 14.8212 5.17501 20.5126 4.05648 26.3412C3.90838 27.1131 3.76926 27.814 3.74736 27.8985C3.7187 28.0094 3.34414 28.0523 2.40656 28.0523C1.18926 28.0523 1.08605 28.0718 0.803623 28.3544L0.501635 28.6564V31.9707C0.501635 36.11 0.374689 35.8395 2.35822 35.9275L3.74552 35.989L3.90863 36.9734C4.59994 41.1463 6.57621 45.6288 9.26052 49.1124C13.474 54.5804 19.9251 58.4972 26.5181 59.5903L27.5022 59.7535L27.5637 61.1412C27.6516 63.1246 27.3841 62.9984 31.5 62.9984C35.6159 62.9984 35.3483 63.1246 35.4363 61.1412L35.4978 59.7535L36.4819 59.5903C37.0231 59.5006 38.1584 59.2395 39.0046 59.01C48.4439 56.4506 55.9527 48.9394 58.5113 39.4969C58.7407 38.6504 59.0017 37.5148 59.0914 36.9734L59.2545 35.989L60.6418 35.9275C62.6253 35.8395 62.4984 36.11 62.4984 31.9707V28.6564L62.1964 28.3544C61.9139 28.0718 61.8107 28.0523 60.5934 28.0523C59.6559 28.0523 59.2813 28.0094 59.2525 27.8985C59.2305 27.814 59.0888 27.1079 58.9376 26.3296C58.4637 23.89 57.4237 20.9942 56.2162 18.7505C53.3327 13.3934 48.6603 8.99439 43.2118 6.50682L41.8943 5.90536L45.6619 5.90437L49.4295 5.90339L49.5841 6.27672C49.9304 7.11284 51.1699 7.87218 52.1887 7.87218C53.3698 7.87218 54.6996 6.87499 54.9997 5.7641C55.1734 5.12116 55.0899 4.10637 54.8204 3.58501C54.1725 2.33175 52.6537 1.69903 51.2808 2.11051C50.6912 2.28721 49.7941 3.0543 49.5841 3.56126L49.4295 3.93459H42.8635C37.3961 3.93459 36.2974 3.90642 36.2974 3.76651C36.2974 3.6741 36.1013 3.20651 35.8618 2.72748C34.838 0.680426 32.5705 -0.390106 30.3617 0.13064ZM32.4083 2.11543C33.4654 2.42785 34.4522 3.7814 34.4522 4.91899C34.4522 6.4437 33.0242 7.87218 31.5 7.87218C29.9758 7.87218 28.5478 6.4437 28.5478 4.91899C28.5478 4.14562 28.8292 3.52164 29.4662 2.88314C30.3291 2.0181 31.2585 1.77557 32.4083 2.11543ZM11.5165 4.23668C12.1268 4.84701 11.6944 5.90339 10.8344 5.90339C10.3287 5.90339 9.85035 5.42485 9.85035 4.91899C9.85035 4.41313 10.3287 3.93459 10.8344 3.93459C11.074 3.93459 11.3262 4.0462 11.5165 4.23668ZM52.8477 4.23668C53.4579 4.84701 53.0255 5.90339 52.1656 5.90339C51.6599 5.90339 51.1815 5.42485 51.1815 4.91899C51.1815 4.41313 51.6599 3.93459 52.1656 3.93459C52.4052 3.93459 52.6574 4.0462 52.8477 4.23668ZM27.1741 7.1895C27.6806 8.16935 28.4362 8.88131 29.5097 9.39C30.2528 9.74217 30.4432 9.77945 31.5 9.77945C32.5568 9.77945 32.7472 9.74217 33.4903 9.39C34.5638 8.88131 35.3194 8.16935 35.8259 7.1895C36.0832 6.69177 36.3129 6.39632 36.4428 6.39608C36.5567 6.39583 37.2763 6.55752 38.0419 6.75551C46.1295 8.84661 52.6468 14.6386 55.7753 22.5151C56.3515 23.9658 57.0077 26.2959 57.1568 27.4203L57.2407 28.0523H56.2351C55.3316 28.0523 55.199 28.083 54.9277 28.3544L54.6258 28.6564V31.9899V35.3234L54.9277 35.6254C55.1982 35.8961 55.3326 35.9275 56.2193 35.9275C57.3988 35.9275 57.3548 35.8009 56.8916 37.8671C55.5991 43.6315 52.2172 48.9405 47.4912 52.6238C44.6535 54.8355 40.9198 56.5945 37.3753 57.3898C35.3097 57.8532 35.4363 57.8971 35.4363 56.7173C35.4363 55.8303 35.4049 55.6959 35.1343 55.4253L34.8324 55.1232H31.5H28.1676L27.8657 55.4253C27.5951 55.6959 27.5637 55.8303 27.5637 56.7173C27.5637 57.8971 27.6903 57.8532 25.6247 57.3898C22.7271 56.7397 19.4681 55.3378 16.9735 53.6683C11.4767 49.9897 7.54417 44.2706 6.1084 37.8671C5.64515 35.8009 5.60123 35.9275 6.78065 35.9275C7.66742 35.9275 7.80175 35.8961 8.07225 35.6254L8.37424 35.3234V31.9899V28.6564L8.07225 28.3544C7.80175 28.0837 7.66742 28.0523 6.78065 28.0523C5.6032 28.0523 5.64294 28.1612 6.09401 26.1726C8.2281 16.7614 15.5416 9.21982 24.919 6.76055C25.6632 6.56527 26.3828 6.40358 26.5181 6.40112C26.6982 6.39768 26.874 6.60908 27.1741 7.1895ZM28.9329 12.0251C28.6683 12.2466 19.6911 33.0836 19.6911 33.4761C19.6911 33.5905 20.5593 35.6368 21.6205 38.0234L23.5498 42.3626L22.6046 45.2081C22.0846 46.7731 21.6592 48.1794 21.6592 48.3331C21.6592 48.4869 21.7952 48.7486 21.9612 48.9148L22.2631 49.2168H31.5H40.7369L41.0388 48.9148C41.2048 48.7486 41.3407 48.4869 41.3407 48.3331C41.3407 48.1794 40.9155 46.7733 40.3957 45.2086L39.4505 42.3637L41.3959 37.9859C42.7256 34.9932 43.3216 33.5176 43.2795 33.3219C43.1357 32.655 34.2914 12.2233 34.0607 12.0251C33.8411 11.8366 33.5224 11.8098 31.5 11.8098C29.4801 11.8098 29.1578 11.8368 28.9329 12.0251ZM30.5159 20.977C30.5159 26.9787 30.488 28.1754 30.3479 28.1754C30.2555 28.1754 29.7915 28.3698 29.3168 28.6073C28.268 29.1322 27.5574 29.8706 27.0305 30.9834C26.6784 31.7267 26.6411 31.9172 26.6411 32.9743C26.6411 34.0314 26.6784 34.2219 27.0305 34.9652C27.5722 36.1092 28.2695 36.8217 29.3892 37.3752C30.2674 37.8094 30.3837 37.8348 31.5 37.8348C32.6163 37.8348 32.7326 37.8094 33.6108 37.3752C34.7305 36.8217 35.4278 36.1092 35.9695 34.9652C36.3216 34.2219 36.3589 34.0314 36.3589 32.9743C36.3589 31.9172 36.3216 31.7267 35.9695 30.9834C35.4426 29.8706 34.7319 29.1322 33.6832 28.6073C33.2085 28.3698 32.7445 28.1754 32.6521 28.1754C32.512 28.1754 32.4841 26.9787 32.4841 20.977C32.4841 14.9025 32.5109 13.7786 32.6557 13.7786C32.7659 13.7786 34.3311 17.2985 37.0353 23.6276L41.2435 33.4766L39.4934 37.4091L37.7433 41.3417H31.5H25.2567L23.5041 37.4036L21.7518 33.4655L25.9601 23.622C28.6987 17.2167 30.2293 13.7786 30.3422 13.7786C30.4898 13.7786 30.5159 14.8609 30.5159 20.977ZM6.40609 31.9899V33.9587H4.43794H2.46978V31.9899V30.0211H4.43794H6.40609V31.9899ZM32.4083 30.1707C33.4654 30.4832 34.4522 31.8367 34.4522 32.9743C34.4522 34.499 33.0242 35.9275 31.5 35.9275C29.9758 35.9275 28.5478 34.499 28.5478 32.9743C28.5478 32.2009 28.8292 31.5769 29.4662 30.9384C30.3291 30.0734 31.2585 29.8309 32.4083 30.1707ZM60.5302 31.9899V33.9587H58.5621H56.5939V31.9899V30.0211H58.5621H60.5302V31.9899ZM38.3377 45.31L38.985 47.248H31.4995H24.0139L24.6203 45.4331C24.9538 44.4348 25.2528 43.5483 25.2847 43.4632C25.3305 43.3409 26.6426 43.3149 31.5166 43.3401L37.6906 43.372L38.3377 45.31ZM33.4681 59.0608V61.0296H31.5H29.5318V59.0608V57.092H31.5H33.4681V59.0608Z" fill="#085BD8"/>
</svg>
