<svg width="46" height="45" viewBox="0 0 46 45" fill="none" xmlns="http://www.w3.org/2000/svg">
<path fill-rule="evenodd" clip-rule="evenodd" d="M2.61144 0.0521919C1.82132 0.244514 1.09419 0.837743 0.71783 1.59701L0.5 2.03651V14.0347V26.0329L0.698563 26.4311C1.01088 27.0574 1.36595 27.4275 1.96701 27.7531L2.52346 28.0545L7.12023 28.0802L11.717 28.1059V29.992V31.8781H10.7933H9.8695V32.8011V33.724H13.6085H17.3475V32.8028V31.8816L15.478 31.8579L13.6085 31.8342L13.5848 29.9663L13.561 28.0985H14.5305H15.5V27.1755V26.2526H9.33293C3.89906 26.2526 3.13111 26.2361 2.87343 26.114C2.26595 25.8259 2.30352 26.6227 2.30352 14.0347C2.30352 1.4467 2.26595 2.24342 2.87343 1.95538C3.13648 1.83073 4.77962 1.81676 19.1891 1.81676C36.4762 1.81676 35.6114 1.79355 35.943 2.26654C36.0733 2.45235 36.0865 3.26225 36.0865 11.0657V19.6602H37.0563H38.0261L38.002 10.9363C37.9793 2.68001 37.9692 2.18971 37.8147 1.79162C37.5884 1.20885 36.8993 0.481138 36.3302 0.22421L35.8666 0.0148349L19.371 0.0013864C10.2984 -0.0059971 2.7566 0.0168566 2.61144 0.0521919ZM13.6421 3.86665C12.1953 4.40687 11.4064 5.91539 11.8409 7.31043L11.9779 7.74992L10.1113 9.61707L8.24493 11.4842L8.90176 12.1449L9.55859 12.8056L11.4172 10.9501L13.2758 9.09469L13.904 9.24728C14.5003 9.39205 14.5642 9.39205 15.1603 9.24728L15.7883 9.09477L17.1754 10.4787L18.5625 11.8624L18.4389 12.2125C18.2723 12.684 18.283 13.475 18.4633 14.0329C18.6505 14.6123 19.2497 15.2882 19.8453 15.5922C20.4875 15.9198 21.4286 15.9678 22.1177 15.708C23.4088 15.2212 24.167 13.7476 23.8133 12.4125L23.6746 11.889L25.0672 10.4977L26.4597 9.10646L27.0183 9.24939C27.3845 9.34318 27.7167 9.37227 27.9827 9.33395C29.0036 9.1868 29.939 8.46138 30.2833 7.5496C30.5433 6.86118 30.4952 5.92084 30.1674 5.27927C29.1292 3.24828 26.1645 3.24221 25.186 5.26907C24.8336 5.99916 24.7738 6.4891 24.9523 7.18517L25.0953 7.74333L23.705 9.13248L22.3145 10.5217L21.7236 10.376C21.1431 10.2329 20.8225 10.2517 20.0308 10.4756C19.8917 10.515 19.565 10.2347 18.4709 9.13767L17.0868 7.74992L17.2237 7.31043C17.6162 6.04961 16.9878 4.64306 15.7459 4.00289C15.275 3.76011 14.1267 3.68575 13.6421 3.86665ZM14.9834 5.73405C15.7989 6.15544 15.4649 7.44228 14.54 7.44228C13.6227 7.44228 13.2603 6.23798 14.0355 5.7657C14.3718 5.56081 14.6313 5.55219 14.9834 5.73405ZM28.3079 5.86696C28.7453 6.27753 28.6356 7.1058 28.1122 7.34401C27.2588 7.73261 26.4681 6.95005 26.8557 6.10033C27.0896 5.58744 27.8755 5.46113 28.3079 5.86696ZM21.7531 12.4457C22.1867 12.879 22.0746 13.614 21.5301 13.907C20.9682 14.2093 20.2978 13.8653 20.1932 13.2209C20.0543 12.366 21.1355 11.8287 21.7531 12.4457ZM4.239 16.8474V17.8143H5.16276H6.08651V16.8474V15.8806H5.16276H4.239V16.8474ZM26.1157 16.9439C22.3319 17.4963 19.1706 20.1088 17.9041 23.7301C17.0399 26.2011 17.2023 28.9729 18.3538 31.4055C18.8489 32.4515 19.3338 33.1549 20.1544 34.0171C21.8781 35.8284 24.0115 36.8758 26.5607 37.1624C28.9609 37.4323 31.7048 36.6663 33.6486 35.1839L34.0404 34.8851L35.0231 35.8698L36.0058 36.8545L35.8133 37.0252C35.4138 37.3797 35.1188 37.8768 35.1188 38.1956C35.1188 38.4911 35.3057 38.6965 38.313 41.7044C41.3442 44.7361 41.5264 44.9019 41.8829 44.9497L42.2586 45L43.8793 43.3807C45.4352 41.8262 45.5 41.7476 45.5 41.4138C45.5 41.0738 45.4291 40.9953 42.2655 37.8346C39.2146 34.7863 39.0131 34.603 38.7157 34.603C38.3954 34.603 37.8986 34.897 37.5431 35.2969L37.3723 35.4893L36.3867 34.5074L35.4012 33.5255L35.7002 33.1341C36.7878 31.7106 37.4863 29.888 37.6815 27.9644C38.0988 23.8523 35.8375 19.8089 32.0592 17.9109C30.335 17.045 28.0121 16.6669 26.1157 16.9439ZM29.4774 18.9597C32.3589 19.6472 34.6398 21.8173 35.5261 24.7144C35.7482 25.4405 35.7686 25.6282 35.7734 26.9997C35.7779 28.3054 35.7532 28.5817 35.5774 29.188C34.892 31.5525 33.359 33.4076 31.186 34.5023C29.4112 35.3963 26.8413 35.5661 24.9291 34.9157C20.7408 33.4913 18.3941 29.1577 19.5045 24.8982C20.2287 22.1204 22.5336 19.8005 25.3314 19.0333C26.6936 18.6598 28.1152 18.6345 29.4774 18.9597ZM4.239 20.8367C4.239 22.2769 4.36525 22.7403 4.92742 23.3651C5.14323 23.6049 5.52196 23.907 5.76909 24.0363C6.18847 24.2559 6.30804 24.2737 7.56012 24.3031L8.90176 24.3346V23.4108V22.4869L7.75982 22.4579C6.17018 22.4177 6.14185 22.3894 6.10155 20.8011L6.07252 19.6602H5.15581H4.239V20.8367ZM27.6408 21.5257V22.4503L28.1803 22.5112C29.2785 22.6354 30.4618 23.2398 31.1617 24.0341C31.6176 24.5516 32.1891 25.6945 32.2597 26.2298C32.2901 26.4599 32.3352 26.757 32.3602 26.8899L32.4055 27.1316H33.3336H34.2617L34.1999 26.5046C33.8981 23.4448 31.3355 20.8857 28.3424 20.6551L27.6408 20.6011V21.5257ZM42.5755 42.0519L41.9398 42.6913L39.6737 40.4284L37.4076 38.1656L38.0433 37.5261L38.679 36.8868L40.9451 39.1496L43.2112 41.4124L42.5755 42.0519Z" fill="#085BD8"/>
</svg>
